<svg width="12" height="20" fill="none" xmlns="http://www.w3.org/2000/svg"><mask id="a" fill="#fff"><path fill-rule="evenodd" clip-rule="evenodd" d="M8.672 15.842c.18.394.18.394 0 0zm2.073 3.628c.286-.163.562-.893.417-1.188-.505-1.03-.877-2.136-1.237-3.248-.066-.205-.162-.407-.338-.509-.22-.127-.417-.086-.608.003-.154.072-.29.186-.424.297-.408.34-.741.49-.52.799.124.173.282.318.392.503a17.246 17.246 0 011.418 2.992c.136.381.551.55.9.351zm-4.231-8.355c.18.395.18.395 0 0zM5.85 9.661C5.683 8.84 4.854 7.48 4.356 6.39l1.577 3.454-.083-.182zm.66.242c.231-.31.477-.796.311-1.13-.454-.91-.822-1.98-1.214-3.144-.119-.353-.338-.738-.688-.654-.086.02-.171.056-.257.099a2.274 2.274 0 00-.423.3c-.414.343-.751.493-.511.81.122.162.271.299.377.474a17.335 17.335 0 011.468 3.137c.11.315.452.454.739.29l.018-.01a.675.675 0 00.18-.172zM3.775 5.117a2.783 2.783 0 01-.133-.378c-.242-.83-.984-2.068-1.445-3.076l1.578 3.454zm.578-.1c.296-.161.5-.593.348-.893C4.23 3.196 3.851 2.1 3.45.903 3.33.55 3.11.165 2.76.248a1.247 1.247 0 00-.258.1c-.152.076-.287.19-.426.293-.463.346-.87.387-.448.868.098.111.197.225.275.353a17.262 17.262 0 011.523 3.244c.103.295.452.454.652.204a.74.74 0 00.026-.035c.068-.096.148-.204.248-.258zm.424 5.028c-.66-.08-1.156-.255-1.817-.336.66.08 1.074.074 1.817.336a178.865 178.865 0 00-.247-.087c-1.075-.532-1.984-.7-2.81-1.144.743.262 1.487.524 2.562 1.056-.91-.626-1.902-.976-2.893-1.326.991.35 2.066.882 3.388 1.501.248.088.248.088 0 0zm-.33.189l-.247-.088a29.33 29.33 0 01-.405.004c-.458.001-.466.053-.008.003-.348.038-.342.152.006.114l.242-.026c-.826.013-1.568.209-2.311.404.292-.032.562-.071.82-.111.158-.025.164.07.006.097l1.733-.303.165-.094zm.499 1.09c-.33.189-.577.56-1.072.842.33-.188.577-.559 1.072-.842-.495.283-1.072.842-1.566 1.125.494-.283.906-.748 1.4-1.03-.659.377-1.318.754-1.895 1.313.412-.465 1.071-.842 1.73-1.219l-1.978 1.131c.66-.377 1.401-1.03 2.226-1.501.165-.095.248.087.083.181zm.083.182a.972.972 0 00-.286.249c-.598.772-1.052 1.461-1.36 2.067l.082-.157c.157-.291.233-.232.083.063.329-.646.822-1.387 1.15-2.033-.328.646-.492 1.198-.738 1.569.153-.23.339-.568.536-.946.045-.086.067.036.025.123-.039.083.022 0 .05-.087.076-.241.132-.49.266-.71a.192.192 0 01.07-.068l.122-.07zm.411-.465l.028-.015c.167-.096.32-.028.489.043a.482.482 0 01.204.151 17.344 17.344 0 011.57 3.3c.11.316.452.455.739.291l.018-.01a.675.675 0 00.18-.172c.232-.31.478-.795.311-1.129-.453-.912-.822-1.98-1.214-3.145-.118-.353-.338-.738-.688-.654a1.65 1.65 0 00-.418.186.522.522 0 00-.118.093 1.886 1.886 0 01-.367.295c-.195.122-.806.153-.9-.055-.068-.147-.243-.232-.526-.498a1.908 1.908 0 00-.496-.354 20.494 20.494 0 00-2.61-.974c-.334-.097-.695.035-.418.25.368.289.379 1.288-.083 1.393a5.19 5.19 0 00-.157.038c-.358.093-.357.489.002.535 1.212.156 3.146.031 3.899-.184.04-.011.077-.03.118-.038a.192.192 0 01.036-.004c.128 0 .22.134.338.18l.07.03c.212.092.181.389-.051.395-.116.003-.262-.001-.366.058l-.236.135a1.256 1.256 0 01-.2.09c-.714.257-1.512.828-2.085 1.321-.169.146-.243.385-.033.358.32-.041.924.533.759.837-.122.223.07.334.251.163.59-.556 1.267-1.646 1.523-2.34.086-.231.226-.452.431-.57z"/></mask><path fill-rule="evenodd" clip-rule="evenodd" d="M8.672 15.842c.18.394.18.394 0 0zm2.073 3.628c.286-.163.562-.893.417-1.188-.505-1.03-.877-2.136-1.237-3.248-.066-.205-.162-.407-.338-.509-.22-.127-.417-.086-.608.003-.154.072-.29.186-.424.297-.408.34-.741.49-.52.799.124.173.282.318.392.503a17.246 17.246 0 011.418 2.992c.136.381.551.55.9.351zm-4.231-8.355c.18.395.18.395 0 0zM5.85 9.661C5.683 8.84 4.854 7.48 4.356 6.39l1.577 3.454-.083-.182zm.66.242c.231-.31.477-.796.311-1.13-.454-.91-.822-1.98-1.214-3.144-.119-.353-.338-.738-.688-.654-.086.02-.171.056-.257.099a2.274 2.274 0 00-.423.3c-.414.343-.751.493-.511.81.122.162.271.299.377.474a17.335 17.335 0 011.468 3.137c.11.315.452.454.739.29l.018-.01a.675.675 0 00.18-.172zM3.775 5.117a2.783 2.783 0 01-.133-.378c-.242-.83-.984-2.068-1.445-3.076l1.578 3.454zm.578-.1c.296-.161.5-.593.348-.893C4.23 3.196 3.851 2.1 3.45.903 3.33.55 3.11.165 2.76.248a1.247 1.247 0 00-.258.1c-.152.076-.287.19-.426.293-.463.346-.87.387-.448.868.098.111.197.225.275.353a17.262 17.262 0 011.523 3.244c.103.295.452.454.652.204a.74.74 0 00.026-.035c.068-.096.148-.204.248-.258zm.424 5.028c-.66-.08-1.156-.255-1.817-.336.66.08 1.074.074 1.817.336a178.865 178.865 0 00-.247-.087c-1.075-.532-1.984-.7-2.81-1.144.743.262 1.487.524 2.562 1.056-.91-.626-1.902-.976-2.893-1.326.991.35 2.066.882 3.388 1.501.248.088.248.088 0 0zm-.33.189l-.247-.088a29.33 29.33 0 01-.405.004c-.458.001-.466.053-.008.003-.348.038-.342.152.006.114l.242-.026c-.826.013-1.568.209-2.311.404.292-.032.562-.071.82-.111.158-.025.164.07.006.097l1.733-.303.165-.094zm.499 1.09c-.33.189-.577.56-1.072.842.33-.188.577-.559 1.072-.842-.495.283-1.072.842-1.566 1.125.494-.283.906-.748 1.4-1.03-.659.377-1.318.754-1.895 1.313.412-.465 1.071-.842 1.73-1.219l-1.978 1.131c.66-.377 1.401-1.03 2.226-1.501.165-.095.248.087.083.181zm.083.182a.972.972 0 00-.286.249c-.598.772-1.052 1.461-1.36 2.067l.082-.157c.157-.291.233-.232.083.063.329-.646.822-1.387 1.15-2.033-.328.646-.492 1.198-.738 1.569.153-.23.339-.568.536-.946.045-.086.067.036.025.123-.039.083.022 0 .05-.087.076-.241.132-.49.266-.71a.192.192 0 01.07-.068l.122-.07zm.411-.465l.028-.015c.167-.096.32-.028.489.043a.482.482 0 01.204.151 17.344 17.344 0 011.57 3.3c.11.316.452.455.739.291l.018-.01a.675.675 0 00.18-.172c.232-.31.478-.795.311-1.129-.453-.912-.822-1.98-1.214-3.145-.118-.353-.338-.738-.688-.654a1.65 1.65 0 00-.418.186.522.522 0 00-.118.093 1.886 1.886 0 01-.367.295c-.195.122-.806.153-.9-.055-.068-.147-.243-.232-.526-.498a1.908 1.908 0 00-.496-.354 20.494 20.494 0 00-2.61-.974c-.334-.097-.695.035-.418.25.368.289.379 1.288-.083 1.393a5.19 5.19 0 00-.157.038c-.358.093-.357.489.002.535 1.212.156 3.146.031 3.899-.184.04-.011.077-.03.118-.038a.192.192 0 01.036-.004c.128 0 .22.134.338.18l.07.03c.212.092.181.389-.051.395-.116.003-.262-.001-.366.058l-.236.135a1.256 1.256 0 01-.2.09c-.714.257-1.512.828-2.085 1.321-.169.146-.243.385-.033.358.32-.041.924.533.759.837-.122.223.07.334.251.163.59-.556 1.267-1.646 1.523-2.34.086-.231.226-.452.431-.57z" fill="#fff"/><path d="M1.72 8.814L1.166 9.92l.961-2.28-.407 1.173zM4.282 9.87l.651-1.048-1.174 2.172.523-1.124zm-.247.37l.043-1.23.012 2.456-.055-1.225zm-2.311.405l.055 1.225-.27-2.42.215 1.195zm1.161 2.087l.74.895-1.547-1.72.807.825zm2.124-1.12l-1.06-.402 1.06.402zM3.486 13.95l-.726-.908.726.908zm-.977-1.358l-.685-.945.685.945zm2.085-1.321l-.309-1.166.31 1.166zm.854-.678l.478-1.145-.478 1.145zm-.409-.21l-.06 1.232.06-1.232zm.338.18l-.443 1.16.443-1.16zm-4.393-.49L.773 8.879l.211 1.197zm.002.536l.195-1.223-.195 1.223zm.155-.573l.179 1.204-.179-1.204zm3.602 1.718l.862.759-.862-.76zm-2.2-1.221L2.44 9.315l.105 1.219zm1.25-.267l.054 1.225-.054-1.225zm.002-.117l.058-1.232-.058 1.232zm.653.084l.407-1.173 2.49.88-2.404 1.374-.493-1.081zm.437.192l-.237-1.189.237 1.19zm.118-.038l.147 1.211-.147-1.211zm1.17-.113l.536 1.057-.535-1.057zm1.592.08l1.078-.473-1.078.473zm-.033 4.166l1.074-.485-1.074.485zm-4.09-9.782l1.093-.425-1.093.425zm2.519 6.481l-.97.708.97-.708zm-.588-1.425l1.073-.487-1.073.487zM4.105 6.658l.969-.709-.97.709zm.732 4.985l.947.635-.947-.635zm-.175-6.57l.434 1.113-.434-1.112zm-.423.3l.668.96-.668-.96zM1.642 8.394l.353-1.19-.353 1.19zm2.463-3.119l-.895-.714.895.714zm4.874 9.253l-.405-1.127.405 1.127zm-.424.297l.668.96-.668-.96zm-3.984-2.47l1.08.34-1.08-.34zm.348-7.38l-.191-1.202.191 1.201zm-.171 4.747l-.777.947.777-.947zm-1.32-4.616L4.5 4.62l-1.074.485zm.65.204l.85.775-.85-.775zm5.51 9.215l-.582 1.093.581-1.093zm-5.092-2.207l-.99-.56.99.56zm3.539 3.306l.919-.785-.92.785zm.392.503l.975-.699-.975.7zm-1.768-6.24l-.49-1.084.49 1.084zm-.118.093l.771.864-.77-.864zm3.603 8.922c-.547-1.116-.942-2.298-1.301-3.41l2.165-.918c.36 1.114.708 2.144 1.171 3.088l-2.035 1.24zm-1.138-3.284a.519.519 0 00.263.058c.09-.005.139-.032.115-.02l-.81-2.255c.374-.173.966-.331 1.595.032l-1.163 2.185zm.217.168c-.12.1-.253.2-.313.247-.088.07-.08.069-.05.035s.206-.235.242-.578a.957.957 0 00-.148-.65l-1.839 1.568a1.535 1.535 0 01-.286-1.065c.049-.469.291-.786.43-.94.136-.151.29-.272.372-.336.11-.087.173-.132.256-.202l1.336 1.92zm.179-.358a18.426 18.426 0 011.513 3.197l-2.14.988a16.11 16.11 0 00-1.323-2.787l1.95-1.398zm-4.67-5.443c-.045-.223-.216-.628-.518-1.23-.265-.527-.63-1.207-.89-1.776L5.387 5.8c.239.522.536 1.068.853 1.698.279.556.606 1.242.728 1.84l-2.236.648zM5.387 5.8l.003.007.003.006.003.007.003.006.003.006.003.007.003.006.003.006c0 .003.002.005.003.007l.002.006.003.006.003.007.003.006.003.006.003.007.003.006.003.006c0 .003.002.005.003.007l.002.006.003.006a3.862 3.862 0 00.006.013l.003.006.003.007.003.006.003.006a3.832 3.832 0 00.005.013l.003.006.003.006.003.007.003.006.003.006.003.006.002.007.003.006.003.006.003.007.003.006.003.006.003.006.002.007.003.006.003.006.003.006.003.006c0 .003.002.005.003.007l.003.006.002.006.003.006.003.007.003.006.003.006.003.006.002.006.003.007.003.006.003.006.003.006.003.007.002.006.003.006.003.006.003.006.003.006c0 .003.002.005.003.007l.002.006.003.006.003.006.003.006.003.007.002.006.003.006.003.006.003.006.003.006c0 .003.002.005.003.007l.002.006.003.006.003.006.003.006.003.006.002.007.003.006.003.006.003.006.003.006a1.675 1.675 0 00.005.013l.003.006.003.006.003.006.003.006.002.006.003.006.003.007.003.006.003.006.002.006.003.006.003.006.003.006.003.006.002.007.003.006.003.006.003.006.003.006.002.006.003.006.003.007a1.66 1.66 0 00.006.012l.002.006.003.006.003.006.003.006.003.006.002.007.003.006.003.006.003.006.003.006.002.006.003.006.003.006.003.007a1.66 1.66 0 00.005.012l.003.006.003.006.003.006.003.006.002.006.003.007.003.006.003.006.002.006.003.006.003.006.003.006.003.006.002.007.003.006.003.006.003.006.003.006.002.006.003.006.003.006.003.007.003.006.002.006.003.006.003.006.003.006.003.006.002.007.003.006.003.006.003.006.003.006.003.006.002.006.003.007.003.006.003.006a1.675 1.675 0 01.005.012l.003.006.003.006a1.675 1.675 0 01.006.013l.002.006.003.006.003.006a3.676 3.676 0 01.006.013l.002.006.003.006.003.006.003.006.003.006.003.007.002.006.003.006.003.006.003.006.003.006c0 .003.002.005.003.007l.002.006.003.006.003.006.003.006c0 .003.002.005.003.007l.002.006.003.006.003.006.003.006c0 .003.002.005.003.007l.003.006.002.006.003.006.003.006.003.007.003.006.003.006a3.156 3.156 0 00.008.019l.003.006.003.006.003.007.003.006.002.006.003.006.003.007.003.006.003.006.003.006.003.007.002.006.003.006.003.006.003.007.003.006a1.2 1.2 0 01.006.013l.003.006.002.006.003.006.003.007.003.006.003.006.003.007.003.006.003.006.002.007a1.77 1.77 0 00.012.025l.003.006.003.007.003.006.003.006.003.007.002.006.003.006.003.007a3.934 3.934 0 01.006.012l.003.007.003.006.003.007.003.006.003.006.003.007.002.006.003.007.003.006.003.006.003.007.003.006.003.007.003.006.003.006c0 .003.002.005.003.007l.003.006a1.844 1.844 0 00.006.013l.003.007.003.006.003.007.003.006.002.007a1.86 1.86 0 01.006.013l.003.006.003.007.003.006.003.007.003.006.003.007.003.006.003.007.003.006.003.007.003.006.003.007.003.006.003.007.003.007.003.006.003.007.003.006.003.007.003.006.003.007.003.007.003.006.003.007.003.006.003.007.003.007.003.006.003.007.003.007.003.006.003.007.003.007a1.972 1.972 0 00.01.02l.003.006c0 .003.002.005.003.007a4.353 4.353 0 01.006.013c0 .003.002.005.003.007l.003.007.003.007.003.006.003.007.003.007a4.43 4.43 0 01.006.013l.004.007a4.446 4.446 0 01.009.02c0 .003.002.005.003.007l.003.007.003.007.003.007.003.006.004.007c0 .003.002.005.003.007l.003.007a3.828 3.828 0 00.006.014l.003.006.003.007.003.007.004.007.003.007.003.007.003.007.003.007.003.007.003.007.004.006c0 .003.002.005.003.007 0 .003.002.005.003.007l.003.007.003.007.004.007c0 .003.002.005.003.007 0 .003.002.005.003.007l.003.007.003.007.003.007.004.007.003.007c0 .003.002.005.003.007l.003.007.003.007.004.007c0 .003.002.005.003.007l.003.007.003.008.004.007.003.007.003.007.003.007.004.007.003.007.003.007.003.007.004.008.003.007.003.007.003.007.004.007c0 .003.002.005.003.007l.003.008.004.007.003.007.003.007.003.007.004.008.003.007.003.007.004.007c0 .003.002.005.003.008l.003.007.004.007c0 .003.002.005.003.008l.003.007.004.007c0 .003.002.005.003.007l.003.008.004.007c0 .003.002.005.003.008l.003.007.004.007c0 .003.002.005.003.008l.004.007.003.007.003.008a1.673 1.673 0 01.007.015l.003.007.004.007.003.008.004.007c0 .003.002.005.003.008l.003.007.004.008.003.007a4.598 4.598 0 00.007.015l.004.008.003.007.004.008.003.007.003.008.004.008.003.007.004.008.003.007.004.008a2.815 2.815 0 01.007.015c0 .003.002.005.003.008l.004.008a2.6 2.6 0 01.003.007l.004.008.003.008.004.007a32505915287.201 32505915287.201 0 00.007.016l.003.007.004.008.003.008.004.008.003.007.004.008.004.008a2.694 2.694 0 00.007.016l.003.007.004.008.003.008.004.008.004.008.003.008.004.007c0 .003.002.006.003.008l.004.008.004.008c0 .003.002.005.003.008l.004.008.003.008.004.008.004.008c0 .003.002.005.003.008l.004.008.004.008.003.008.004.008a2.857 2.857 0 00.007.016l.004.008.004.008c0 .003.002.005.003.008l.004.008.004.008.003.008.004.009a2.014 2.014 0 01.008.016c0 .003.002.005.003.008l.004.008.004.008.004.009.003.008.004.008.004.008.004.008a3.015 3.015 0 01.007.017l.004.008.004.008.003.009.004.008.004.008.004.009.004.008c0 .003.002.006.003.008l.004.009.004.008.004.009.004.008.004.008.003.009.004.008.004.009.004.008.004.009.004.008.004.009.004.008-2.064 1.18-.004-.009a.7.7 0 00-.007-.017l-.004-.008-.004-.008a.703.703 0 00-.004-.009l-.004-.008-.004-.009-.004-.008-.003-.009-.004-.008-.004-.008-.004-.009a3.118 3.118 0 01-.004-.008l-.004-.008-.003-.009a.548.548 0 01-.004-.008l-.004-.008-.004-.009-.003-.008-.004-.008-.004-.009-.004-.008-.004-.008c0-.003-.002-.006-.003-.008l-.004-.008-.004-.009-.004-.008c0-.003-.002-.005-.003-.008l-.004-.008-.004-.008-.003-.009-.004-.008-.004-.008-.004-.008c0-.003-.002-.005-.003-.008l-.004-.008-.004-.008c0-.003-.002-.006-.003-.008l-.004-.008a.62.62 0 00-.004-.008c0-.003-.002-.006-.003-.008l-.004-.008-.004-.008c0-.003-.002-.006-.003-.008l-.004-.008-.004-.008a.51.51 0 00-.003-.008l-.004-.008-.004-.008c0-.003-.002-.005-.003-.008l-.004-.008a.855.855 0 01-.003-.008l-.004-.008a2.76 2.76 0 01-.007-.016l-.004-.008a1.874 1.874 0 00-.007-.015l-.004-.008c0-.003-.002-.005-.003-.008a5.913 5.913 0 00-.004-.008l-.003-.007-.004-.008-.003-.008a2.674 2.674 0 00-.004-.008l-.003-.008a5.824 5.824 0 00-.004-.007l-.004-.008a4.87 4.87 0 00-.003-.008l-.004-.008-.003-.007-.004-.008a5.736 5.736 0 00-.003-.008l-.004-.007c0-.003-.002-.005-.003-.008l-.004-.008-.003-.007a2.585 2.585 0 00-.004-.008l-.003-.008-.004-.007a5.612 5.612 0 00-.003-.008l-.004-.007c0-.003-.002-.005-.003-.008a2.549 2.549 0 00-.003-.008l-.004-.007-.003-.008a5.526 5.526 0 00-.004-.007l-.003-.008a2.512 2.512 0 01-.004-.007c0-.003-.002-.005-.003-.008l-.004-.007c0-.003-.002-.005-.003-.008l-.003-.007-.004-.008-.003-.007a2.47 2.47 0 00-.004-.008l-.003-.007-.003-.008a2.452 2.452 0 01-.004-.007l-.003-.008-.004-.007-.003-.007-.003-.008-.004-.007c0-.003-.002-.005-.003-.008l-.004-.007-.003-.007-.003-.008-.004-.007a1.638 1.638 0 00-.003-.007l-.003-.008-.004-.007c0-.003-.002-.005-.003-.007a1.62 1.62 0 00-.003-.008l-.004-.007-.003-.007-.003-.008-.004-.007-.003-.007-.003-.007-.004-.008a4.28 4.28 0 01-.006-.014l-.003-.007-.004-.007c0-.003-.002-.005-.003-.008l-.003-.007a2.288 2.288 0 01-.004-.007l-.003-.007-.003-.007a1.471 1.471 0 01-.007-.015l-.003-.007-.003-.007-.003-.007-.004-.007c0-.003-.002-.005-.003-.007l-.003-.007-.003-.008a4.873 4.873 0 00-.004-.007L4.4 9.333l-.003-.007-.003-.007-.004-.007-.003-.007-.003-.007-.003-.007-.003-.007-.004-.007-.003-.007-.003-.007-.003-.007a2.163 2.163 0 01-.003-.007l-.004-.007-.003-.007-.003-.007-.003-.007-.003-.007-.004-.007-.003-.007-.003-.007-.003-.007-.003-.007-.003-.006a2.309 2.309 0 00-.003-.007l-.004-.007c0-.003-.002-.005-.003-.007a1.439 1.439 0 00-.003-.007l-.003-.007-.003-.007a2.083 2.083 0 01-.003-.007L4.3 9.118l-.004-.007c0-.003-.002-.005-.003-.007l-.003-.007-.003-.007a2.054 2.054 0 00-.003-.007l-.003-.006-.003-.007-.003-.007-.003-.007-.004-.007-.003-.006c0-.003-.002-.005-.003-.007l-.003-.007a1.389 1.389 0 00-.003-.007l-.003-.006-.003-.007-.003-.007-.003-.007-.003-.006-.003-.007a4.37 4.37 0 01-.007-.013c0-.003-.002-.005-.003-.007l-.003-.007a1.036 1.036 0 00-.009-.02l-.003-.007-.003-.006c0-.003-.002-.005-.003-.007a1.964 1.964 0 01-.003-.007l-.003-.006-.003-.007-.003-.007-.003-.006-.003-.007-.003-.006a1.935 1.935 0 00-.006-.014l-.003-.006-.003-.007-.003-.006-.003-.007a1.317 1.317 0 00-.006-.013l-.003-.007-.003-.006-.003-.007-.003-.006-.003-.007-.003-.006-.003-.007-.003-.007-.003-.006-.003-.007a1.88 1.88 0 00-.003-.006l-.003-.007-.003-.006-.003-.007-.003-.006-.003-.007-.003-.006-.003-.007-.003-.006-.003-.007L4.1 8.68l-.003-.006a1.844 1.844 0 00-.003-.007l-.003-.006c0-.003-.002-.005-.003-.007l-.002-.006-.003-.007-.003-.006-.003-.007-.003-.006-.003-.006-.003-.007a1.25 1.25 0 00-.003-.006l-.003-.007-.003-.006-.003-.007a1.245 1.245 0 01-.003-.006L4.05 8.57a1.809 1.809 0 01-.005-.013l-.003-.006-.003-.007-.003-.006-.003-.007-.003-.006-.003-.006-.003-.007-.003-.006-.003-.006-.003-.007-.002-.006-.003-.006-.003-.007-.003-.006A1.77 1.77 0 014 8.462l-.003-.007-.003-.006-.003-.006-.003-.007a3.862 3.862 0 00-.002-.006l-.003-.006-.003-.007-.003-.006a3.221 3.221 0 00-.003-.006l-.003-.006c0-.003-.002-.005-.003-.007l-.003-.006-.002-.006-.003-.007-.003-.006-.003-.006a3.2 3.2 0 01-.003-.006l-.003-.007-.003-.006a1.192 1.192 0 00-.002-.006L3.94 8.33a1.736 1.736 0 01-.003-.007l-.003-.006a1.188 1.188 0 01-.003-.006l-.003-.006-.003-.007a3.79 3.79 0 00-.005-.012l-.003-.006-.003-.007-.003-.006-.003-.006a1.713 1.713 0 01-.005-.013L3.9 8.242a1.713 1.713 0 01-.006-.012l-.003-.006-.003-.007-.002-.006-.003-.006-.003-.006a1.702 1.702 0 00-.006-.013l-.003-.006-.002-.006-.003-.006-.003-.006-.003-.007-.003-.006-.002-.006a1.694 1.694 0 01-.003-.006L3.85 8.13l-.003-.006c0-.003-.002-.005-.003-.007l-.003-.006-.002-.006-.003-.006-.003-.006-.003-.006c0-.003-.002-.005-.003-.007l-.002-.006-.003-.006a1.68 1.68 0 00-.003-.006l-.003-.006-.003-.006c0-.003-.002-.005-.003-.007l-.002-.006-.003-.006-.003-.006-.003-.006-.003-.006-.002-.007L3.791 8l-.003-.006-.003-.006-.003-.006-.002-.006-.003-.006-.003-.007-.003-.006-.003-.006-.002-.006-.003-.006-.003-.006-.003-.006a1.668 1.668 0 00-.005-.013l-.003-.006-.003-.006-.003-.006a1.142 1.142 0 00-.011-.025l-.003-.006-.003-.006-.002-.006-.003-.006-.003-.006-.003-.006-.003-.006-.002-.007-.003-.006-.003-.006-.003-.006a1.66 1.66 0 00-.003-.006l-.002-.006a1.66 1.66 0 01-.003-.006L3.69 7.78l-.003-.007a1.142 1.142 0 01-.008-.018l-.003-.006-.003-.006-.003-.006-.002-.006-.003-.007-.003-.006-.003-.006-.003-.006-.002-.006-.003-.006-.003-.006-.003-.006-.003-.007-.002-.006-.003-.006-.003-.006-.003-.006-.003-.006-.002-.006-.003-.006-.003-.007-.003-.006-.003-.006-.002-.006-.003-.006-.003-.006-.003-.006-.003-.007-.002-.006-.003-.006-.003-.006-.003-.006-.003-.006-.002-.006-.003-.007-.003-.006-.003-.006-.003-.006-.002-.006-.003-.006-.003-.006-.003-.007-.003-.006-.003-.006-.002-.006-.003-.006-.003-.006c0-.003-.002-.005-.003-.007l-.003-.006a3.69 3.69 0 00-.005-.012l-.003-.006-.003-.006c0-.003-.002-.005-.003-.007l-.003-.006-.002-.006-.003-.006-.003-.006-.003-.007-.003-.006a3.72 3.72 0 00-.002-.006l-.003-.006-.003-.006-.003-.006c0-.003-.002-.005-.003-.007l-.003-.006-.002-.006-.003-.006-.003-.007-.003-.006-.003-.006-.003-.006-.002-.006L3.47 7.3a1.713 1.713 0 01-.003-.006l-.003-.006-.003-.006-.003-.006c0-.003-.002-.005-.003-.007l-.002-.006-.003-.006-.003-.006-.003-.007-.003-.006a3.79 3.79 0 01-.005-.012l-.003-.007a1.736 1.736 0 01-.003-.006l-.003-.006-.003-.006c0-.003-.002-.005-.003-.007a1.74 1.74 0 01-.003-.006l-.002-.006-.003-.007-.003-.006-.003-.006-.003-.006-.003-.007-.003-.006a1.756 1.756 0 00-.003-.006l-.002-.007-.003-.006-.003-.006-.003-.006-.003-.007-.003-.006-.003-.006c0-.003-.002-.005-.003-.007l-.003-.006a1.774 1.774 0 01-.002-.006l-.003-.007-.003-.006-.003-.006-.003-.007a3.287 3.287 0 01-.006-.012c0-.003-.002-.005-.003-.007l-.003-.006-.003-.007-.002-.006-.003-.006-.003-.007-.003-.006-.003-.006-.003-.007L5.387 5.8zm.42 3.6c-.497-.996-.89-2.144-1.278-3.297l2.156-.946c.395 1.176.74 2.166 1.15 2.992L5.808 9.4zM5.11 6.177l.02-.006a.471.471 0 00-.035.016l-.869-2.225c.127-.063.3-.14.5-.188l.384 2.403zm-.204.157c-.122.101-.258.204-.317.25-.089.07-.077.067-.043.029a1.05 1.05 0 00.242-.616.933.933 0 00-.16-.62L2.827 6.993a1.54 1.54 0 01-.319-1.044c.033-.485.278-.819.422-.982.14-.159.299-.283.382-.348.113-.089.174-.134.26-.205l1.336 1.92zm.167-.384a18.497 18.497 0 011.572 3.36l-2.146.974a16.116 16.116 0 00-1.365-2.917l1.94-1.417zm.744 3.055h.001v-.001h.002v-.001h.001L5.824 9h.003v-.001h.002v-.001h.002v-.001h.001v-.001h.002v-.001h.002v-.001h.001l.988 2.161h-.001v.001h-.001l-.001.001H6.82v.001h-.002v.001h-.002v.001h-.001l-.001.001h-.001v.001h-.002v.001h-.002v.001h-.001l-.001.001h-.001l-.988-2.161zM2.55 5.164c-.085-.29-.28-.713-.559-1.263-.255-.503-.582-1.115-.825-1.648l2.063-1.18c.217.475.492.986.783 1.56.268.529.566 1.14.723 1.68l-2.186.85zm.68-4.09l.002.006.003.006.003.006c0 .003.002.005.003.007l.003.006.003.007a40392314616.037 40392314616.037 0 00.008.019l.003.006.003.006.003.007.003.006.003.006.003.007.003.006.002.006.003.007.003.006.003.006.003.007.003.006.003.006.003.007.002.006.003.006.003.006.003.007.003.006.003.006.003.007.003.006.002.006.003.006.003.007a1.736 1.736 0 00.006.012l.003.006.003.007.002.006.003.006.003.006.003.007.003.006.003.006.003.006.002.007.003.006.003.006.003.006.003.007.003.006.002.006.003.006.003.006.003.007.003.006.003.006.002.006.003.006.003.007.003.006.003.006.003.006.002.006.003.007.003.006a3.72 3.72 0 01.014.03l.003.007.003.006.003.006.002.006.003.006.003.007.003.006.003.006.003.006a1.153 1.153 0 01.005.012l.003.007a1.68 1.68 0 00.006.012l.002.006.003.006.003.006.003.007.003.006.002.006.003.006.003.006.003.006.003.006.002.007.003.006.003.006.003.006.003.006.002.006.003.006.003.006.003.007.003.006.002.006.003.006.003.006a1.142 1.142 0 00.006.012l.002.007.003.006.003.006.003.006.003.006a3.064 3.064 0 00.005.012l.003.006.003.007.003.006.002.006.003.006.003.006.003.006.003.006a3.064 3.064 0 00.01.025l.004.006.002.006.003.006.003.006.003.006.003.007.002.006.003.006.003.006.003.006.003.006.002.006.003.006.003.007.003.006.003.006.002.006.003.006.003.006.003.006.003.006.002.007.003.006.003.006.003.006.003.006.002.006.003.006.003.007.003.006.003.006.002.006.003.006.003.006.003.006.003.007.002.006.003.006.003.006.003.006.003.006.003.006.002.007.003.006.003.006.003.006.003.006.002.006.003.007.003.006.003.006.003.006.002.006.003.006.003.007.003.006.003.006.003.006.002.006.003.007.003.006.003.006.003.006.003.006.002.006.003.007.003.006.003.006.003.006.003.007.002.006.003.006.003.006.003.006.003.007.003.006.002.006.003.006.003.006.003.007.003.006.003.006.002.006.003.007a3.79 3.79 0 01.006.012l.003.006c0 .003.002.005.003.007l.003.006.002.006.003.006.003.007.003.006.003.006.003.007.003.006.003.006.002.006.003.007.003.006.003.006.003.007.003.006.003.006.003.006.002.007.003.006.003.006.003.007a1.774 1.774 0 01.006.012c0 .003.002.005.003.007l.003.006.003.006.002.007.003.006.003.006.003.007.003.006.003.007.003.006.003.006.003.007.003.006a1.238 1.238 0 00.011.026l.003.006.003.006.003.007.003.006.003.007.003.006.003.006c0 .003.002.005.003.007l.003.006.003.007.003.006.002.007L4 2.76l.003.007.003.006.003.007.003.006.003.006.003.007.003.006.003.007.003.006.003.007.003.006.003.007a3.469 3.469 0 00.006.013l.003.007.003.006.003.007.003.006.003.007.003.006.003.007.003.006c0 .003.002.005.003.007l.003.007.003.006.003.007.003.006.003.007.003.006c0 .003.002.005.003.007l.003.007.003.006.003.007.003.007.003.006.003.007a4.293 4.293 0 01.006.013l.003.007.003.006.003.007.003.007.003.007.003.006.003.007.004.007.003.006c0 .003.002.005.003.007l.003.007a2 2 0 00.003.006c0 .003.002.005.003.007l.003.007.003.007.003.006.003.007.003.007.003.007.003.006a3.757 3.757 0 00.007.014l.003.007.003.007.003.006.003.007.003.007.003.007.003.007.004.007.003.006c0 .003.002.005.003.007 0 .003.002.005.003.007l.003.007.003.007a2.096 2.096 0 01.007.014l.003.007.003.007a2.12 2.12 0 00.006.013l.003.007.004.007c0 .003.002.005.003.007 0 .003.002.005.003.007l.003.007.003.007.003.007.004.007.003.007.003.007.003.007.003.007.004.007.003.007.003.007.003.007.003.007.004.007c0 .003.002.005.003.007l.003.007.003.007.004.008.003.007.003.007.003.007.004.007.003.007.003.007.003.007.004.008.003.007.003.007a1.567 1.567 0 01.007.014c0 .003.002.005.003.007l.003.008.004.007.003.007.003.007.003.008.004.007.003.007.003.007.004.008a2.34 2.34 0 00.01.021c0 .003.002.005.003.008l.003.007.004.007c0 .003.002.005.003.008l.003.007.004.007c0 .003.002.005.003.008l.004.007c0 .003.002.005.003.007l.003.008.004.007c0 .003.002.005.003.008l.003.007.004.007c0 .003.002.005.003.008l.004.007c0 .003.002.005.003.008l.003.007.004.008.003.007.004.008.003.007.003.008.004.007.003.008.004.007.003.008.004.007c0 .003.002.005.003.008l.004.007c0 .003.002.006.003.008l.004.008.003.007.003.008.004.007.003.008.004.008.003.007.004.008.003.008.004.007.003.008.004.008.003.008.004.007.004.008c0 .003.002.005.003.008l.004.007c0 .003.002.006.003.008l.004.008c0 .003.002.005.003.008l.004.008.003.007.004.008.004.008c0 .003.002.005.003.008l.004.008.003.008.004.007.003.008.004.008.004.008c0 .003.002.005.003.008l.004.008.004.008c0 .003.002.005.003.008l.004.008.003.008.004.008.004.008.003.008a70043767633.568 70043767633.568 0 01.008.016l.003.008.004.008.004.008c0 .003.002.005.003.008l.004.008.004.008.003.008.004.008.004.008.004.009.003.008.004.008.004.008.004.008c0 .003.002.006.003.008a6.516 6.516 0 01.008.017l.003.008.004.008.004.009.004.008.004.008c0 .003.002.006.003.008l.004.009.004.008.004.008.004.009.003.008.004.008.004.009.004.008.004.008a6.86 6.86 0 01.007.017l.004.009.004.008.004.009.004.008.004.008c0 .003.002.006.004.009 0 .003.002.006.003.008l.004.009-2.063 1.18-.004-.009a2.196 2.196 0 00-.004-.008l-.004-.009a3.188 3.188 0 01-.004-.008l-.003-.009-.004-.008-.004-.009-.004-.008-.004-.008a77001480450.273 77001480450.273 0 00-.008-.017l-.003-.009-.004-.008-.004-.008a69365034304.69 69365034304.69 0 01-.008-.017c0-.003-.002-.006-.003-.008l-.004-.009-.004-.008a6.67 6.67 0 00-.004-.008l-.004-.008a3.02 3.02 0 00-.003-.009l-.004-.008-.004-.008-.004-.008-.003-.009a6.516 6.516 0 00-.004-.008l-.004-.008-.004-.008a2.95 2.95 0 01-.003-.008l-.004-.009-.004-.008a2.014 2.014 0 00-.003-.008l-.004-.008-.004-.008-.004-.008c0-.003-.002-.006-.003-.008L2.6 5.392l-.004-.008c0-.003-.002-.006-.003-.008l-.004-.008a1.96 1.96 0 01-.007-.017l-.004-.008-.004-.008-.003-.008-.004-.007-.004-.008c0-.003-.002-.006-.003-.008a6.11 6.11 0 00-.004-.008l-.003-.008-.004-.008-.004-.008c0-.003-.002-.005-.003-.008l-.004-.008-.003-.008-.004-.008-.004-.008-.003-.007-.004-.008-.003-.008a5.931 5.931 0 00-.004-.008l-.003-.008a2.694 2.694 0 01-.004-.007L2.5 5.178c0-.003-.002-.005-.003-.008l-.004-.008-.003-.007-.004-.008-.003-.008-.004-.008-.003-.007a5.755 5.755 0 00-.004-.008l-.003-.008-.004-.007-.003-.008-.004-.008-.003-.007-.004-.008-.003-.008-.004-.007-.003-.008-.004-.008-.003-.007-.004-.008-.003-.007-.004-.008a5.526 5.526 0 01-.003-.007l-.004-.008a2.517 2.517 0 00-.003-.007l-.003-.008-.004-.008a4.598 4.598 0 01-.007-.015l-.003-.007-.004-.008-.003-.007-.003-.007-.004-.008-.003-.007-.004-.008a5.338 5.338 0 00-.006-.015l-.004-.007-.003-.007-.003-.008-.004-.007c0-.003-.002-.005-.003-.008l-.004-.007-.003-.007-.003-.008-.004-.007-.003-.007-.003-.008-.004-.007-.003-.007-.003-.007-.004-.008-.003-.007-.003-.007-.004-.007a2.328 2.328 0 00-.003-.008l-.003-.007-.003-.007-.004-.007c0-.003-.002-.005-.003-.008l-.003-.007-.004-.007-.003-.007-.003-.007-.003-.008-.004-.007-.003-.007-.003-.007-.003-.007-.004-.007c0-.003-.002-.005-.003-.007l-.003-.007-.003-.008-.004-.007-.003-.007-.003-.007a2.219 2.219 0 01-.003-.007l-.004-.007-.003-.007-.003-.007a4.81 4.81 0 01-.003-.007l-.004-.007c0-.003-.002-.005-.003-.007a1.494 1.494 0 00-.003-.007l-.003-.007-.003-.007-.004-.007a2.163 2.163 0 01-.006-.014l-.003-.007a4.713 4.713 0 00-.003-.007l-.003-.007-.004-.007-.003-.007-.003-.007-.003-.007a2.125 2.125 0 01-.003-.007l-.003-.007-.004-.007-.003-.006c0-.003-.002-.005-.003-.007l-.003-.007-.003-.007-.003-.007-.003-.007-.004-.007a3.828 3.828 0 01-.003-.007l-.003-.006a4.523 4.523 0 00-.01-.02l-.002-.008-.003-.007-.004-.006c0-.003-.002-.005-.003-.007l-.003-.007a2.037 2.037 0 01-.006-.014l-.003-.006-.003-.007a2.017 2.017 0 01-.006-.014l-.003-.006-.003-.007-.004-.007-.003-.006c0-.003-.002-.005-.003-.007a1.37 1.37 0 00-.006-.014l-.003-.006c0-.003-.002-.005-.003-.007l-.003-.007-.003-.006-.003-.007a1.972 1.972 0 01-.003-.007l-.003-.006-.003-.007a4.293 4.293 0 01-.006-.013l-.003-.007-.003-.007-.003-.006-.003-.007-.003-.007-.003-.006-.003-.007-.003-.006-.003-.007-.003-.007a1.923 1.923 0 01-.003-.006l-.004-.007-.003-.006L2 4.083l-.003-.006-.002-.007-.004-.007-.002-.006-.003-.007-.003-.006-.003-.007a1.888 1.888 0 01-.003-.006l-.003-.007-.003-.006-.003-.007-.003-.006a4.096 4.096 0 01-.003-.007l-.003-.006-.003-.007-.003-.006a1.28 1.28 0 00-.006-.013l-.003-.007-.003-.006-.003-.007-.003-.006-.003-.007-.003-.006-.003-.006c0-.003-.002-.005-.003-.007l-.003-.006-.003-.007-.003-.006a1.829 1.829 0 00-.002-.007l-.003-.006-.003-.006a3.353 3.353 0 00-.003-.007L1.9 3.863l-.003-.007a3.334 3.334 0 01-.009-.019l-.003-.006a3.95 3.95 0 01-.003-.007l-.003-.006a3.934 3.934 0 00-.005-.013L1.872 3.8l-.003-.006-.003-.007-.003-.006a1.782 1.782 0 01-.003-.006c0-.003-.002-.005-.003-.007l-.003-.006-.003-.006a1.774 1.774 0 01-.008-.02L1.84 3.73a1.77 1.77 0 00-.003-.006l-.003-.006c0-.003-.002-.005-.003-.007a79116692488.867 79116692488.867 0 00-.006-.012l-.002-.007-.003-.006-.003-.006-.003-.007a1.747 1.747 0 00-.009-.018c0-.003-.002-.005-.003-.007L1.8 3.641l-.003-.006-.003-.007a1.192 1.192 0 00-.003-.006l-.003-.006-.003-.006a3.806 3.806 0 01-.003-.007l-.002-.006-.003-.006-.003-.006-.003-.007-.003-.006-.003-.006-.003-.006-.002-.007a3.156 3.156 0 01-.003-.006l-.003-.006-.003-.006-.003-.006-.003-.007-.002-.006a1.71 1.71 0 00-.003-.006l-.003-.006a1.71 1.71 0 01-.003-.007l-.003-.006-.003-.006-.002-.006-.003-.006-.003-.007-.003-.006-.003-.006-.003-.006-.002-.006-.003-.006-.003-.007-.003-.006-.003-.006-.003-.006-.002-.006-.003-.007-.003-.006-.003-.006a3.69 3.69 0 00-.003-.006l-.002-.006-.003-.006-.003-.007-.003-.006a1.68 1.68 0 01-.003-.006l-.003-.006-.002-.006-.003-.006-.003-.007a1.68 1.68 0 00-.003-.006l-.003-.006-.002-.006-.003-.006-.003-.006-.003-.007-.003-.006-.002-.006-.003-.006-.003-.006-.003-.006-.003-.006-.003-.007-.002-.006-.003-.006-.003-.006-.003-.006-.003-.006-.002-.006-.003-.007-.003-.006-.003-.006-.003-.006-.002-.006-.003-.006-.003-.006-.003-.006-.003-.007-.002-.006a1.66 1.66 0 00-.006-.012l-.003-.006-.003-.006-.002-.006-.003-.006-.003-.007-.003-.006-.003-.006-.002-.006-.003-.006-.003-.006-.003-.006-.002-.006-.003-.007-.003-.006-.003-.006-.003-.006-.002-.006-.003-.006-.003-.006-.003-.006-.003-.007L1.507 3l-.003-.006-.003-.006-.003-.006-.003-.006-.002-.006-.003-.006-.003-.007-.003-.006-.003-.006-.002-.006-.003-.006-.003-.006-.003-.006-.003-.006-.002-.007-.003-.006-.003-.006-.003-.006-.003-.006-.002-.006-.003-.006-.003-.007-.003-.006-.003-.006-.002-.006-.003-.006-.003-.006-.003-.006-.003-.007-.002-.006-.003-.006-.003-.006-.003-.006-.003-.006-.003-.006-.002-.007-.003-.006-.003-.006-.003-.006-.003-.006-.002-.006a1.68 1.68 0 00-.003-.007l-.003-.006-.003-.006a3.69 3.69 0 01-.003-.006l-.002-.006-.003-.006a3.69 3.69 0 00-.003-.007l-.003-.006-.003-.006-.003-.006-.002-.006-.003-.006-.003-.007-.003-.006a3.72 3.72 0 01-.006-.012l-.002-.006-.003-.007-.003-.006-.003-.006-.003-.006-.003-.006-.002-.007-.003-.006-.003-.006-.003-.006-.003-.007-.003-.006-.002-.006-.003-.006-.003-.006a3.76 3.76 0 01-.003-.007l-.003-.006a3.76 3.76 0 00-.003-.006l-.002-.006-.003-.007-.003-.006-.003-.006-.003-.006-.003-.007-.003-.006-.002-.006-.003-.006-.003-.007a1.736 1.736 0 01-.003-.006l-.003-.006-.003-.006-.003-.007-.002-.006a1.747 1.747 0 01-.003-.006l-.003-.007a1.747 1.747 0 01-.003-.006l-.003-.006-.003-.006-.003-.007-.003-.006-.002-.006-.003-.007-.003-.006-.003-.006-.003-.007-.003-.006-.003-.006a1.774 1.774 0 00-.003-.007l-.003-.006-.002-.006-.003-.007-.003-.006-.003-.006-.003-.007a1.226 1.226 0 00-.003-.006l-.003-.006a3.934 3.934 0 00-.006-.013l-.003-.006a3.95 3.95 0 01-.003-.007l-.002-.006-.003-.007-.003-.006 2.063-1.18zm.461 3.685C3.174 3.74 2.77 2.56 2.371 1.375L4.527.43c.407 1.21.759 2.222 1.185 3.06l-2.02 1.269zm-.739-3.31c.017-.003.024-.006.02-.005a.472.472 0 00-.034.016l-.87-2.225c.128-.064.3-.14.501-.188l.383 2.403zm-.258.192c-.168.126-.333.224-.411.273a3.332 3.332 0 00-.064.04l-.003.003h-.001a.059.059 0 00.005-.003.767.767 0 00.083-.077A1.136 1.136 0 002.579.92a.833.833 0 00-.097-.274C2.463.614 2.456.611 2.481.64L.778 2.379c-.132-.15-.368-.443-.445-.862A1.534 1.534 0 01.398.728 1.59 1.59 0 01.74.171c.187-.2.416-.334.481-.375.115-.071.174-.107.238-.154l1.235 2zm.176-.492A18.451 18.451 0 014.501 4.62l-2.148.97A16.073 16.073 0 00.938 2.575L2.87 1.15zm.36 3.386a.563.563 0 00-.02.026L5 5.99a2.062 2.062 0 01-.072.095L3.23 4.535zm1.36 6.734c-.388-.047-.723-.122-1.008-.185a8.278 8.278 0 00-.81-.151l.376-2.448c.387.047.722.122 1.007.185.293.065.537.118.81.151L4.59 11.27zM3.147 8.485c.576.07 1.155.077 2.037.388l-.815 2.345c-.605-.214-.853-.194-1.598-.285l.376-2.448zm1.222 2.732l-.249-.087.814-2.345.25.088-.815 2.345zm-.363-.135c-.474-.235-.915-.392-1.383-.557-.452-.16-.962-.337-1.458-.604l1.107-2.215c.331.178.688.306 1.166.474.462.163 1.013.357 1.613.654l-1.045 2.248zm-1.88-3.44c.753.265 1.545.544 2.677 1.104l-1.045 2.248c-1.017-.503-1.713-.749-2.447-1.008l.815-2.345zm1.503 3.276c-.778-.535-1.639-.845-2.649-1.201l.815-2.345c.973.343 2.095.733 3.137 1.45L3.63 10.918zM1.796 7.372c1.055.372 2.198.938 3.484 1.54l-1.005 2.267C2.916 10.542 1.91 10.044.981 9.717l.815-2.345zm3.39 1.5v.001h.002l.001.001h.002l.001.001h.002l.001.001h.002v.001H5.2l.002.001h.001l.002.001a.212.212 0 01.002.001h.002l.001.001h.001l.002.001h.001l.001.001a.052.052 0 00.003.001h.001l.002.001.002.001h.002a.066.066 0 00.003.002h.002l.002.001h.001l.002.001h.002l.001.001h.002v.001h.002l.001.001h.002l.002.001h.001l.001.001h.001l.002.001h.002l.001.001h.001l.001.001a.052.052 0 01.004.001l.002.001h.002l.001.001h.003v.001h.002v.001h.002l.002.001h.002l.001.001h.001l.001.001h.002l.001.001h.002a.039.039 0 00.002.002h.004v.001h.002l.002.001h.002a.051.051 0 01.001.002h.004l.001.001h.002v.001h.003l.001.001h.002v.001h.002l.001.001h.002l.001.001h.003v.001h.001a.065.065 0 01.002.001h.001l.002.001h.001l.001.001a.03.03 0 00.002 0l.001.001h.002v.001a.046.046 0 01.002 0h.001l.001.001a.016.016 0 00.001 0l.002.001h.001l.002.001h.001l.001.001h.002l.001.001h.002l.001.001h.002v.001h.003v.001a.018.018 0 00.002 0l.001.001h.002a.013.013 0 01.002.001h.001v.001a.005.005 0 00.001 0h.002v.001h.003v.001h.002l-.408 1.173-.407 1.172h-.003v-.001h-.003v-.001h-.002l-.001-.001h-.002v-.001h-.003v-.001h-.004v-.001h-.003v-.001h-.002l-.001-.001H4.53l-.001-.001h-.002l-.001-.001h-.003v-.001h-.001l-.002-.001h-.001v-.001h-.002l-.001-.001h-.002l-.001-.001a.05.05 0 00-.002 0l-.001-.001h-.002v-.001h-.003v-.001h-.003l-.001-.001h-.002v-.001h-.002l-.002-.001h-.001l-.001-.001h-.001l-.002-.001h-.002l-.001-.001h-.002l-.001-.001h-.002v-.001H4.48l-.001-.001h-.002l-.001-.001h-.002a.116.116 0 00-.002-.002h-.004l-.001-.001h-.001l-.001-.001h-.002l-.001-.001H4.46l-.001-.001h-.002l-.002-.001-.002-.001H4.45v-.001h-.003l-.001-.001h-.001l-.001-.001h-.002l-.002-.001-.001-.001h-.002l-.002-.001-.002-.001h-.001l-.001-.001h-.002l-.002-.001h-.001l-.001-.001h-.002v-.001H4.42l-.002-.001-.002-.001h-.001l-.002-.001-.002-.001h-.003l-.001-.001h-.001l-.002-.001-.002-.001H4.4v-.001h-.002l-.002-.001-.002-.001h-.002l-.001-.001H4.39l-.002-.001h-.001l-.002-.001-.002-.001H4.38l-.002-.001h-.001l-.001-.002h-.003l-.002-.001H4.37l.815-2.345h.003l.001.001h.002l.001.001h.002l.001.001h.002v.001H5.2l.002.001h.001l.002.001a.212.212 0 01.002.001h.002l.001.001h.001l.002.001h.001l.001.001a.052.052 0 00.003.001h.001l.002.001.002.001h.002a.066.066 0 00.003.002h.002l.002.001h.001l.002.001h.002l.001.001h.002v.001h.002l.001.001h.002l.002.001h.001l.001.001h.001l.002.001h.002l.001.001h.001l.001.001a.052.052 0 01.004.001l.002.001h.002l.001.001h.003v.001h.002v.001h.002l.002.001h.002l.001.001h.001l.001.001h.002l.001.001h.002a.039.039 0 00.002.002h.004v.001h.002l.002.001h.002a.051.051 0 01.001.002h.004l.001.001h.002v.001h.003l.001.001h.002v.001h.002l.001.001h.002l.001.001h.003v.001h.001a.065.065 0 01.002.001h.001l.002.001h.001l.001.001a.03.03 0 00.002 0l.001.001h.002v.001a.046.046 0 01.002 0h.001l.001.001a.016.016 0 00.001 0l.002.001h.001l.002.001h.001l.001.001h.002l.001.001h.002l.001.001h.002v.001h.003v.001a.018.018 0 00.002 0l.001.001h.002a.013.013 0 01.002.001h.001v.001a.005.005 0 00.001 0h.002v.001h.003v.001h.002l-.408 1.173-.407 1.172h-.003v-.001h-.003v-.001h-.002l-.001-.001h-.002v-.001h-.003v-.001h-.004v-.001h-.003v-.001h-.002l-.001-.001H4.53l-.001-.001h-.002l-.001-.001h-.003v-.001h-.001l-.002-.001h-.001v-.001h-.002l-.001-.001h-.002l-.001-.001a.05.05 0 00-.002 0l-.001-.001h-.002v-.001h-.003v-.001h-.003l-.001-.001h-.002v-.001h-.002l-.002-.001h-.001l-.001-.001h-.001l-.002-.001h-.002l-.001-.001h-.002l-.001-.001h-.002v-.001H4.48l-.001-.001h-.002l-.001-.001h-.002a.116.116 0 00-.002-.002h-.004l-.001-.001h-.001l-.001-.001h-.002l-.001-.001H4.46l-.001-.001h-.002l-.002-.001-.002-.001H4.45v-.001h-.003l-.001-.001h-.001l-.001-.001h-.002l-.002-.001-.001-.001h-.002l-.002-.001-.002-.001h-.001l-.001-.001h-.002l-.002-.001h-.001l-.001-.001h-.002v-.001H4.42l-.002-.001-.002-.001h-.001l-.002-.001-.002-.001h-.003l-.001-.001h-.001l-.002-.001-.002-.001H4.4v-.001h-.002l-.002-.001-.002-.001h-.002l-.001-.001H4.39l-.002-.001h-.001l-.002-.001-.002-.001H4.38l-.002-.001h-.001l-.001-.002h-.003l-.002-.001H4.37l.815-2.345zm-1.03 2.506l-.42.003.117-2.463c.129 0 .259 0 .39-.003l-.087 2.463zM3.74 9.042c.08-.01.16-.018.241-.027l.11 2.45c-.08.01-.162.018-.243.027l-.108-2.45zm.252 2.43c-.676.011-1.296.17-2.052.368l-.43-2.39c.73-.192 1.595-.425 2.57-.44l-.088 2.462zM1.67 9.42c.268-.03.52-.066.77-.105l.209 2.437c-.264.041-.553.084-.87.118L1.67 9.42zm.756-.004h.004l.003-.001h.003a.4.4 0 00.004-.001l.003-.001h.003l.004-.001a.4.4 0 00.003 0l.004-.001h.003l.003-.002h.007l.004-.001h.003l.003-.002h.007l.003-.001h.004a.34.34 0 00.003-.001l.004-.001h.003l.003-.001h.004l.003-.001.004-.001a.4.4 0 01.006-.001h.004l.003-.001a.4.4 0 01.003-.001h.004l.003-.001h.004l.003-.001h.003l.004-.002a.34.34 0 00.003 0h.004l.003-.001h.003a.34.34 0 00.004-.001l.003-.001h.003l.004-.001a.34.34 0 00.003 0l.004-.001.003-.001h.003l.004-.001H2.6l.004-.001.003-.001a2.247 2.247 0 00.007-.001h.003l.004-.001.003-.001h.003a.34.34 0 00.004-.001h.003l.003-.001h.004a.34.34 0 00.003-.002h.007l.003-.001a.34.34 0 00.004 0l.003-.001.004-.001h.003l.003-.001a.4.4 0 00.004 0l.003-.001a.4.4 0 01.01-.002h.004a.4.4 0 01.003-.001l.003-.001a.4.4 0 00.004 0l.003-.001a.4.4 0 01.004 0l.003-.001.003-.001a.34.34 0 00.004 0l.003-.001a.4.4 0 01.007-.001h.003l.004-.002h.006l.004-.001h.003a.4.4 0 01.01-.003h.007a.34.34 0 01.003-.001l.004-.001h.003l.004-.001a.34.34 0 01.003 0l.003-.001.004-.001h.003a.34.34 0 01.004-.001H2.8l.003-.001a.4.4 0 00.004 0l.003-.002h.003a2.247 2.247 0 01.007-.001h.004l.003-.002h.007l.003-.001h.004a.34.34 0 01.003-.001l.003-.001h.004l.003-.001a.34.34 0 01.003 0l.004-.001.003-.001h.004a.34.34 0 01.003-.001h.003a2.247 2.247 0 01.007-.002h.004a.4.4 0 01.003-.001h.003l.004-.001h.003a.4.4 0 01.003-.002h.004a.4.4 0 00.003 0l.004-.001a.4.4 0 01.006-.001l.004-.001h.003l.004-.001a.34.34 0 01.003 0l.003-.001.004-.001h.003l.003-.001h.004l.003-.001.004-.001a.34.34 0 01.003 0l.003-.001h.004l.003-.001.004-.001h.003l.003-.001a.4.4 0 00.004 0l.003-.001h.003l.004-.002H3l.003-.001h.003l.004-.001.003-.001h.004l.003-.001h.003l.004-.001.003-.001h.003l.004-.001h.003a.4.4 0 00.004-.001l.003-.001h.003l.004-.001a.4.4 0 00.003 0l.004-.001a.4.4 0 01.003-.001h.003a.4.4 0 00.004-.001h.003l.003-.001h.004l.003-.002h.007l.003-.001H3.1l.003-.001.004-.001h.003l.003-.001h.004l.003-.001.003-.001h.004l.003-.001h.004l.003-.001a.4.4 0 01.003-.001h.004l.003-.001h.004a.4.4 0 01.003-.001l.003-.001h.004l.003-.001h.003l.004-.001h.003l.004-.002h.006l.004-.001a.34.34 0 00.003 0l.004-.001.003-.001H3.2a.34.34 0 00.004-.001h.003l.003-.001.004-.001h.003a.4.4 0 00.004-.001h.003a.4.4 0 01.01-.003h.007l.003-.001h.004l.003-.002h.004a2.247 2.247 0 00.01-.002h.003l.003-.001h.004a.34.34 0 00.003-.001h.004l.003-.001.003-.001a.34.34 0 00.004 0l.003-.001H3.3a.4.4 0 01.006-.002h.004l.003-.001h.003l.004-.001.003-.001h.004a.4.4 0 01.003-.001h.003a.4.4 0 00.004-.001h.003l.004-.002h.006a.34.34 0 00.004-.001h.003l.003-.001.004-.001a.34.34 0 00.003 0l.004-.001h.003l.003-.001a.34.34 0 00.004-.001h.003l.004-.001h.003a2.247 2.247 0 00.007-.002H3.4l.003-.001h.004l.003-.001.004-.001a.34.34 0 01.003 0l.003-.001h.004a.4.4 0 00.003-.001h.004a.4.4 0 01.01-.003h.006l.004-.001.003-.001h.004l.003-.001a.34.34 0 01.003 0l.004-.001.003-.001h.004a.34.34 0 01.003-.001h.003l.004-.001.003-.001a.34.34 0 01.003 0l.004-.001h.003l.004-.001.003-.001a.4.4 0 01.003 0l.004-.001h.003l.004-.001h.003l.003-.002h.007a.4.4 0 01.003-.001h.004a.4.4 0 00.003-.001l.004-.001h.003a.34.34 0 01.003-.001h.004l.003-.001.004-.001a.34.34 0 01.003 0l.003-.001h.004l.003-.001a.34.34 0 01.003-.001h.004l.003-.001h.004l.003-.001a.4.4 0 01.01-.002h.004l.003-.001h.003l.004-.002h.006a.34.34 0 01.004-.001h.003l.004-.001.003-.001a.34.34 0 01.003 0l.004-.001h.003l.004-.001a.34.34 0 01.006-.002h.007l.003-.001.004-.001h.003l.004-.001h.003l.003-.001h.004a.4.4 0 00.003-.002h.004a.4.4 0 01.003 0l.003-.001a.4.4 0 00.004 0l.003-.002h.007l.003-.001h.004l.003-.001.003-.001h.004l.003-.001h.004l.003-.001a.4.4 0 01.003-.001h.004l.003-.001h.003a.4.4 0 01.004-.001l.003-.001a.4.4 0 00.004 0l.003-.001h.003l.004-.001h.003l.004-.002a.4.4 0 01.003 0h.003l.004-.001h.003l.003-.001.004-.001h.003l.004-.001h.003l.003-.001.004-.001h.003l.004-.001h.003l.003-.001.004-.001h.003l.003-.001h.004l.003-.001a.4.4 0 00.004-.001h.003l.003-.001h.004a.4.4 0 00.003-.001h.004l.003-.002h.007a.34.34 0 00.003-.001h.004l.003-.001.003-.001a.34.34 0 00.004 0l.003-.001h.003l.004-.001a.34.34 0 00.003-.001h.004l.003-.001h.003a.34.34 0 00.007-.002h.004l.003-.001h.003l.004-.001.003-.001a.4.4 0 01.01-.002h.004a.4.4 0 01.006-.002h.004a.34.34 0 00.003 0l.004-.001h.003l.003-.001a.34.34 0 00.004-.001h.003l.003-.001h.004a.34.34 0 00.003-.001l.004-.001h.003l.003-.001h.004l.003-.001.004-.001h.003l.003-.001h.004l.003-.001h.003a2.247 2.247 0 00.01-.003h.007l.004-.002a.34.34 0 00.003 0h.004l.003-.001h.003a.34.34 0 00.004-.001l.003-.001h.003l.004-.001a.34.34 0 00.007-.001l.003-.001h.003l.004-.001a.4.4 0 00.003 0l.004-.001a.34.34 0 01.01-.002h.003a.34.34 0 01.007-.002h.003l.004-.001h.003l.003-.001h.004l.003-.002h.004a.4.4 0 01.003 0l.003-.001.25 2.43-.004.001H4.4l-.003.001h-.003l-.004.001h-.003l-.003.002h-.007l-.004.001H4.37l-.003.002H4.36l-.004.001h-.003l-.003.001-.004.001h-.003l-.003.001h-.004l-.003.001-.004.001h-.003l-.003.001h-.004l-.003.001a.04.04 0 00-.004 0l-.003.002h-.007l-.003.001h-.003l-.004.002h-.007l-.003.001h-.003l-.004.002h-.007l-.003.001h-.003l-.004.001-.003.001h-.003l-.004.001h-.003l-.004.001-.003.001h-.003l-.004.001h-.003l-.004.001h-.003l-.003.002h-.007l-.003.001h-.004l-.003.002h-.007l-.003.001h-.004l-.003.002h-.007l-.003.001H4.17l-.003.001-.003.001a2.247 2.247 0 00-.007.001h-.004l-.003.001-.003.001h-.004l-.003.001h-.004l-.003.001H4.13l-.004.002h-.003a2.247 2.247 0 00-.01.002h-.004l-.003.001h-.003a2.247 2.247 0 00-.007.002h-.004l-.003.001h-.003l-.004.001H4.08l-.004.001a2.247 2.247 0 00-.01.002h-.003l-.003.001-.004.001h-.003l-.004.001h-.003l-.003.001h-.004l-.003.002h-.009l-.003.001H4.02l-.003.002H4.01l-.003.001h-.004L4 11.614l-.003.001h-.004l-.003.001h-.004l-.003.001a2.247 2.247 0 01-.017.003h-.003a2.247 2.247 0 01-.01.003h-.006l-.004.002h-.006l-.004.001H3.93l-.003.002H3.92l-.004.001a2.247 2.247 0 01-.01.002h-.003l-.004.001h-.003l-.003.001-.004.001h-.003l-.003.001h-.004l-.003.001h-.004l-.003.002h-.007l-.003.001h-.004l-.003.002h-.007l-.003.001h-.003l-.004.002h-.007l-.003.001h-.003l-.004.001-.003.001H3.81l-.003.001h-.003l-.004.001-.003.001h-.003l-.004.001a.04.04 0 01-.003 0l-.004.001H3.78l-.003.002H3.77l-.004.001h-.003l-.003.002h-.007l-.003.001h-.004l-.003.001-.004.001h-.003l-.003.001H3.73l-.003.001-.004.001H3.72l-.003.001h-.004l-.003.001-.003.001h-.004l-.003.001h-.004l-.003.001H3.69l-.004.002H3.68l-.003.001h-.003l-.004.002h-.006l-.004.001h-.003l-.004.001-.003.001h-.003l-.004.001H3.64l-.004.001-.003.001H3.63l-.004.001h-.003l-.003.001-.004.001h-.003l-.004.001h-.003l-.003.001h-.004a2.247 2.247 0 00-.007.002h-.003l-.003.001H3.58l-.003.002H3.57a.04.04 0 01-.003.001h-.004l-.003.001-.003.001h-.004l-.003.001h-.004l-.003.001-.003.001h-.004l-.003.001H3.53l-.004.001h-.003l-.004.002h-.006l-.004.001a2.247 2.247 0 00-.007.002h-.006l-.004.001H3.49l-.004.002H3.48l-.004.001h-.003l-.003.001a2.247 2.247 0 00-.01.002h-.004l-.003.001-.004.001h-.003l-.004.001H3.44l-.003.001h-.004l-.003.002h-.007l-.003.001h-.004l-.003.002H3.41a2.247 2.247 0 00-.01.002h-.004l-.003.001h-.004l-.003.001h-.003l-.004.001-.003.001H3.37l-.003.001h-.003l-.004.001-.003.001h-.004l-.003.001h-.003l-.004.001H3.34a2.247 2.247 0 00-.007.002H3.33l-.004.001h-.003l-.003.002h-.007l-.004.001h-.003l-.003.001a2.247 2.247 0 01-.007.002H3.29l-.003.001-.004.001H3.28l-.003.001h-.004l-.003.001-.004.001h-.003l-.003.001h-.004a2.247 2.247 0 01-.01.002l-.003.001h-.004l-.003.001h-.003l-.004.002h-.007l-.003.001h-.003l-.004.001-.003.001h-.003l-.004.001H3.2l-.004.001a2.247 2.247 0 01-.017.003l-.003.001h-.003l-.004.001h-.003l-.003.001h-.004l-.003.002h-.009l-.003.001H3.14l-.003.002H3.13l-.003.001a2.247 2.247 0 01-.007.001l-.003.001h-.004l-.003.001h-.004l-.003.001-.003.001h-.004l-.003.001H3.09l-.003.001h-.003l-.004.002h-.006l-.004.001h-.003l-.004.002h-.006l-.004.001H3.05l-.004.002H3.04l-.004.001h-.003l-.003.001-.004.001h-.003l-.004.001h-.003l-.003.001-.004.001h-.003l-.004.001H3l-.003.001h-.004l-.003.002h-.007l-.003.001h-.004l-.003.002h-.007l-.003.001h-.004l-.003.002h-.007l-.003.001h-.003l-.004.001-.003.001H2.93l-.003.001h-.003l-.004.001-.003.001h-.004l-.003.001h-.003l-.004.001H2.9l-.003.002H2.89l-.004.001h-.003l-.003.002h-.004a2.247 2.247 0 00-.01.002h-.003l-.004.001h-.003l-.004.001H2.85l-.003.001-.004.001H2.84l-.003.001h-.004l-.003.001a2.247 2.247 0 00-.007.002h-.007l-.003.001h-.004a2.247 2.247 0 00-.01.003h-.006l-.004.002h-.007l-.003.001h-.003l-.004.001-.003.001h-.004l-.003.001a2.247 2.247 0 00-.01.002h-.003l-.004.001h-.003l-.004.001-.003.001h-.003l-.004.001h-.003l-.004.001a2.247 2.247 0 00-.006.002h-.008l-.003.001H2.7a2.247 2.247 0 00-.007.002H2.69l-.003.001h-.004l-.003.001-.004.001h-.003l-.249-2.43zm1.364-.169h.001l.001-.001h.001v-.001h.002v-.001h.002v-.001h.002v-.001H3.8V9.24l.001-.001h.001l.001-.001h.001l.001-.001.002-.001.002-.001.001-.001h.001l.001-.001h.001v-.001h.002v-.001h.001l.001-.001h.001l.001-.001.002-.001.001-.001a.022.022 0 00.002 0v-.001h.002v-.001h.001l.001-.001.002-.001.001-.001h.001v-.001h.002l.001-.001h.003v-.001h.001v-.001h.002l.001-.001a.049.049 0 00.002-.001h.001v-.001h.001l.001-.001.002-.001h.001v-.001h.001l.001-.001h.002V9.21l.002-.001h.001v-.001h.002v-.001h.001l.001-.001h.001l.001-.001a.021.021 0 00.001-.001h.002v-.001h.001l.001-.001h.001V9.2h.004v-.001h.001v-.001h.002v-.001h.001l.001-.001h.002v-.001h.001l.001-.001h.001v-.001h.002v-.001h.001l.001-.001h.001l.001-.001a.013.013 0 01.001 0v-.001h.001l.001-.001h.001l.001-.001h.001l.001-.001h.001v-.001H3.9v-.001l.001-.001h.001l.001-.001h.001V9.18h.003l.001-.001h.001v-.001h.002v-.001h.002v-.001h.001l.001-.001h.001l.001-.001h.001a.015.015 0 000-.001h.002v-.001h.001l.001-.001h.001l.001-.001h.001v-.001h.002v-.001h.001l.001-.001h.001v-.001h.002v-.001h.002v-.001h.001l.001-.001h.001v-.001h.002V9.16h.003l.001-.001h.001v-.001h.002v-.001h.002v-.001h.001l.001-.001h.001v-.001h.002v-.001h.001l.494 1.08.493 1.082H4.94v.001h-.002v.001h-.002v.001h-.002v.001h-.001v.001h-.002v.001h-.002v.001h-.001l-.001.001h-.001v.001h-.002v.001h-.002v.001H4.92l-.001.001h-.001v.001h-.002v.001h-.002v.001h-.001l-.001.001h-.001v.001H4.91v.001h-.002v.001h-.001l-.001.001h-.001l-.001.001h-.001v.001h-.001l-.001.001H4.9l-.001.001h-.001v.001h-.002v.001h-.002v.001h-.001l-.001.001H4.89l-.001.001h-.001v.001h-.002v.001h-.001l-.001.001h-.001l-.001.001h-.001v.001H4.88l-.001.001h-.001l-.001.001h-.001l-.001.001h-.001v.001h-.002v.001h-.001l-.001.001-.001.001h-.001v.001h-.001l-.001.001h-.001l-.001.001h-.001v.001h-.002v.001H4.86a.035.035 0 00-.004.002l-.001.001-.001.001h-.001l-.001.001H4.85l-.001.001h-.001l-.001.001h-.001v.001h-.002v.001h-.001l-.001.001h-.001l-.001.001-.002.001-.002.001-.001.001h-.001l-.001.001-.002.001H4.83v.001h-.002v.001h-.001v.001h-.002l-.001.001-.002.001-.001.001H4.82v.001h-.002v.001h-.002v.001h-.002v.001h-.001l-.001.001-.002.001-.001.001h-.001l-.001.001-.002.001-.001.001h-.002l-.001.001-.002.001-.001.001h-.001l-.001.001h-.001l-.001.001-.002.002H4.79v.001l-.001.001h-.001l-.001.001h-.001l-.001.001h-.001v.001h-.002v.001a.079.079 0 01-.004.002l-.002.001-.987-2.162zm1.65 3.158c.007-.003-.006.003-.052.042-.052.044-.1.09-.2.181a4.45 4.45 0 01-.819.62l-.987-2.163a2.05 2.05 0 00.375-.293c.116-.107.382-.37.696-.549l.987 2.162zm-2.058-1.32c-.007.004.006-.003.052-.041.052-.045.1-.09.2-.182.18-.165.449-.407.82-.619l.986 2.162a2.048 2.048 0 00-.375.294c-.116.107-.382.369-.696.548l-.987-2.162zm2.058 1.32c-.154.089-.346.237-.635.463-.247.194-.59.468-.93.662l-.988-2.162c.155-.088.347-.236.635-.463.247-.194.59-.467.931-.662l.987 2.162zm-2.553-1.037c.142-.081.289-.198.53-.397.212-.175.519-.432.871-.633l.987 2.162c-.142.081-.288.198-.53.397-.211.175-.518.431-.87.633l-.988-2.162zM5.274 12.5c-.679.388-1.203.695-1.65 1.127l-1.479-1.79c.707-.686 1.502-1.134 2.142-1.5l.987 2.163zm-3.196-.593c.58-.654 1.446-1.133 2.044-1.475l.988 2.162c-.721.412-1.174.688-1.418.963l-1.614-1.65zm3.032.687l-.004.002-.004.002-.004.003-.004.002-.004.002-.004.002a.072.072 0 00-.007.005.076.076 0 00-.004.002l-.004.002-.004.002-.004.002-.004.003-.004.002a.076.076 0 01-.003.002l-.004.002a.076.076 0 00-.004.003l-.004.002a.076.076 0 00-.004.002l-.004.002-.004.002-.003.003-.004.002-.004.002-.004.002-.004.002-.004.003-.004.002-.003.002-.004.002-.004.002-.004.003-.004.002-.004.002-.004.002-.004.003-.003.002-.004.002a.076.076 0 00-.004.002l-.004.002-.004.003-.004.002-.004.002a.076.076 0 01-.003.002l-.004.002a.076.076 0 01-.004.003l-.004.002a.076.076 0 00-.008.004.076.076 0 00-.004.002l-.004.003-.003.002-.004.002-.004.002-.004.003-.004.002-.004.002-.004.002a.076.076 0 00-.003.002l-.004.003-.004.002-.004.002-.004.002-.004.002-.004.003-.003.002-.004.002-.004.002a.072.072 0 00-.008.005l-.004.002-.004.002-.004.002-.003.002a.076.076 0 01-.004.003l-.004.002-.004.002-.004.002a.076.076 0 00-.008.005l-.003.002-.004.002-.004.002-.004.003-.004.002-.004.002a.072.072 0 01-.004.002l-.004.003s-.002 0-.003.002a.076.076 0 00-.004.002l-.004.002-.004.002-.004.002-.004.003-.004.002-.003.002a.076.076 0 01-.004.002l-.004.003a.076.076 0 00-.008.004l-.004.002-.004.002-.003.003-.004.002-.004.002-.004.002a.076.076 0 01-.004.002l-.004.003a.076.076 0 00-.008.004.076.076 0 00-.003.002l-.004.002-.004.003-.004.002-.004.002a.076.076 0 01-.008.004l-.003.003-.004.002-.004.002a.076.076 0 00-.004.002l-.004.003-.004.002-.004.002-.004.002-.003.002a.076.076 0 01-.004.003l-.004.002a.072.072 0 00-.008.004.072.072 0 00-.004.002l-.004.003-.003.002-.004.002-.004.002-.004.003-.004.002-.004.002a.076.076 0 00-.007.004.076.076 0 00-.004.003l-.004.002-.004.002-.004.002-.004.002-.004.003a.076.076 0 01-.004.002l-.003.002-.004.002a.076.076 0 00-.004.002l-.004.003-.004.002-.004.002-.004.002-.003.003-.004.002a.072.072 0 01-.004.002l-.004.002-.004.002a.076.076 0 00-.004.003l-.004.002-.004.002-.003.002-.004.002-.004.003-.004.002a.076.076 0 01-.004.002l-.004.002-.004.002a.072.072 0 00-.007.005.076.076 0 00-.004.002l-.004.002-.004.002-.004.003a.076.076 0 01-.007.004.076.076 0 01-.004.002l-.004.003a.076.076 0 00-.008.004.076.076 0 00-.004.002l-.004.002-.004.003-.003.002-.004.002a.076.076 0 01-.004.002l-.004.002-.004.003-.004.002a.076.076 0 00-.004.002l-.003.002-.004.002-.004.003-.004.002-.004.002-.004.002-.004.002-.004.003a.076.076 0 00-.007.004.076.076 0 00-.004.002l-.004.003-.004.002-.004.002-.004.002a.076.076 0 01-.003.002l-.004.003-.004.002a.076.076 0 00-.008.004.076.076 0 00-.004.002l-.004.003-.003.002-.004.002-.004.002a.072.072 0 01-.004.002l-.004.003-.004.002-.004.002-.004.002a.076.076 0 00-.003.003l-.004.002-.004.002-.004.002-.004.002a.076.076 0 01-.004.003l-.004.002-.003.002-.004.002a.076.076 0 00-.008.005.076.076 0 00-.004.002l-.004.002-.004.002-.004.003a.076.076 0 01-.007.004l-.004.002-.004.002a.076.076 0 00-.008.005.076.076 0 00-.004.002l-.003.002-.004.002-.004.003-.004.002-.004.002-.004.002-.004.002a.076.076 0 00-.003.003l-.004.002a.076.076 0 00-.004.002l-.004.002-.004.003-.004.002-.004.002-.004.002-.003.002-.004.003a.072.072 0 00-.008.004.072.072 0 00-.004.002l-.004.002-.004.003-.003.002-.004.002-.004.002-.004.002-.004.003a.076.076 0 00-.008.004.076.076 0 00-.004.002l-.003.003-.004.002-.004.002-.004.002-.004.002a.076.076 0 01-.004.002l-.004.003-.003.002a.076.076 0 00-.004.002l-.004.002-.004.003-.004.002-.004.002-.004.002-.003.002-.004.003-.004.002-.004.002a.072.072 0 00-.008.005l-.004.002-.004.002-.003.002-.004.002-.004.002-.004.003-.004.002-.004.002a.076.076 0 00-.007.005.076.076 0 00-.004.002l-.004.002-.004.002-.004.002a.076.076 0 01-.004.003l-.004.002a.076.076 0 01-.004.002l-.003.002a.076.076 0 00-.008.005.076.076 0 00-.004.002l-.004.002-.004.002-.004.002-.003.003-.004.002-.004.002-.004.002-.004.003a.076.076 0 00-.004.002l-.004.002-.003.002-.004.002-.004.003-.004.002-.004.002-.004.002-.004.002a.076.076 0 00-.007.005.076.076 0 00-.004.002l-.004.002-.004.002-.004.003-.004.002a.076.076 0 01-.004.002l-.003.002a.076.076 0 01-.004.002l-.004.003a.076.076 0 00-.008.004l-.004.002-.004.003-.004.002-.003.002-.004.002-.004.002-.004.003-.004.002-.004.002a.076.076 0 00-.004.002l-.003.003-.004.002-.004.002-.004.002-.004.002-.004.002-.004.003-.003.002a.076.076 0 00-.004.002l-.004.002a.076.076 0 00-.004.003l-.004.002-.004.002-.004.002-.004.002a.076.076 0 01-.003.003l-.004.002-.004.002a.076.076 0 00-.008.005.076.076 0 00-.004.002l-.004.002-.003.002-.004.002-.004.002-.004.003-.004.002-.004.002a.076.076 0 00-.004.002l-.004.003a.076.076 0 00-.003.002l-.004.002-.004.002-.004.002-.004.003-.004.002-.004.002-.003.002a.072.072 0 00-.008.005.072.072 0 00-.004.002l-.004.002-.004.002-.004.002-.003.003-.004.002a.076.076 0 01-.004.002l-.004.002-.004.003a.076.076 0 00-.008.004l-.004.002-.003.002-.004.003-.004.002-.004.002-.004.002-.004.002-.004.003a.076.076 0 00-.003.002l-.004.002-.004.002-.004.002-.004.003-.004.002-.004.002-.004.002-.003.003-.004.002a.072.072 0 00-.008.004.072.072 0 00-.004.002l-.004.003-.004.002-.003.002-.004.002-.004.002-.004.003-.004.002a.076.076 0 00-.008.004.076.076 0 00-.003.002l-.004.003-.004.002-.004.002a.076.076 0 01-.004.002l-.004.002a.076.076 0 01-.004.003l-.004.002a.076.076 0 00-.003.002l-.004.002-.004.003-.004.002-.004.002-.004.002-.004.002-.003.003-.004.002-.004.002-.004.002-.004.003a.076.076 0 00-.004.002l-.004.002-.004.002-.003.002-.004.002-.004.003-.004.002-.004.002a.076.076 0 00-.004.002l-.004.003a.076.076 0 00-.003.002l-.004.002-.004.002-.004.002-.004.003a.076.076 0 01-.004.002l-.004.002a.076.076 0 01-.003.002l-.004.003a.076.076 0 00-.008.004l-.004.002-.004.002-.004.002-.004.003-.003.002-.004.002-.004.002-.004.003-.004.002a.076.076 0 00-.004.002l-.004.002-.003.002-.004.003-.004.002-.004.002-.004.002-.004.002-.004.003-.004.002a.072.072 0 00-.007.004l-.004.002-.004.003-.004.002-.004.002a.076.076 0 01-.004.002l-.003.003-.004.002-.004.002a.076.076 0 00-.004.002l-.004.002-.004.003-.004.002-.003.002-.004.002-.004.002-.988-2.162.004-.002.004-.002a.072.072 0 01.004-.002l.004-.002.004-.003a.076.076 0 00.004-.002l.004-.002a.076.076 0 00.003-.002l.004-.002.004-.003.004-.002.004-.002a.076.076 0 01.004-.002l.004-.002.003-.003.004-.002a.076.076 0 00.008-.004l.004-.003.004-.002.004-.002.003-.002a.076.076 0 01.008-.005l.004-.002a.076.076 0 00.008-.004.076.076 0 00.004-.002l.004-.003.003-.002.004-.002.004-.002a.076.076 0 01.004-.002l.004-.003.004-.002.004-.002a.076.076 0 00.003-.002l.004-.003.004-.002.004-.002.004-.002.004-.002.004-.003.004-.002.003-.002.004-.002a.072.072 0 00.008-.005l.004-.002.004-.002.004-.002.003-.003a.076.076 0 01.004-.002l.004-.002a.076.076 0 01.004-.002l.004-.002a.076.076 0 00.008-.005l.003-.002.004-.002.004-.002.004-.003a.076.076 0 01.004-.002l.004-.002.004-.002.004-.002.003-.003a.076.076 0 00.004-.002l.004-.002.004-.002.004-.003.004-.002a.072.072 0 01.004-.002l.003-.002.004-.002.004-.003a.076.076 0 00.008-.004.076.076 0 00.004-.002l.004-.002.004-.003.003-.002.004-.002.004-.002.004-.002.004-.003a.076.076 0 00.008-.004l.003-.002.004-.003.004-.002.004-.002.004-.002a.076.076 0 01.004-.002l.004-.002.003-.003a.076.076 0 00.004-.002l.004-.002a.076.076 0 00.004-.002l.004-.003.004-.002.004-.002.004-.002.003-.002.004-.003.004-.002.004-.002a.076.076 0 00.008-.005l.004-.002.003-.002.004-.002.004-.002.004-.002.004-.003.004-.002.004-.002a.076.076 0 00.007-.005l.004-.002.004-.002.004-.002.004-.002.004-.003a.076.076 0 01.004-.002l.003-.002.004-.002a.076.076 0 00.004-.002l.004-.003a.076.076 0 00.004-.002l.004-.002.004-.002.003-.002.004-.003.004-.002.004-.002.004-.002a.076.076 0 00.004-.003l.004-.002a.072.072 0 00.004-.002l.003-.002.004-.002.004-.003.004-.002.004-.002.004-.002.004-.002a.072.072 0 00.007-.005.076.076 0 00.004-.002l.004-.002.004-.003.004-.002.004-.002.004-.002a.076.076 0 01.003-.002l.004-.003a.076.076 0 00.004-.002l.004-.002.004-.002.004-.002.004-.003.003-.002.004-.002.004-.002.004-.002.004-.003.004-.002a.076.076 0 00.004-.002l.003-.002.004-.003.004-.002.004-.002.004-.002.004-.002.004-.002.004-.003.003-.002a.072.072 0 00.008-.004l.004-.003.004-.002.004-.002.004-.002a.076.076 0 01.003-.002l.004-.003a.076.076 0 01.004-.002l.004-.002a.076.076 0 00.008-.005.076.076 0 00.004-.002l.004-.002.003-.002.004-.002.004-.002.004-.003.004-.002.004-.002.004-.002a.076.076 0 00.003-.003l.004-.002.004-.002.004-.002.004-.002.004-.003.004-.002.003-.002.004-.002a.076.076 0 00.008-.005.076.076 0 00.004-.002l.004-.002.004-.002.004-.002.003-.003a.076.076 0 01.004-.002l.004-.002.004-.002a.076.076 0 00.008-.005.076.076 0 00.004-.002L3 11.073l.004-.002.004-.003.004-.002a.076.076 0 01.008-.004l.004-.002.004-.003.003-.002a.076.076 0 00.004-.002l.004-.002.004-.002.004-.003.004-.002.004-.002.003-.002.004-.002.004-.003a.076.076 0 00.008-.004l.004-.002.004-.003.003-.002.004-.002.004-.002.004-.002.004-.003.004-.002a.076.076 0 00.008-.004l.003-.002.004-.003.004-.002L3.13 11l.004-.002a.076.076 0 01.004-.002l.004-.003.003-.002a.076.076 0 00.004-.002l.004-.002a.076.076 0 00.004-.003l.004-.002.004-.002.004-.002.004-.002.003-.003.004-.002.004-.002a.072.072 0 00.008-.005.072.072 0 00.004-.002l.004-.002.003-.002.004-.002.004-.002.004-.003.004-.002.004-.002a.072.072 0 00.007-.005.076.076 0 00.004-.002l.004-.002.004-.002.004-.002.004-.003.004-.002a.076.076 0 01.004-.002l.003-.002a.076.076 0 00.008-.005.076.076 0 00.004-.002l.004-.002.004-.002.004-.002.003-.003a.076.076 0 01.004-.002l.004-.002.004-.002.004-.003a.076.076 0 00.004-.002l.004-.002.003-.002.004-.002.004-.003.004-.002.004-.002.004-.002.004-.002.004-.003a.072.072 0 00.007-.004.076.076 0 00.004-.002l.004-.002.004-.003.004-.002a.076.076 0 01.004-.002l.003-.002a.076.076 0 01.004-.003l.004-.002a.076.076 0 00.008-.004.076.076 0 00.004-.002l.004-.003.004-.002.003-.002.004-.002.004-.002.004-.003.004-.002.004-.002a.076.076 0 00.004-.002l.003-.002.004-.003.004-.002.004-.002.004-.002.004-.003.004-.002.003-.002.004-.002a.072.072 0 00.008-.005l.004-.002.004-.002.004-.002.004-.002a.076.076 0 01.003-.003l.004-.002.004-.002.004-.002a.076.076 0 00.008-.005l.004-.002.003-.002.004-.002.004-.002.004-.003.004-.002.004-.002.004-.002.004-.003a.076.076 0 00.003-.002l.004-.002.004-.002.004-.002.004-.003.004-.002.004-.002a.076.076 0 01.003-.002l.004-.003a.076.076 0 00.008-.004.076.076 0 00.004-.002l.004-.002.004-.002.003-.003.004-.002.004-.002.004-.002.004-.003a.076.076 0 00.008-.004.076.076 0 00.004-.002l.003-.002.004-.003.004-.002.004-.002a.076.076 0 01.004-.002l.004-.002.004-.003a.076.076 0 00.003-.002l.004-.002a.076.076 0 00.004-.002l.004-.002.004-.003.004-.002.004-.002.004-.002.003-.002.004-.003a.072.072 0 00.008-.004.072.072 0 00.004-.002l.004-.003.004-.002.003-.002.004-.002.004-.002.004-.003.004-.002a.076.076 0 00.008-.004.076.076 0 00.003-.002l.004-.003.004-.002.004-.002.004-.002.004-.003a.076.076 0 01.004-.002l.004-.002.003-.002a.076.076 0 00.004-.002l.004-.003.004-.002.004-.002.004-.002.004-.002.003-.003a.072.072 0 01.004-.002l.004-.002.004-.002a.076.076 0 00.004-.002l.004-.003.004-.002.004-.002.003-.002.004-.003.004-.002a.076.076 0 01.004-.002l.004-.002.004-.002a.072.072 0 00.007-.005.076.076 0 00.004-.002l.004-.002.004-.002.004-.003a.076.076 0 01.008-.004.076.076 0 01.003-.002l.004-.002a.076.076 0 00.008-.005.076.076 0 00.004-.002l.004-.002.004-.002.004-.003.003-.002a.076.076 0 01.004-.002l.004-.002.004-.003.004-.002a.076.076 0 00.004-.002l.004-.002.003-.002.004-.003.004-.002.004-.002.004-.002.004-.002.004-.003a.076.076 0 00.007-.004.076.076 0 00.004-.002l.004-.002.004-.003.004-.002.004-.002A.076.076 0 014 10.503l.003-.002a.076.076 0 01.004-.003l.004-.002a.076.076 0 00.008-.004l.004-.003.004-.002.003-.002.004-.002a.072.072 0 01.004-.002l.004-.003.004-.002.004-.002.004-.002a.076.076 0 00.004-.002l.003-.003.004-.002.004-.002.004-.002a.076.076 0 01.004-.002l.004-.003.004-.002.003-.002a.076.076 0 00.008-.005.076.076 0 00.004-.002l.004-.002.004-.002.004-.002a.076.076 0 01.007-.005l.004-.002.988 2.162zm-2.967-1.03c.26-.15.549-.36.94-.645.368-.267.81-.585 1.286-.857l.987 2.162c-.348.199-.69.443-1.064.714-.35.255-.761.559-1.161.787l-.988-2.162zm2.226-1.502c.411-.235 1.295-.356 1.69.51.397.868-.209 1.598-.62 1.833l-.987-2.162c-.246.141-.81.733-.456 1.51.355.776 1.114.611 1.36.47l-.987-2.161zm1.236 2.452c-.568.732-.968 1.35-1.225 1.855l-1.993-1.093c.359-.707.865-1.468 1.494-2.28l1.724 1.518zm-3.218.762c.03-.06.063-.122.095-.183l1.966 1.145a6.708 6.708 0 00-.068.13l-1.993-1.092zm.164-.094c.188-.37.418-.755.618-1.093.21-.356.393-.664.533-.94l1.993 1.092c-.187.37-.417.756-.617 1.093-.211.356-.393.664-.533.94L2.55 13.183zm3.144-.94c-.138.271-.24.52-.361.804a5.518 5.518 0 01-.457.9l-1.834-1.364a3.27 3.27 0 00.22-.462c.105-.247.25-.598.44-.972l1.992 1.093zm-2.653.34a9.88 9.88 0 00.464-.824l1.98 1.12c-.197.377-.412.772-.61 1.068l-1.834-1.364zm.448-.57c.028-.087.154-.6.4-1.003l1.894 1.269c.006-.01-.004.003-.028.075a4.222 4.222 0 00-.043.137c-.015.053-.038.13-.062.206l-2.16-.684zm.922-1.517l.123-.07.987 2.162-.122.07-.988-2.162zm.535-.534V9.96h.002v-.001h.002v-.001h.001v-.001h.002v-.001h.002v-.001h.002v-.001h.001v-.001h.002v-.001h.002V9.95h.003v-.001h.002v-.001h.002v-.001h.002v-.001h.001v-.001h.001l.988 2.162H5.96v.001h-.002v.001h-.001v.001h-.002v.001h-.002v.001h-.002v.001H5.95v.001h-.002v.001h-.002v.001h-.002v.001h-.001v.001h-.002v.001h-.002v.001h-.002v.001h-.001v.001h-.001l-.988-2.161zm2.183.55a18.527 18.527 0 011.676 3.525l-2.148.97a16.161 16.161 0 00-1.467-3.078l1.939-1.416zm.846 3.219h.002v-.001h.001v-.001h.002v-.001h.002v-.001h.002v-.001h.001v-.001h.002v-.001h.002v-.001h.002v-.001h.001v-.001h.001l.988 2.162H8.98v.001h-.002v.001h-.001l-.001.001h-.001v.001h-.002v.001h-.002v.001H8.97l-.001.001h-.001v.001h-.002v.001h-.002v.001l-.988-2.162zm-.011.396c-.496-.997-.89-2.145-1.278-3.298l2.156-.946c.396 1.176.74 2.166 1.151 2.992l-2.03 1.252zm-.696-3.224c.025-.006.03-.01.004.001a1.85 1.85 0 00-.125.067L6.17 8.803c.137-.078.404-.23.716-.304l.383 2.403zm.043-.058c-.219.228-.432.38-.603.488l-1.07-2.113a.652.652 0 00.131-.103l1.542 1.728zm-3.07-.034a.759.759 0 00.128.198c.02.022.028.027-.008-.003-.054-.045-.219-.174-.391-.336l1.553-1.894c.111.104.176.15.297.252.08.067.33.265.484.603l-2.063 1.18zm-.487-.306a19.473 19.473 0 00-2.467-.92l.707-2.38c.864.253 1.927.646 2.754 1.028l-.994 2.272zm-2.435.737a4.41 4.41 0 00-.124.03L.773 8.878l.19-.046.357 2.41zm-.14-1.854c.52.067 1.238.077 1.931.04.712-.038 1.283-.118 1.536-.19l.474 2.379c-.5.143-1.273.232-2.019.271-.764.04-1.62.035-2.311-.054l.39-2.446zm3.674-.21c.07-.014.153-.024.245-.024l-.122 2.463a.894.894 0 00.172-.017l-.295-2.422zm.964.228l.107.044-.956 2.29a1.142 1.142 0 00-.036-.016l.885-2.318zm-.296 2.723l-.001.001H5.52l-.001.001h-.001v.001h-.002v.001h-.001l-.001.001h-.001l-.001.001h-.001v.001H5.51v.001h-.001l-.001.001h-.001l-.001.001h-.001v.001h-.002v.001h-.001l-.001.001H5.5v.001h-.002v.001h-.002v.001h-.002v.001h-.001v.001a.014.014 0 01-.002 0v.001h-.002v.001h-.001l-.001.001h-.001l-.001.001h-.001v.001h-.002v.001H5.48l-.001.001h-.001v.001h-.002v.001h-.002v.001a.015.015 0 01-.002 0v.001h-.001v.001H5.47v.001h-.002v.001h-.001l-.001.001h-.001v.001h-.002v.001h-.002v.001H5.46l-.001.001h-.001l-.001.001h-.001v.001h-.002v.001h-.001l-.001.001H5.45v.001h-.001v.001h-.001l-.001.001h-.001l-.001.001h-.001v.001h-.001a.017.017 0 01-.001 0v.001H5.44l-.001.001h-.001l-.001.001h-.001v.001h-.002v.001h-.002v.001h-.001l-.001.001-.001.001h-.001v.001h-.002v.001h-.001l-.001.001h-.001v.001h-.002v.001h-.002v.001h-.001l-.001.001a.018.018 0 01-.001 0l-.001.001h-.001v.001h-.001l-.001.001H5.41l-.001.001h-.001l-.001.001h-.001v.001h-.001l-.001.001h-.001l-.001.001h-.001v.001H5.4v.001h-.002v.001h-.001v.001h-.002v.001h-.002v.001h-.001l-.001.001H5.39l-.001.001h-.001a.021.021 0 00-.002.002h-.002v.001a.021.021 0 01-.001 0l-.001.001H5.38v.001a.021.021 0 01-.002 0v.001h-.001l-.001.001h-.001l-.001.001h-.001v.001h-.002v.001H5.37l-.001.001h-.001l-.001.001h-.001v.001h-.002v.001h-.001l-.001.001h-.001l-.001.001v.001h-.001l-.001.001h-.001l-.001.001h-.001l-.001.001h-.001l-.001.001H5.35v.001h-.001v.001h-.001l-.001.001a.024.024 0 01-.001 0v.001h-.002v.001h-.001l-.001.001H5.34v.001h-.001l-.001.001h-.001v.001h-.001l-.001.001h-.001l-.001.001h-.001a.025.025 0 01-.001.001l-.001.001h-.001a.025.025 0 01-.002.001l-.001.001h-.001v.001h-.002v.001h-.002v.001H5.32l-.001.001h-.001v.001h-.002v.001h-.002v.001h-.001l-.001.001H5.31v.001l-.001.001h-.002v.001a.027.027 0 01-.002 0v.001a.027.027 0 01-.002.001h-.001v.001H5.3l-.001.001h-.001l-.001.001h-.001l-.001.001h-.001v.001h-.001l-.001.001a.028.028 0 00-.002 0v.001a.028.028 0 00-.001.001l-.989-2.16V10.1h.002v-.001h.002v-.001h.001l.001-.001h.001l.001-.001h.001v-.001h.001l.001-.001h.001l.001-.001h.001l.001-.001a.027.027 0 01.002-.001h.001v-.001h.001l.001-.001h.001v-.001h.002l.001-.001h.001v-.001h.001l.001-.001h.001v-.001h.002l.001-.001h.001v-.001h.001l.001-.001h.001a.025.025 0 00.001-.001h.001l.001-.001h.001v-.001h.001l.001-.001h.001v-.001h.002v-.001h.002v-.001h.001l.001-.001h.001l.001-.001h.001v-.001h.001l.001-.001h.001l.001-.001h.001v-.001h.002l.001-.001h.001v-.001h.001l.001-.001h.001l.001-.001h.001v-.001h.002v-.001h.001l.001-.001h.001v-.001h.002v-.001h.001l.001-.001a.022.022 0 01.001 0l.001-.001h.001v-.001h.001a.022.022 0 00.001 0v-.001h.001l.001-.001h.001l.001-.001h.001v-.001h.002v-.001h.001l.001-.001h.001l.001-.001h.001l.001-.001h.001v-.001h.002v-.001h.001l.001-.001H4.4l.001-.001h.001v-.001h.002v-.001h.001l.001-.001h.001v-.001h.002v-.001h.002v-.001h.001l.001-.001h.001l.001-.001h.001v-.001h.001l.001-.001h.001l.001-.001h.001l.001-.001h.001v-.001h.001l.001-.001h.001l.001-.001h.001l.001-.001h.001v-.001h.002v-.001h.001l.001-.001h.001v-.001h.002v-.001h.002v-.001h.001l.001-.001h.001l.001-.001h.001v-.001h.001l.001-.001h.001l.001-.001h.001v-.001h.002v-.001h.001l.001-.001h.001l.001-.001h.001v-.001h.002v-.001h.001l.001-.001h.001l.001-.001h.001v-.001h.002v-.001h.001l.001-.001h.001l.001-.001h.001l.001-.001h.001v-.001h.002v-.001h.001L4.476 10h.003v-.001h.002v-.001a.015.015 0 01.001 0l.001-.001h.001v-.001h.001a.015.015 0 00.002-.001h.001v-.001h.001l.001-.001h.001v-.001h.002V9.99a.008.008 0 01.002 0h.001l.001-.001h.001l.001-.001H4.5v-.001l.001-.001h.001l.001-.001h.001v-.001h.002v-.001h.001l.001-.001h.001l.001-.001h.001V9.98h.002v-.001h.002v-.001h.001l.001-.001h.001l.001-.001h.001v-.001h.002v-.001h.001l.001-.001a.012.012 0 00.001 0v-.001h.002V9.97h.003l.001-.001h.001l.001-.001h.001v-.001h.001l.988 2.161zm-.62.31c-.513.185-1.178.643-1.709 1.1l-1.37-1.89c.615-.53 1.546-1.214 2.461-1.542l.619 2.332zm-2.143.605c.189-.179.44-.493.683-.873.242-.378.423-.735.506-.96l2.12.803c-.173.468-.459 1.003-.766 1.482-.307.478-.69.987-1.09 1.364L2.76 13.043zm1.19-1.833c.143-.388.436-.93.997-1.25l.987 2.163a.43.43 0 00.134-.115c.013-.019.01-.02 0 .005L3.95 11.21zm.264 3.157a1.1 1.1 0 00.121-.626 1.052 1.052 0 00-.481-.8c-.521-.322-.975-.011-1.094.102l1.453 1.816c-.301.284-.941.624-1.573.235a1.268 1.268 0 01-.58-.972 1.602 1.602 0 01.195-.912l1.96 1.157zM2.4 11.728c.398-.05.726.09.903.184.206.11.394.258.549.419.15.154.32.374.433.655.104.26.241.806-.07 1.38l-1.96-1.156c-.23.422-.106.782-.078.85.035.09.066.111.045.09-.015-.016-.028-.023-.02-.019a.38.38 0 00.077.029.712.712 0 00.272.014l-.15-2.446zm.794 1.81c.052-.044.22-.2.279-.529.034-.188.054-.631-.284-.986a.93.93 0 00-.789-.295l.151 2.446a1.16 1.16 0 01-1.003-.344c-.377-.396-.367-.903-.32-1.166.087-.479.375-.826.596-1.016l1.37 1.89zm2.094-1.275a2.41 2.41 0 01-.384.175l-.619-2.332a.316.316 0 00.022-.009c.002 0 0 0-.006.004l.987 2.162zm.074-.043h-.051l-.034.002H5.26a.802.802 0 00.262-.094l-.987-2.162c.255-.146.497-.182.62-.195.12-.013.258-.013.273-.014l-.067 2.463zm.564-2.771c.511.224.878.788.796 1.469-.04.336-.194.677-.469.932a1.355 1.355 0 01-.89.37l.066-2.463a.954.954 0 00-.619.267 1.16 1.16 0 00-.356.706c-.06.507.216.877.516 1.008l.956-2.289zM5.1 9.153c.428 0 .721.225.787.273l.053.04.01.007c-.002-.001-.05-.037-.13-.068l-.886 2.318a1.368 1.368 0 01-.3-.163 1.068 1.068 0 01-.07-.052l-.027-.02a.666.666 0 00.093.053.83.83 0 00.348.075L5.1 9.153zM1.196 11.27c.176-.046.666-.32.664-.981-.002-.665-.5-.88-.679-.903l-.39 2.446c-.537-.07-1.215-.505-1.218-1.403-.004-.893.666-1.413 1.2-1.552l.423 2.393zm.73-3.636c.318.247.491.587.583.861.096.285.137.593.128.888a2.313 2.313 0 01-.243.984c-.188.366-.54.752-1.074.873L.963 8.832a.853.853 0 00-.555.43.572.572 0 00-.051.136c-.006.024-.006.036-.006.037v-.003l.002.01c.001.002.035.11.168.213l1.406-2.02zm5.867 6.252a1.076 1.076 0 00.11-.188c.004-.01-.01.024-.013.095a.72.72 0 00.075.332l2.029-1.252c.3.601.17 1.22.048 1.574-.129.375-.33.697-.499.923l-1.75-1.484zm.202-.168a.832.832 0 00-.157.117.441.441 0 00-.045.051l1.75 1.484a1.927 1.927 0 01-.56.51l-.988-2.162zm-5.513-.626c.062-.116.15-.263.268-.398a1.4 1.4 0 01.343-.29c.132-.077.688-.356 1.225.056.458.352.455.893.455.986a1.552 1.552 0 01-.056.391 2.3 2.3 0 01-.172.437L2.55 13.182c.014-.027-.006.005-.027.085a1.146 1.146 0 00-.039.29c0 .067-.008.591.44.935.528.405 1.068.127 1.181.06.157-.091.25-.197.274-.225.064-.074.084-.12.068-.09l-1.966-1.144zm3.04-.506a.285.285 0 00.083-.073l-1.724-1.518c.185-.239.41-.431.654-.57l.987 2.161zM2.44 9.315a1.27 1.27 0 01.543.028c.126.037.775.263.824 1.074.048.772-.515 1.164-.62 1.232a1.379 1.379 0 01-.512.198l-.249-2.431a.914.914 0 00-.336.137 1.283 1.283 0 00-.565 1.156c.048.787.676.992.76 1.017a.85.85 0 00.364.026L2.44 9.315zm1.403 2.063c-.042.005-.012.006.059-.02.027-.01.134-.048.26-.142.052-.038.548-.407.51-1.114a1.111 1.111 0 00-.607-.97.876.876 0 00-.266-.084c-.072-.01-.1-.002-.06-.006l.11 2.45a1.894 1.894 0 01-.453 0 1.199 1.199 0 01-.366-.108 1.162 1.162 0 01-.642-1.01 1.36 1.36 0 01.54-1.158 1.37 1.37 0 01.357-.19c.157-.057.316-.084.448-.098l.11 2.45zm-.106.003a2.39 2.39 0 00-.183.006c-.016 0-.008 0 .016-.003a1.122 1.122 0 00.528-.239c.08-.064.331-.278.443-.675a1.26 1.26 0 00-.212-1.135 1.064 1.064 0 00-.364-.29c-.128-.063-.238-.082-.259-.086a.869.869 0 00-.13-.015c-.027-.001-.04 0-.024-.001.025 0 .084-.005.181-.015l.11 2.45a4.842 4.842 0 01-.332.027c-.04.001-.095.002-.15 0a1.15 1.15 0 01-.16-.018c-.025-.005-.137-.025-.267-.088a1.068 1.068 0 01-.365-.292 1.26 1.26 0 01-.214-1.136c.113-.397.363-.611.445-.677a1.209 1.209 0 01.72-.265c.09-.006.202-.01.334-.01l-.117 2.462zm.871-2.407l.248.087-.815 2.345-.248-.087.815-2.345zm.04.263a.684.684 0 00-.043.014h.002l.017-.007c.027-.01.118-.045.232-.067l.295 2.422a.827.827 0 00.11-.03c.003 0 .005-.002.004 0H5.26a1.837 1.837 0 01-.138.046l-.474-2.378zm-.526 1.893l-.118-.042a5.325 5.325 0 01-.03-.01l-.01-.004a.118.118 0 01-.014-.005l-.021-.008-.018-.008a1.746 1.746 0 01-.051-.023c-.045-.023-.444-.4-.62-.89.317-1.053 1.345-1.458 1.415-1.446a1.887 1.887 0 01.086.023l.016.005.01.003.007.003.005.001.01.004.03.01.12.042-.816 2.345-.117-.041-.028-.01a.118.118 0 00-.005-.002l.006.002a.54.54 0 00.01.004l.017.005a1.229 1.229 0 00.085.022c.07.013 1.098-.393 1.414-1.446-.174-.489-.573-.867-.618-.89a1.88 1.88 0 00-.09-.038l-.009-.003a.126.126 0 00-.002-.001l.005.002a31.924 31.924 0 00.145.05L4.12 11.13zm2.588.202c-.228.143-.463.2-.6.227a2.452 2.452 0 01-.5.044 1.928 1.928 0 01-.572-.09 1.311 1.311 0 01-.795-.703l2.063-1.18A.945.945 0 006 9.252a.693.693 0 00-.185-.097c-.06-.02-.082-.015-.052-.015a.307.307 0 00.055-.004c.004 0-.006 0-.028.008a.74.74 0 00-.152.075l1.07 2.113zM2.939 1.46c.005-.003-.006.002-.05.034a4.012 4.012 0 00-.08.06l-.115.087-1.235-2c.058-.043.33-.267.61-.406l.87 2.225zm3.748 9.368a.796.796 0 00-.041-.103c-.012-.024-.012-.017.01.008a.54.54 0 00.198.136.677.677 0 00.415.033L6.886 8.5c.688-.165 1.197.179 1.475.497.256.294.401.646.482.886l-2.156.946zM5.712 3.49c.287.566.196 1.171.022 1.588a2.103 2.103 0 01-.909 1.032L3.88 3.924a.484.484 0 00-.223.243.721.721 0 00.034.592l2.02-1.27zm3.094 10.546a.563.563 0 00-.83-.306l.988 2.162c-.923.528-1.975.066-2.306-.886l2.148-.97zm-4.07-9.722c.036.127.055.18.07.213l-2.063 1.18a3.957 3.957 0 01-.193-.543l2.185-.85zm1.683 5.604c.099.04.206.098.307.169.08.056.263.191.404.425l-1.94 1.416a.89.89 0 00.221.247c.026.018.05.032.082.045l.925-2.302zm-.582-.925a.836.836 0 00-.157.117.439.439 0 00-.045.051l1.75 1.484a1.927 1.927 0 01-.561.51l-.987-2.162zm-.863.952c.724-.414 1.4-.046 1.445-.027l-.925 2.302a2.229 2.229 0 00-.079-.032c-.009-.004.014.006.057.013.046.008.12.015.215.001a.788.788 0 00.275-.095l-.988-2.162zm1.672-.637a.562.562 0 00-.828-.304l.987 2.162c-.922.527-1.973.066-2.305-.883l2.146-.975zM4.63 5.377c.032.043.058.07.15.176.073.085.189.222.294.396L3.135 7.366l-.013-.018a1.643 1.643 0 00-.057-.069l-.045-.052a3.575 3.575 0 01-.194-.235L4.63 5.377zm-.74 5.632c.145-.24.336-.407.522-.514l.988 2.162a1.08 1.08 0 00.384-.38L3.89 11.01zm1.206-4.823c.004-.001-.008.004-.042.03-.037.026-.078.06-.147.117L3.57 4.413c.12-.1.36-.304.656-.452l.87 2.225zm-.195 4.247l-.083-.182 2.064-1.18.083.182-2.064 1.18zm2.645.092v.003l.002.002v.002l.002.003v.002l.002.002v.002l.002.003.001.002.001.002.001.002.001.003.001.002a.039.039 0 01.002.004l.001.002.001.003.001.002.001.002v.002l.002.002v.002a.196.196 0 01.003.005v.002a.048.048 0 00.003.004v.002l.002.002v.002l.001.002.001.002.001.002.001.002.001.002.001.002v.002l.002.002v.002l.002.002v.002l.001.002.001.002.001.002.001.002v.001l.002.002v.002l.001.002.001.002.001.002.001.002v.002l.002.001v.002l.001.002.001.002.001.002v.001l.002.002v.002l.001.002.001.001v.002l.002.002a.14.14 0 00.001.003v.002l.002.002v.001l.001.002.001.002v.001l.002.002v.002l.001.001v.002l.001.002.001.001.001.002v.001l.001.002.001.002v.001l.002.002v.003a.033.033 0 00.002.003l.001.001v.002l.001.001.001.002v.001l.001.002.001.001v.002h.001l.001.002v.002l.001.001v.002h.002v.004l.001.001.001.001v.002l.001.001v.001l.001.002.001.001v.001l.001.002a.066.066 0 00.003.006v.001l.001.001v.002h.001v.002l.001.001.001.001v.002h.001v.002l.001.001v.001l.001.001v.001l.001.002.001.002.001.002.001.002.001.002v.001l.001.001v.002l.001.001v.001l.001.001.001.002.001.002v.002h.001v.001l.001.001v.002h.001v.002h.001v.002l.001.001v.002h.001v.001l.001.001v.002h.001v.001l.001.002.001.002v.001l.001.001v.002a.016.016 0 01.002.001v.001a.016.016 0 010 .002h.001v.002l.001.001v.001l.001.001v.001l.001.001v.002h.001v.002h.001v.002h.001v.002h.001v.002l-1.03.59-1.032.59h-.001v-.002h-.001v-.002l-.001-.001v-.002h-.001v-.002h-.001v-.002h-.001v-.002l-.001-.001v-.001l-.001-.001v-.002h-.001v-.001l-.001-.001v-.001a.016.016 0 01-.001-.002v-.001h-.001v-.002l-.001-.001v-.001l-.001-.001v-.002h-.001v-.001l-.001-.002v-.001l-.001-.001v-.002H5.6v-.001l-.001-.001v-.002h-.001v-.002h-.001v-.002l-.001-.002-.001-.001v-.001l-.001-.001v-.001l-.001-.001v-.002l-.001-.001v-.001l-.001-.001v-.001l-.001-.001v-.001l-.001-.001v-.002h-.001v-.002h-.001v-.002l-.001-.001v-.001l-.001-.001v-.001l-.001-.002-.001-.002v-.001l-.001-.001a.064.064 0 00-.002-.003v-.002l-.001-.001v-.002h-.001v-.002l-.001-.001-.001-.002-.001-.002v-.002h-.001l-.001-.002v-.002h-.001V11.9l-.002-.002v-.002l-.001-.002-.001-.001v-.002h-.001l-.001-.002v-.002l-.001-.001-.001-.002v-.001l-.001-.002-.001-.001v-.002l-.001-.001-.001-.002v-.001l-.001-.002-.001-.001v-.002l-.002-.001v-.003l-.002-.002v-.002l-.001-.001v-.002l-.002-.001v-.002l-.001-.002v-.001l-.002-.002v-.002l-.001-.001v-.002l-.002-.002v-.001l-.001-.002-.001-.002v-.001l-.002-.002v-.002l-.001-.002v-.001l-.002-.002v-.002l-.001-.002-.001-.002-.001-.001v-.002l-.002-.002v-.002l-.001-.002-.001-.001-.001-.002v-.002l-.002-.002v-.002l-.001-.002-.001-.002-.001-.002-.001-.002-.001-.002v-.001l-.002-.002v-.002l-.002-.002v-.002l-.001-.002a.032.032 0 00-.002-.004l-.001-.002-.001-.002v-.002l-.002-.002v-.002l-.002-.002v-.002l-.002-.003v-.002l-.002-.002v-.002l-.001-.002-.001-.002-.001-.002-.001-.002a.047.047 0 00-.002-.005l-.001-.002-.001-.002a.047.047 0 01-.002-.004.047.047 0 01-.002-.005l-.001-.002-.001-.002-.001-.003-.001-.002-.001-.002-.001-.002-.002-.003v-.002l-.002-.002v-.002l-.002-.003 2.064-1.18v.003l.002.002v.002l.002.003v.002l.002.002v.002l.002.003.001.002.001.002.001.002.001.003.001.002a.039.039 0 01.002.004l.001.002.001.003.001.002.001.002v.002l.002.002v.002a.196.196 0 01.003.005v.002a.048.048 0 00.003.004v.002l.002.002v.002l.001.002.001.002.001.002.001.002.001.002.001.002v.002l.002.002v.002l.002.002v.002l.001.002.001.002.001.002.001.002v.001l.002.002v.002l.001.002.001.002.001.002.001.002v.002l.002.001v.002l.001.002.001.002.001.002v.001l.002.002v.002l.001.002.001.001v.002l.002.002a.14.14 0 00.001.003v.002l.002.002v.001l.001.002.001.002v.001l.002.002v.002l.001.001v.002l.001.002.001.001.001.002v.001l.001.002.001.002v.001l.002.002v.003a.033.033 0 00.002.003l.001.001v.002l.001.001.001.002v.001l.001.002.001.001v.002h.001l.001.002v.002l.001.001v.002h.002v.004l.001.001.001.001v.002l.001.001v.001l.001.002.001.001v.001l.001.002a.066.066 0 00.003.006v.001l.001.001v.002h.001v.002l.001.001.001.001v.002h.001v.002l.001.001v.001l.001.001v.001l.001.002.001.002.001.002.001.002.001.002v.001l.001.001v.002l.001.001v.001l.001.001.001.002.001.002v.002h.001v.001l.001.001v.002h.001v.002h.001v.002l.001.001v.002h.001v.001l.001.001v.002h.001v.001l.001.002.001.002v.001l.001.001v.002a.016.016 0 01.002.001v.001a.016.016 0 010 .002h.001v.002l.001.001v.001l.001.001v.001l.001.001v.002h.001v.002h.001v.002h.001v.002h.001v.002l-1.03.59-1.032.59h-.001v-.002h-.001v-.002l-.001-.001v-.002h-.001v-.002h-.001v-.002h-.001v-.002l-.001-.001v-.001l-.001-.001v-.002h-.001v-.001l-.001-.001v-.001a.016.016 0 01-.001-.002v-.001h-.001v-.002l-.001-.001v-.001l-.001-.001v-.002h-.001v-.001l-.001-.002v-.001l-.001-.001v-.002H5.6v-.001l-.001-.001v-.002h-.001v-.002h-.001v-.002l-.001-.002-.001-.001v-.001l-.001-.001v-.001l-.001-.001v-.002l-.001-.001v-.001l-.001-.001v-.001l-.001-.001v-.001l-.001-.001v-.002h-.001v-.002h-.001v-.002l-.001-.001v-.001l-.001-.001v-.001l-.001-.002-.001-.002v-.001l-.001-.001a.064.064 0 00-.002-.003v-.002l-.001-.001v-.002h-.001v-.002l-.001-.001-.001-.002-.001-.002v-.002h-.001l-.001-.002v-.002h-.001V11.9l-.002-.002v-.002l-.001-.002-.001-.001v-.002h-.001l-.001-.002v-.002l-.001-.001-.001-.002v-.001l-.001-.002-.001-.001v-.002l-.001-.001-.001-.002v-.001l-.001-.002-.001-.001v-.002l-.002-.001v-.003l-.002-.002v-.002l-.001-.001v-.002l-.002-.001v-.002l-.001-.002v-.001l-.002-.002v-.002l-.001-.001v-.002l-.002-.002v-.001l-.001-.002-.001-.002v-.001l-.002-.002v-.002l-.001-.002v-.001l-.002-.002v-.002l-.001-.002-.001-.002-.001-.001v-.002l-.002-.002v-.002l-.001-.002-.001-.001-.001-.002v-.002l-.002-.002v-.002l-.001-.002-.001-.002-.001-.002-.001-.002-.001-.002v-.001l-.002-.002v-.002l-.002-.002v-.002l-.001-.002a.032.032 0 00-.002-.004l-.001-.002-.001-.002v-.002l-.002-.002v-.002l-.002-.002v-.002l-.002-.003v-.002l-.002-.002v-.002l-.001-.002-.001-.002-.001-.002-.001-.002a.047.047 0 00-.002-.005l-.001-.002-.001-.002a.047.047 0 01-.002-.004.047.047 0 01-.002-.005l-.001-.002-.001-.002-.001-.003-.001-.002-.001-.002-.001-.002-.002-.003v-.002l-.002-.002v-.002l-.002-.003 2.064-1.18zm3.37 8.1a.45.45 0 00-.664-.236l.987 2.162c-.987.565-2.105.068-2.465-.938l2.141-.988zM1.287 9.584c.021.006.045.01.077.009.016 0 .12-.003.268-.075.103-.051.633-.36.636-1.076a1.116 1.116 0 00-.177-.623.773.773 0 00-.165-.184L.52 9.655A1.362 1.362 0 01-.02 8.56c.005-.799.594-1.175.795-1.274.433-.212.902-.174 1.22-.082l-.708 2.38zM3.21 4.56c.041-.058.28-.424.67-.637l.945 2.186a.801.801 0 00.195-.15l.007-.008A1.441 1.441 0 005 5.99L3.21 4.56zm6.174 11.094c.018-.008.016-.01-.014.012a3.41 3.41 0 00-.147.119l-1.336-1.92c.104-.087.365-.315.687-.465l.81 2.254zm-3.85-2.7c.002-.005.018-.038.036-.086a1.302 1.302 0 00.076-.333c.006-.065.02-.24-.035-.45-.06-.236-.247-.629-.7-.785a1.081 1.081 0 00-.823.055c-.223.108-.359.266-.368.276a1.168 1.168 0 00-.124.16.87.87 0 00-.106.22l2.161.684a1.835 1.835 0 01-.205.435c-.014.022-.065.1-.14.183-.012.012-.15.171-.374.28-.11.054-.436.19-.824.056-.454-.157-.64-.55-.702-.786a1.31 1.31 0 01-.003-.641 1.42 1.42 0 01.106-.296l2.025 1.029zM4.529 6.103A.8.8 0 004.488 6c-.013-.024-.012-.017.009.007a.54.54 0 00.199.137.677.677 0 00.415.033l-.383-2.403c.688-.165 1.197.179 1.474.497.257.293.402.646.483.886l-2.156.946zm-.558 4.567a.903.903 0 00-.216-.165l.994-2.272c.33.152.588.367.775.543L3.971 10.67zM4.5 4.62a.601.601 0 00-.37-.378.73.73 0 00-.427-.017.894.894 0 00-.474.309l1.698 1.55c-.483.603-1.156.667-1.627.497a1.6 1.6 0 01-.948-.992L4.5 4.62zm4.342 10.872c-.018-.056-.024-.06-.011-.038a.495.495 0 00.174.163l1.163-2.185c.55.317.756.886.839 1.141l-2.165.919zm-5.337-3.735c.038-.072.12-.215.26-.353.137-.135.46-.384.913-.344.46.04.715.348.82.518.105.171.145.335.162.424.062.319.01.663-.127.953l-2.025-1.029a1.116 1.116 0 00-.088.699c.014.073.05.225.15.387.099.16.348.463.8.503.445.04.759-.206.886-.331a1.23 1.23 0 00.229-.308l-1.98-1.119zm4.33-3.61c.299.601.17 1.22.048 1.574-.13.375-.33.697-.5.923L5.635 9.16a1.077 1.077 0 00.11-.188c.005-.01-.01.024-.012.095a.72.72 0 00.075.332l2.029-1.252zM2.48.638c.09.104.252.286.39.51L.937 2.577a1.674 1.674 0 00-.16-.197L2.481.639zm9.698 17.024c.177.36.178.73.158.958a2.77 2.77 0 01-.159.697 2.92 2.92 0 01-.308.62 1.93 1.93 0 01-.631.614l-.987-2.162a.769.769 0 00-.219.188c-.003.005.007-.011.019-.044s.01-.041.008-.015a.558.558 0 00.003.113.844.844 0 00.081.27l2.035-1.239zM8.954 14.84c.027.037.053.066.145.174.073.087.195.231.303.414l-1.95 1.398c0 .002-.003-.005-.016-.022a1.862 1.862 0 00-.062-.076c-.046-.054-.161-.184-.259-.32l1.839-1.569zm-1.806-3.87a.725.725 0 00.164-.126L5.77 9.116c.097-.1.229-.216.4-.313l.978 2.167zM2.37 1.375a.8.8 0 00-.042-.102c-.012-.025-.011-.017.01.007a.54.54 0 00.198.137.677.677 0 00.415.033L2.57-.953c.689-.165 1.198.179 1.475.496.257.294.402.647.483.887l-2.156.945zm7.333 13.877v.002l.002.002.001.003.001.002.001.002.001.002.001.003.001.002.001.002.001.002.001.003.001.002.001.002.001.002.001.002.001.002.001.003.001.002.001.002.001.002a.039.039 0 00.002.004l.001.002.001.003.001.002.001.002v.002l.002.002v.002l.002.002v.002l.002.002v.002l.001.002.001.002.001.002.001.002.001.002.001.002v.002l.002.002v.002l.002.002v.002l.001.002.001.002.001.001v.002l.002.002v.002l.001.002.001.002.001.002v.001l.002.002v.002l.001.002.001.002.001.002v.001l.002.002v.002l.001.002.001.001v.002l.002.002v.001l.001.002.001.002v.002l.002.001v.002l.001.002v.001l.002.002v.001l.001.002v.002l.001.001.001.002v.001l.002.002v.002l.001.001v.002l.002.001v.003l.002.002v.001a.1.1 0 01.002.003v.002l.001.001v.002l.001.001.001.002v.001l.001.002.002.002v.003l.001.001.001.002v.001l.001.002.002.002v.002l.001.002.001.001v.002l.001.001v.001l.001.002.001.002.001.001v.002h.001v.002l.001.001v.001l.001.002.001.002v.001l.001.001v.001l.001.001v.002h.001v.002h.001v.002h.001v.002l.001.001v.001l.001.001v.001l.001.001v.001l.001.001v.001l.001.001v.001l.001.001v.002h.001v.002h.001v.002l.001.001v.001l.001.001v.001l.001.002.001.001v.001a.034.034 0 01.001.002v.001l.001.001v.001l.001.002.001.002v.001h.001v.002h.001v.002h.001v.002l.001.001v.001h.001v.002l.001.001v.002h.001v.002h.001v.002h.001v.002l.001.001v.001l.001.001v.002h.001v.002h.001l-1.032.59-1.031.59v-.001h-.001v-.002h-.001v-.002h-.001v-.002h-.001v-.002l-.001-.001v-.001l-.001-.001v-.002h-.001v-.002h-.001v-.003h-.001v-.001h-.001v-.002l-.001-.002-.001-.002-.001-.002v-.001h-.001v-.002l-.001-.001v-.004h-.001v-.002a.035.035 0 00-.001-.001v-.001l-.001-.001a.035.035 0 00-.002-.004.036.036 0 000-.001l-.001-.001v-.002l-.001-.001v-.001l-.001-.001v-.001l-.001-.001v-.001l-.001-.001v-.001l-.001-.001v-.001l-.001-.001v-.002l-.001-.001v-.002h-.001v-.002h-.001v-.002l-.001-.001v-.001l-.001-.001-.001-.001v-.002H7.74v-.002l-.001-.001v-.001l-.001-.002-.001-.002v-.001l-.001-.001-.001-.002v-.001l-.001-.001v-.002h-.001l-.001-.002v-.001l-.001-.002v-.001l-.001-.001-.001-.002v-.001l-.001-.001v-.002l-.002-.001v-.003l-.001-.001-.001-.002v-.001l-.001-.002-.001-.001v-.002l-.001-.001-.001-.001v-.002l-.001-.001-.001-.002v-.001l-.001-.002-.001-.001v-.002l-.002-.002v-.001l-.001-.002v-.001l-.001-.002-.001-.001v-.002l-.002-.002v-.001l-.001-.002v-.001l-.002-.002v-.002l-.001-.001v-.002l-.002-.002v-.001l-.001-.002v-.002l-.002-.002v-.004l-.001-.002v-.002l-.002-.001v-.002l-.001-.002-.001-.002v-.001l-.002-.002v-.002l-.001-.002-.001-.002a.073.073 0 00-.002-.003v-.002l-.002-.002v-.002l-.001-.002-.001-.002-.001-.002v-.002l-.002-.001v-.002l-.002-.002v-.002l-.001-.002-.001-.002-.001-.002-.001-.002-.001-.002v-.002l-.002-.002V16.5l-.002-.002v-.002a.038.038 0 00-.002-.004l-.001-.002-.001-.002-.001-.003-.001-.002-.001-.002-.001-.002-.001-.002-.001-.002-.001-.002-.001-.002-.001-.003-.001-.002-.001-.002-.001-.002-.001-.002-.001-.002-.001-.003-.001-.002-.001-.002-.001-.002-.001-.003-.001-.002-.001-.002-.001-.002-.001-.003a.051.051 0 00-.002-.004l-.001-.003 2.063-1.18v.003l.002.002.001.003.001.002.001.002.001.002.001.003.001.002.001.002.001.002.001.003.001.002.001.002.001.002.001.002.001.002.001.003.001.002.001.002.001.002a.039.039 0 00.002.004l.001.002.001.003.001.002.001.002v.002l.002.002v.002l.002.002v.002l.002.002v.002l.001.002.001.002.001.002.001.002.001.002.001.002v.002l.002.002v.002l.002.002v.002l.001.002.001.002.001.001v.002l.002.002v.002l.001.002.001.002.001.002v.001l.002.002v.002l.001.002.001.002.001.002v.001l.002.002v.002l.001.002.001.001v.002l.002.002v.001l.001.002.001.002v.002l.002.001v.002l.001.002v.001l.002.002v.001l.001.002v.002l.001.001.001.002v.001l.002.002v.002l.001.001v.002l.002.001v.003l.002.002v.001a.1.1 0 01.002.003v.002l.001.001v.002l.001.001.001.002v.001l.001.002.002.002v.003l.001.001.001.002v.001l.001.002.002.002v.002l.001.002.001.001v.002l.001.001v.001l.001.002.001.002.001.001v.002h.001v.002l.001.001v.001l.001.002.001.002v.001l.001.001v.001l.001.001v.002h.001v.002h.001v.002h.001v.002l.001.001v.001l.001.001v.001l.001.001v.001l.001.001v.001l.001.001v.001l.001.001v.002h.001v.002h.001v.002l.001.001v.001l.001.001v.001l.001.002.001.001v.001a.034.034 0 01.001.002v.001l.001.001v.001l.001.002.001.002v.001h.001v.002h.001v.002h.001v.002l.001.001v.001h.001v.002l.001.001v.002h.001v.002h.001v.002h.001v.002l.001.001v.001l.001.001v.002h.001v.002h.001l-1.032.59-1.031.59v-.001h-.001v-.002h-.001v-.002h-.001v-.002h-.001v-.002l-.001-.001v-.001l-.001-.001v-.002h-.001v-.002h-.001v-.003h-.001v-.001h-.001v-.002l-.001-.002-.001-.002-.001-.002v-.001h-.001v-.002l-.001-.001v-.002H7.76v-.002h-.001v-.002a.035.035 0 00-.001-.001v-.001l-.001-.001a.035.035 0 00-.002-.004.036.036 0 000-.001l-.001-.001v-.002l-.001-.001v-.001l-.001-.001v-.001l-.001-.001v-.001l-.001-.001v-.001l-.001-.001v-.001l-.001-.001v-.002l-.001-.001v-.002h-.001v-.002h-.001v-.002l-.001-.001v-.001l-.001-.001-.001-.001v-.002H7.74v-.002l-.001-.001v-.001l-.001-.002-.001-.002v-.001l-.001-.001-.001-.002v-.001l-.001-.001v-.002h-.001l-.001-.002v-.001l-.001-.002v-.001l-.001-.001-.001-.002v-.001l-.001-.001v-.002l-.002-.001v-.003l-.001-.001-.001-.002v-.001l-.001-.002-.001-.001v-.002l-.001-.001-.001-.001v-.002l-.001-.001-.001-.002v-.001l-.001-.002-.001-.001v-.002l-.002-.002v-.001l-.001-.002v-.001l-.001-.002-.001-.001v-.002l-.002-.002v-.001l-.001-.002v-.001l-.002-.002v-.002l-.001-.001v-.002l-.002-.002v-.001l-.001-.002v-.002l-.002-.002v-.003l-.001-.002v-.002l-.002-.001v-.002l-.001-.002-.001-.002v-.001l-.002-.002v-.002l-.001-.002-.001-.002a.073.073 0 00-.002-.003v-.002l-.002-.002v-.002l-.001-.002-.001-.002-.001-.002v-.002l-.002-.001v-.002l-.002-.002v-.002l-.001-.002-.001-.002-.001-.002-.001-.002-.001-.002v-.002l-.002-.002V16.5l-.002-.002v-.002a.038.038 0 00-.002-.004l-.001-.002-.001-.002-.001-.003-.001-.002-.001-.002-.001-.002-.001-.002-.001-.002-.001-.002-.001-.002-.001-.003-.001-.002-.001-.002-.001-.002-.001-.002-.001-.002-.001-.003-.001-.002-.001-.002-.001-.002-.001-.003-.001-.002-.001-.002-.001-.002-.001-.003a.051.051 0 00-.002-.004l-.001-.003 2.063-1.18z" fill="#fff" mask="url(#a)"/></svg>