<svg width="127" height="25" fill="none" xmlns="http://www.w3.org/2000/svg"><mask id="a" fill="#fff"><path d="M2.438 14.707v5.292H.655V6.481h4.986c1.48 0 2.637.378 3.472 1.133.842.755 1.263 1.754 1.263 2.999 0 1.312-.412 2.324-1.235 3.036-.817.705-1.99 1.058-3.519 1.058H2.438zm0-1.458H5.64c.953 0 1.683-.222 2.19-.668.508-.452.762-1.102.762-1.95 0-.804-.254-1.448-.761-1.931-.508-.483-1.204-.733-2.09-.752H2.439v5.301zm13.982 6.936c-1.362 0-2.47-.446-3.324-1.337-.854-.898-1.281-2.095-1.281-3.593v-.316c0-.996.189-1.885.566-2.665.384-.786.916-1.398 1.597-1.838a4.017 4.017 0 012.228-.668c1.306 0 2.322.43 3.046 1.29.724.86 1.086 2.092 1.086 3.696v.714h-6.806c.025.99.313 1.792.864 2.405.557.607 1.263.91 2.117.91.606 0 1.12-.124 1.541-.372a3.86 3.86 0 001.105-.984l1.049.817c-.842 1.294-2.104 1.94-3.788 1.94zm-.214-9.006c-.693 0-1.275.254-1.745.761-.47.502-.761 1.207-.873 2.117h5.032v-.13c-.05-.873-.284-1.547-.705-2.024-.421-.483-.99-.724-1.709-.724zm8.459-3.659v2.433h1.875v1.328h-1.875v6.23c0 .402.083.706.25.91.167.198.452.297.854.297.199 0 .47-.037.817-.111v1.392a4.983 4.983 0 01-1.318.186c-.768 0-1.346-.232-1.736-.697-.39-.464-.585-1.123-.585-1.977v-6.23h-1.83V9.953h1.83V7.521h1.718zm8.142 6.454c-1.529-.44-2.643-.978-3.342-1.616-.694-.644-1.04-1.436-1.04-2.377 0-1.064.424-1.943 1.272-2.637.854-.699 1.962-1.049 3.323-1.049.929 0 1.755.18 2.48.539.73.359 1.293.854 1.69 1.485.402.632.603 1.322.603 2.07H36c0-.816-.26-1.457-.78-1.921-.52-.47-1.253-.706-2.2-.706-.88 0-1.567.195-2.062.585-.489.384-.733.92-.733 1.606 0 .551.232 1.019.696 1.402.47.378 1.266.724 2.386 1.04 1.127.316 2.006.666 2.637 1.05.638.377 1.108.82 1.411 1.327.31.508.465 1.105.465 1.792 0 1.096-.427 1.974-1.282 2.637-.854.656-1.996.984-3.426.984a6.402 6.402 0 01-2.6-.53c-.804-.358-1.426-.847-1.865-1.466a3.586 3.586 0 01-.65-2.108h1.791c0 .817.3 1.464.901 1.94.607.471 1.415.706 2.423.706.941 0 1.662-.192 2.164-.575.501-.384.752-.907.752-1.57 0-.662-.232-1.172-.697-1.531-.464-.366-1.306-.725-2.525-1.077zm9.368-6.454v2.433h1.875v1.328h-1.875v6.23c0 .402.084.706.25.91.168.198.453.297.855.297.198 0 .47-.037.817-.111v1.392a4.983 4.983 0 01-1.319.186c-.767 0-1.346-.232-1.736-.697-.39-.464-.585-1.123-.585-1.977v-6.23h-1.829V9.953h1.83V7.521h1.717zm3.25 7.363c0-.984.191-1.869.575-2.655.39-.786.929-1.393 1.616-1.82.693-.427 1.482-.64 2.367-.64 1.368 0 2.473.473 3.315 1.42.848.947 1.272 2.207 1.272 3.779v.12c0 .979-.19 1.858-.567 2.637a4.23 4.23 0 01-1.606 1.81c-.693.434-1.492.65-2.395.65-1.362 0-2.467-.473-3.315-1.42-.842-.947-1.262-2.2-1.262-3.76v-.12zm1.726.205c0 1.114.257 2.008.771 2.683.52.675 1.213 1.012 2.08 1.012.872 0 1.566-.34 2.08-1.021.513-.687.77-1.647.77-2.879 0-1.101-.263-1.993-.79-2.673-.52-.688-1.212-1.031-2.079-1.031-.848 0-1.532.337-2.052 1.012s-.78 1.64-.78 2.897zm14.429-3.593a5.15 5.15 0 00-.846-.065c-1.126 0-1.89.48-2.293 1.439v7.13h-1.717V9.953h1.67l.029 1.161c.563-.898 1.361-1.346 2.395-1.346.334 0 .588.043.761.13v1.597zm5.04 5.988l2.34-7.53h1.84L66.76 21.55c-.625 1.67-1.619 2.506-2.98 2.506l-.325-.027-.64-.121v-1.393l.463.037c.582 0 1.034-.117 1.356-.352.328-.236.597-.666.808-1.291l.38-1.021-3.583-9.935h1.875l2.507 7.53zm9.982-2.6c0-.984.191-1.869.575-2.655.39-.786.929-1.393 1.616-1.82.693-.427 1.482-.64 2.367-.64 1.368 0 2.473.473 3.315 1.42.848.947 1.272 2.207 1.272 3.779v.12c0 .979-.189 1.858-.567 2.637a4.23 4.23 0 01-1.606 1.81c-.693.434-1.492.65-2.395.65-1.362 0-2.467-.473-3.315-1.42-.842-.947-1.262-2.2-1.262-3.76v-.12zm1.727.205c0 1.114.256 2.008.77 2.683.52.675 1.213 1.012 2.08 1.012.873 0 1.566-.34 2.08-1.021.513-.687.77-1.647.77-2.879 0-1.101-.263-1.993-.79-2.673-.519-.688-1.212-1.031-2.079-1.031-.848 0-1.532.337-2.052 1.012s-.78 1.64-.78 2.897zm11.196-5.135l.056 1.263c.768-.965 1.77-1.448 3.008-1.448 2.123 0 3.194 1.197 3.213 3.593v6.638h-1.718v-6.647c-.006-.725-.173-1.26-.501-1.607-.322-.346-.826-.52-1.514-.52-.557 0-1.046.149-1.466.446-.421.297-.75.687-.985 1.17v7.158h-1.717V9.953h1.624zM100.258 20h-1.717V5.737h1.717V20zm4.624 0h-1.718V9.952h1.718V20zm-1.857-12.711c0-.279.084-.514.251-.706.173-.192.427-.288.761-.288s.588.096.761.288c.174.192.26.427.26.706 0 .278-.086.51-.26.696-.173.186-.427.279-.761.279s-.588-.093-.761-.279a1.003 1.003 0 01-.251-.696zm6.239 2.664l.056 1.263c.767-.965 1.77-1.448 3.008-1.448 2.123 0 3.194 1.197 3.212 3.593v6.638h-1.717v-6.647c-.006-.725-.173-1.26-.502-1.607-.321-.346-.826-.52-1.513-.52a2.48 2.48 0 00-1.467.446 3.023 3.023 0 00-.984 1.17v7.158h-1.718V9.953h1.625zm13.035 10.232c-1.361 0-2.469-.446-3.323-1.337-.854-.898-1.282-2.095-1.282-3.593v-.316c0-.996.189-1.885.567-2.665.384-.786.916-1.398 1.597-1.838a4.015 4.015 0 012.228-.668c1.306 0 2.321.43 3.045 1.29.724.86 1.087 2.092 1.087 3.696v.714h-6.806c.025.99.313 1.792.863 2.405.558.607 1.263.91 2.117.91.607 0 1.121-.124 1.542-.372.42-.247.789-.575 1.104-.984l1.05.817c-.842 1.294-2.105 1.94-3.789 1.94zm-.213-9.006c-.693 0-1.275.254-1.746.761-.47.502-.761 1.207-.872 2.117h5.032v-.13c-.05-.873-.285-1.547-.706-2.024-.421-.483-.99-.724-1.708-.724z"/></mask><path d="M2.438 14.707v5.292H.655V6.481h4.986c1.48 0 2.637.378 3.472 1.133.842.755 1.263 1.754 1.263 2.999 0 1.312-.412 2.324-1.235 3.036-.817.705-1.99 1.058-3.519 1.058H2.438zm0-1.458H5.64c.953 0 1.683-.222 2.19-.668.508-.452.762-1.102.762-1.95 0-.804-.254-1.448-.761-1.931-.508-.483-1.204-.733-2.09-.752H2.439v5.301zm13.982 6.936c-1.362 0-2.47-.446-3.324-1.337-.854-.898-1.281-2.095-1.281-3.593v-.316c0-.996.189-1.885.566-2.665.384-.786.916-1.398 1.597-1.838a4.017 4.017 0 012.228-.668c1.306 0 2.322.43 3.046 1.29.724.86 1.086 2.092 1.086 3.696v.714h-6.806c.025.99.313 1.792.864 2.405.557.607 1.263.91 2.117.91.606 0 1.12-.124 1.541-.372a3.86 3.86 0 001.105-.984l1.049.817c-.842 1.294-2.104 1.94-3.788 1.94zm-.214-9.006c-.693 0-1.275.254-1.745.761-.47.502-.761 1.207-.873 2.117h5.032v-.13c-.05-.873-.284-1.547-.705-2.024-.421-.483-.99-.724-1.709-.724zm8.459-3.659v2.433h1.875v1.328h-1.875v6.23c0 .402.083.706.25.91.167.198.452.297.854.297.199 0 .47-.037.817-.111v1.392a4.983 4.983 0 01-1.318.186c-.768 0-1.346-.232-1.736-.697-.39-.464-.585-1.123-.585-1.977v-6.23h-1.83V9.953h1.83V7.521h1.718zm8.142 6.454c-1.529-.44-2.643-.978-3.342-1.616-.694-.644-1.04-1.436-1.04-2.377 0-1.064.424-1.943 1.272-2.637.854-.699 1.962-1.049 3.323-1.049.929 0 1.755.18 2.48.539.73.359 1.293.854 1.69 1.485.402.632.603 1.322.603 2.07H36c0-.816-.26-1.457-.78-1.921-.52-.47-1.253-.706-2.2-.706-.88 0-1.567.195-2.062.585-.489.384-.733.92-.733 1.606 0 .551.232 1.019.696 1.402.47.378 1.266.724 2.386 1.04 1.127.316 2.006.666 2.637 1.05.638.377 1.108.82 1.411 1.327.31.508.465 1.105.465 1.792 0 1.096-.427 1.974-1.282 2.637-.854.656-1.996.984-3.426.984a6.402 6.402 0 01-2.6-.53c-.804-.358-1.426-.847-1.865-1.466a3.586 3.586 0 01-.65-2.108h1.791c0 .817.3 1.464.901 1.94.607.471 1.415.706 2.423.706.941 0 1.662-.192 2.164-.575.501-.384.752-.907.752-1.57 0-.662-.232-1.172-.697-1.531-.464-.366-1.306-.725-2.525-1.077zm9.368-6.454v2.433h1.875v1.328h-1.875v6.23c0 .402.084.706.25.91.168.198.453.297.855.297.198 0 .47-.037.817-.111v1.392a4.983 4.983 0 01-1.319.186c-.767 0-1.346-.232-1.736-.697-.39-.464-.585-1.123-.585-1.977v-6.23h-1.829V9.953h1.83V7.521h1.717zm3.25 7.363c0-.984.191-1.869.575-2.655.39-.786.929-1.393 1.616-1.82.693-.427 1.482-.64 2.367-.64 1.368 0 2.473.473 3.315 1.42.848.947 1.272 2.207 1.272 3.779v.12c0 .979-.19 1.858-.567 2.637a4.23 4.23 0 01-1.606 1.81c-.693.434-1.492.65-2.395.65-1.362 0-2.467-.473-3.315-1.42-.842-.947-1.262-2.2-1.262-3.76v-.12zm1.726.205c0 1.114.257 2.008.771 2.683.52.675 1.213 1.012 2.08 1.012.872 0 1.566-.34 2.08-1.021.513-.687.77-1.647.77-2.879 0-1.101-.263-1.993-.79-2.673-.52-.688-1.212-1.031-2.079-1.031-.848 0-1.532.337-2.052 1.012s-.78 1.64-.78 2.897zm14.429-3.593a5.15 5.15 0 00-.846-.065c-1.126 0-1.89.48-2.293 1.439v7.13h-1.717V9.953h1.67l.029 1.161c.563-.898 1.361-1.346 2.395-1.346.334 0 .588.043.761.13v1.597zm5.04 5.988l2.34-7.53h1.84L66.76 21.55c-.625 1.67-1.619 2.506-2.98 2.506l-.325-.027-.64-.121v-1.393l.463.037c.582 0 1.034-.117 1.356-.352.328-.236.597-.666.808-1.291l.38-1.021-3.583-9.935h1.875l2.507 7.53zm9.982-2.6c0-.984.191-1.869.575-2.655.39-.786.929-1.393 1.616-1.82.693-.427 1.482-.64 2.367-.64 1.368 0 2.473.473 3.315 1.42.848.947 1.272 2.207 1.272 3.779v.12c0 .979-.189 1.858-.567 2.637a4.23 4.23 0 01-1.606 1.81c-.693.434-1.492.65-2.395.65-1.362 0-2.467-.473-3.315-1.42-.842-.947-1.262-2.2-1.262-3.76v-.12zm1.727.205c0 1.114.256 2.008.77 2.683.52.675 1.213 1.012 2.08 1.012.873 0 1.566-.34 2.08-1.021.513-.687.77-1.647.77-2.879 0-1.101-.263-1.993-.79-2.673-.519-.688-1.212-1.031-2.079-1.031-.848 0-1.532.337-2.052 1.012s-.78 1.64-.78 2.897zm11.196-5.135l.056 1.263c.768-.965 1.77-1.448 3.008-1.448 2.123 0 3.194 1.197 3.213 3.593v6.638h-1.718v-6.647c-.006-.725-.173-1.26-.501-1.607-.322-.346-.826-.52-1.514-.52-.557 0-1.046.149-1.466.446-.421.297-.75.687-.985 1.17v7.158h-1.717V9.953h1.624zM100.258 20h-1.717V5.737h1.717V20zm4.624 0h-1.718V9.952h1.718V20zm-1.857-12.711c0-.279.084-.514.251-.706.173-.192.427-.288.761-.288s.588.096.761.288c.174.192.26.427.26.706 0 .278-.086.51-.26.696-.173.186-.427.279-.761.279s-.588-.093-.761-.279a1.003 1.003 0 01-.251-.696zm6.239 2.664l.056 1.263c.767-.965 1.77-1.448 3.008-1.448 2.123 0 3.194 1.197 3.212 3.593v6.638h-1.717v-6.647c-.006-.725-.173-1.26-.502-1.607-.321-.346-.826-.52-1.513-.52a2.48 2.48 0 00-1.467.446 3.023 3.023 0 00-.984 1.17v7.158h-1.718V9.953h1.625zm13.035 10.232c-1.361 0-2.469-.446-3.323-1.337-.854-.898-1.282-2.095-1.282-3.593v-.316c0-.996.189-1.885.567-2.665.384-.786.916-1.398 1.597-1.838a4.015 4.015 0 012.228-.668c1.306 0 2.321.43 3.045 1.29.724.86 1.087 2.092 1.087 3.696v.714h-6.806c.025.99.313 1.792.863 2.405.558.607 1.263.91 2.117.91.607 0 1.121-.124 1.542-.372.42-.247.789-.575 1.104-.984l1.05.817c-.842 1.294-2.105 1.94-3.789 1.94zm-.213-9.006c-.693 0-1.275.254-1.746.761-.47.502-.761 1.207-.872 2.117h5.032v-.13c-.05-.873-.285-1.547-.706-2.024-.421-.483-.99-.724-1.708-.724z" fill="#fff"/><path d="M2.438 14.707v5.292H.655V6.481h4.986c1.48 0 2.637.378 3.472 1.133.842.755 1.263 1.754 1.263 2.999 0 1.312-.412 2.324-1.235 3.036-.817.705-1.99 1.058-3.519 1.058H2.438zm0-1.458H5.64c.953 0 1.683-.222 2.19-.668.508-.452.762-1.102.762-1.95 0-.804-.254-1.448-.761-1.931-.508-.483-1.204-.733-2.09-.752H2.439v5.301zm13.982 6.936c-1.362 0-2.47-.446-3.324-1.337-.854-.898-1.281-2.095-1.281-3.593v-.316c0-.996.189-1.885.566-2.665.384-.786.916-1.398 1.597-1.838a4.017 4.017 0 012.228-.668c1.306 0 2.322.43 3.046 1.29.724.86 1.086 2.092 1.086 3.696v.714h-6.806c.025.99.313 1.792.864 2.405.557.607 1.263.91 2.117.91.606 0 1.12-.124 1.541-.372a3.86 3.86 0 001.105-.984l1.049.817c-.842 1.294-2.104 1.94-3.788 1.94zm-.214-9.006c-.693 0-1.275.254-1.745.761-.47.502-.761 1.207-.873 2.117h5.032v-.13c-.05-.873-.284-1.547-.705-2.024-.421-.483-.99-.724-1.709-.724zm8.459-3.659v2.433h1.875v1.328h-1.875v6.23c0 .402.083.706.25.91.167.198.452.297.854.297.199 0 .47-.037.817-.111v1.392a4.983 4.983 0 01-1.318.186c-.768 0-1.346-.232-1.736-.697-.39-.464-.585-1.123-.585-1.977v-6.23h-1.83V9.953h1.83V7.521h1.718zm8.142 6.454c-1.529-.44-2.643-.978-3.342-1.616-.694-.644-1.04-1.436-1.04-2.377 0-1.064.424-1.943 1.272-2.637.854-.699 1.962-1.049 3.323-1.049.929 0 1.755.18 2.48.539.73.359 1.293.854 1.69 1.485.402.632.603 1.322.603 2.07H36c0-.816-.26-1.457-.78-1.921-.52-.47-1.253-.706-2.2-.706-.88 0-1.567.195-2.062.585-.489.384-.733.92-.733 1.606 0 .551.232 1.019.696 1.402.47.378 1.266.724 2.386 1.04 1.127.316 2.006.666 2.637 1.05.638.377 1.108.82 1.411 1.327.31.508.465 1.105.465 1.792 0 1.096-.427 1.974-1.282 2.637-.854.656-1.996.984-3.426.984a6.402 6.402 0 01-2.6-.53c-.804-.358-1.426-.847-1.865-1.466a3.586 3.586 0 01-.65-2.108h1.791c0 .817.3 1.464.901 1.94.607.471 1.415.706 2.423.706.941 0 1.662-.192 2.164-.575.501-.384.752-.907.752-1.57 0-.662-.232-1.172-.697-1.531-.464-.366-1.306-.725-2.525-1.077zm9.368-6.454v2.433h1.875v1.328h-1.875v6.23c0 .402.084.706.25.91.168.198.453.297.855.297.198 0 .47-.037.817-.111v1.392a4.983 4.983 0 01-1.319.186c-.767 0-1.346-.232-1.736-.697-.39-.464-.585-1.123-.585-1.977v-6.23h-1.829V9.953h1.83V7.521h1.717zm3.25 7.363c0-.984.191-1.869.575-2.655.39-.786.929-1.393 1.616-1.82.693-.427 1.482-.64 2.367-.64 1.368 0 2.473.473 3.315 1.42.848.947 1.272 2.207 1.272 3.779v.12c0 .979-.19 1.858-.567 2.637a4.23 4.23 0 01-1.606 1.81c-.693.434-1.492.65-2.395.65-1.362 0-2.467-.473-3.315-1.42-.842-.947-1.262-2.2-1.262-3.76v-.12zm1.726.205c0 1.114.257 2.008.771 2.683.52.675 1.213 1.012 2.08 1.012.872 0 1.566-.34 2.08-1.021.513-.687.77-1.647.77-2.879 0-1.101-.263-1.993-.79-2.673-.52-.688-1.212-1.031-2.079-1.031-.848 0-1.532.337-2.052 1.012s-.78 1.64-.78 2.897zm14.429-3.593a5.15 5.15 0 00-.846-.065c-1.126 0-1.89.48-2.293 1.439v7.13h-1.717V9.953h1.67l.029 1.161c.563-.898 1.361-1.346 2.395-1.346.334 0 .588.043.761.13v1.597zm5.04 5.988l2.34-7.53h1.84L66.76 21.55c-.625 1.67-1.619 2.506-2.98 2.506l-.325-.027-.64-.121v-1.393l.463.037c.582 0 1.034-.117 1.356-.352.328-.236.597-.666.808-1.291l.38-1.021-3.583-9.935h1.875l2.507 7.53zm9.982-2.6c0-.984.191-1.869.575-2.655.39-.786.929-1.393 1.616-1.82.693-.427 1.482-.64 2.367-.64 1.368 0 2.473.473 3.315 1.42.848.947 1.272 2.207 1.272 3.779v.12c0 .979-.189 1.858-.567 2.637a4.23 4.23 0 01-1.606 1.81c-.693.434-1.492.65-2.395.65-1.362 0-2.467-.473-3.315-1.42-.842-.947-1.262-2.2-1.262-3.76v-.12zm1.727.205c0 1.114.256 2.008.77 2.683.52.675 1.213 1.012 2.08 1.012.873 0 1.566-.34 2.08-1.021.513-.687.77-1.647.77-2.879 0-1.101-.263-1.993-.79-2.673-.519-.688-1.212-1.031-2.079-1.031-.848 0-1.532.337-2.052 1.012s-.78 1.64-.78 2.897zm11.196-5.135l.056 1.263c.768-.965 1.77-1.448 3.008-1.448 2.123 0 3.194 1.197 3.213 3.593v6.638h-1.718v-6.647c-.006-.725-.173-1.26-.501-1.607-.322-.346-.826-.52-1.514-.52-.557 0-1.046.149-1.466.446-.421.297-.75.687-.985 1.17v7.158h-1.717V9.953h1.624zM100.258 20h-1.717V5.737h1.717V20zm4.624 0h-1.718V9.952h1.718V20zm-1.857-12.711c0-.279.084-.514.251-.706.173-.192.427-.288.761-.288s.588.096.761.288c.174.192.26.427.26.706 0 .278-.086.51-.26.696-.173.186-.427.279-.761.279s-.588-.093-.761-.279a1.003 1.003 0 01-.251-.696zm6.239 2.664l.056 1.263c.767-.965 1.77-1.448 3.008-1.448 2.123 0 3.194 1.197 3.212 3.593v6.638h-1.717v-6.647c-.006-.725-.173-1.26-.502-1.607-.321-.346-.826-.52-1.513-.52a2.48 2.48 0 00-1.467.446 3.023 3.023 0 00-.984 1.17v7.158h-1.718V9.953h1.625zm13.035 10.232c-1.361 0-2.469-.446-3.323-1.337-.854-.898-1.282-2.095-1.282-3.593v-.316c0-.996.189-1.885.567-2.665.384-.786.916-1.398 1.597-1.838a4.015 4.015 0 012.228-.668c1.306 0 2.321.43 3.045 1.29.724.86 1.087 2.092 1.087 3.696v.714h-6.806c.025.99.313 1.792.863 2.405.558.607 1.263.91 2.117.91.607 0 1.121-.124 1.542-.372.42-.247.789-.575 1.104-.984l1.05.817c-.842 1.294-2.105 1.94-3.789 1.94zm-.213-9.006c-.693 0-1.275.254-1.746.761-.47.502-.761 1.207-.872 2.117h5.032v-.13c-.05-.873-.285-1.547-.706-2.024-.421-.483-.99-.724-1.708-.724z" stroke="#fff" stroke-width="2.377" mask="url(#a)"/><mask id="b" fill="#fff"><path fill-rule="evenodd" clip-rule="evenodd" d="M79.672 15.841c.18.395.18.395 0 0zm2.073 3.629c.286-.164.561-.893.417-1.189-.506-1.03-.877-2.135-1.237-3.248-.066-.204-.162-.407-.338-.508-.22-.127-.417-.086-.608.003-.154.071-.29.186-.424.297-.408.34-.742.49-.52.798.124.174.282.318.391.504a17.244 17.244 0 011.419 2.991c.136.382.551.551.9.352zm-4.231-8.355c.18.395.18.395 0 0zm-.581-1.272a2.732 2.732 0 01-.132-.376c-.24-.83-.985-2.07-1.445-3.078l1.577 3.454zm.576.06c.232-.31.478-.796.312-1.13-.454-.911-.822-1.98-1.214-3.145-.119-.352-.339-.738-.688-.654a1.12 1.12 0 00-.257.1 2.278 2.278 0 00-.424.299c-.413.344-.75.494-.51.811.122.161.27.299.376.473a17.21 17.21 0 011.468 3.138c.11.315.453.454.74.29l.018-.011a.676.676 0 00.18-.172zm-2.735-4.787a2.767 2.767 0 01-.132-.378c-.242-.83-.985-2.068-1.445-3.075l1.577 3.453zm.579-.1c.296-.16.5-.592.348-.892-.471-.928-.85-2.024-1.252-3.222-.12-.352-.339-.738-.688-.654-.086.02-.172.056-.258.099-.153.076-.288.19-.427.294-.462.346-.868.386-.447.867.098.112.197.225.275.354a17.26 17.26 0 011.523 3.243c.103.296.452.454.652.204a.691.691 0 00.026-.034c.068-.096.148-.204.248-.259zm.424 5.029c-.66-.08-1.156-.256-1.817-.337.66.081 1.074.074 1.817.337l-.25-.088a2.017 2.017 0 01.002 0c-.567-.28-1.088-.46-1.576-.632-.12-.043-.24-.149-.12-.102.118.047.31.004.194-.049a21.029 21.029 0 00-1.639-.63c.992.35 2.067.882 3.39 1.5.247.088.247.088 0 0zm-.408.233c.078-.045.024-.064-.062-.094l-.052-.019a.328.328 0 00-.114-.018l-.347.002c-.457.002-.465.054-.007.004-.348.037-.342.151.006.113l.242-.026a7.24 7.24 0 00-1.51.203c-.073.017-.057.102.018.09.159-.024.164.07.006.098l1.693-.296a.685.685 0 00.127-.057zm.576 1.046c-.33.188-.576.559-1.07.842.329-.189.576-.56 1.07-.842-.494.283-1.07.842-1.566 1.125.495-.283.907-.748 1.402-1.03-.66.376-1.32.753-1.896 1.313.411-.465 1.071-.842 1.73-1.22l-1.978 1.132c.66-.377 1.401-1.03 2.225-1.502.165-.094.248.088.084.182zm.084.182a.975.975 0 00-.286.248c-.599.773-1.052 1.462-1.36 2.068.026-.052.054-.104.082-.157.156-.292.233-.232.083.063.328-.647.822-1.387 1.15-2.034-.328.647-.492 1.199-.738 1.57.153-.231.338-.569.536-.947.045-.086.067.036.025.124-.04.082.022 0 .05-.087.076-.242.131-.49.265-.711a.193.193 0 01.07-.067l.122-.07zm.411-.465c.01-.005.02-.01.028-.016.167-.095.32-.027.489.043a.48.48 0 01.203.152 17.345 17.345 0 011.572 3.3c.11.316.45.455.738.29l.018-.01a.676.676 0 00.18-.171c.231-.31.477-.796.311-1.13-.454-.91-.822-1.98-1.214-3.145-.118-.352-.338-.738-.688-.654-.14.034-.28.107-.419.186a.522.522 0 00-.117.094 1.886 1.886 0 01-.367.295c-.195.122-.806.153-.9-.055-.068-.147-.243-.233-.527-.499a1.906 1.906 0 00-.495-.354 20.492 20.492 0 00-2.61-.973c-.334-.098-.695.035-.418.25.368.288.379 1.287-.083 1.392a4.944 4.944 0 00-.157.038c-.358.093-.357.49.002.536 1.212.155 3.146.03 3.899-.184.04-.011.077-.03.117-.039a.185.185 0 01.037-.003c.128 0 .22.133.338.18.024.01.047.019.07.03.212.092.181.388-.052.394-.115.003-.262 0-.366.059l-.235.134a1.257 1.257 0 01-.2.09c-.714.257-1.512.828-2.085 1.322-.169.145-.243.384-.033.357.32-.04.924.533.758.838-.12.223.07.333.252.162.59-.555 1.267-1.646 1.523-2.339.085-.232.226-.453.431-.57z"/></mask><path fill-rule="evenodd" clip-rule="evenodd" d="M79.672 15.841c.18.395.18.395 0 0zm2.073 3.629c.286-.164.561-.893.417-1.189-.506-1.03-.877-2.135-1.237-3.248-.066-.204-.162-.407-.338-.508-.22-.127-.417-.086-.608.003-.154.071-.29.186-.424.297-.408.34-.742.49-.52.798.124.174.282.318.391.504a17.244 17.244 0 011.419 2.991c.136.382.551.551.9.352zm-4.231-8.355c.18.395.18.395 0 0zm-.581-1.272a2.732 2.732 0 01-.132-.376c-.24-.83-.985-2.07-1.445-3.078l1.577 3.454zm.576.06c.232-.31.478-.796.312-1.13-.454-.911-.822-1.98-1.214-3.145-.119-.352-.339-.738-.688-.654a1.12 1.12 0 00-.257.1 2.278 2.278 0 00-.424.299c-.413.344-.75.494-.51.811.122.161.27.299.376.473a17.21 17.21 0 011.468 3.138c.11.315.453.454.74.29l.018-.011a.676.676 0 00.18-.172zm-2.735-4.787a2.767 2.767 0 01-.132-.378c-.242-.83-.985-2.068-1.445-3.075l1.577 3.453zm.579-.1c.296-.16.5-.592.348-.892-.471-.928-.85-2.024-1.252-3.222-.12-.352-.339-.738-.688-.654-.086.02-.172.056-.258.099-.153.076-.288.19-.427.294-.462.346-.868.386-.447.867.098.112.197.225.275.354a17.26 17.26 0 011.523 3.243c.103.296.452.454.652.204a.691.691 0 00.026-.034c.068-.096.148-.204.248-.259zm.424 5.029c-.66-.08-1.156-.256-1.817-.337.66.081 1.074.074 1.817.337l-.25-.088a2.017 2.017 0 01.002 0c-.567-.28-1.088-.46-1.576-.632-.12-.043-.24-.149-.12-.102.118.047.31.004.194-.049a21.029 21.029 0 00-1.639-.63c.992.35 2.067.882 3.39 1.5.247.088.247.088 0 0zm-.408.233c.078-.045.024-.064-.062-.094l-.052-.019a.328.328 0 00-.114-.018l-.347.002c-.457.002-.465.054-.007.004-.348.037-.342.151.006.113l.242-.026a7.24 7.24 0 00-1.51.203c-.073.017-.057.102.018.09.159-.024.164.07.006.098l1.693-.296a.685.685 0 00.127-.057zm.576 1.046c-.33.188-.576.559-1.07.842.329-.189.576-.56 1.07-.842-.494.283-1.07.842-1.566 1.125.495-.283.907-.748 1.402-1.03-.66.376-1.32.753-1.896 1.313.411-.465 1.071-.842 1.73-1.22l-1.978 1.132c.66-.377 1.401-1.03 2.225-1.502.165-.094.248.088.084.182zm.084.182a.975.975 0 00-.286.248c-.599.773-1.052 1.462-1.36 2.068.026-.052.054-.104.082-.157.156-.292.233-.232.083.063.328-.647.822-1.387 1.15-2.034-.328.647-.492 1.199-.738 1.57.153-.231.338-.569.536-.947.045-.086.067.036.025.124-.04.082.022 0 .05-.087.076-.242.131-.49.265-.711a.193.193 0 01.07-.067l.122-.07zm.411-.465c.01-.005.02-.01.028-.016.167-.095.32-.027.489.043a.48.48 0 01.203.152 17.345 17.345 0 011.572 3.3c.11.316.45.455.738.29l.018-.01a.676.676 0 00.18-.171c.231-.31.477-.796.311-1.13-.454-.91-.822-1.98-1.214-3.145-.118-.352-.338-.738-.688-.654-.14.034-.28.107-.419.186a.522.522 0 00-.117.094 1.886 1.886 0 01-.367.295c-.195.122-.806.153-.9-.055-.068-.147-.243-.233-.527-.499a1.906 1.906 0 00-.495-.354 20.492 20.492 0 00-2.61-.973c-.334-.098-.695.035-.418.25.368.288.379 1.287-.083 1.392a4.944 4.944 0 00-.157.038c-.358.093-.357.49.002.536 1.212.155 3.146.03 3.899-.184.04-.011.077-.03.117-.039a.185.185 0 01.037-.003c.128 0 .22.133.338.18.024.01.047.019.07.03.212.092.181.388-.052.394-.115.003-.262 0-.366.059l-.235.134a1.257 1.257 0 01-.2.09c-.714.257-1.512.828-2.085 1.322-.169.145-.243.384-.033.357.32-.04.924.533.758.838-.12.223.07.333.252.162.59-.555 1.267-1.646 1.523-2.339.085-.232.226-.453.431-.57z" fill="#fff"/><path d="M81.745 19.47l-.59-1.032.59 1.032zm.417-1.189l1.066-.523-1.066.523zm-1.237-3.248l-1.13.366 1.13-.366zm-.338-.508l-.594 1.029.594-1.03zm-.608.003l.5 1.078-.5-1.078zm-.424.297l.76.914-.76-.914zm-.52.798l-.967.692.966-.692zm.391.504l1.024-.604-1.024.604zm1.419 2.991l1.119-.4-1.12.4zm-3.336-9.216l.952.713-.952-.713zm.312-1.129l-1.064.53 1.064-.53zm-1.214-3.145l1.126-.379-1.126.38zm-.688-.654l-.277-1.156.277 1.156zm-.257.1l.53 1.063-.53-1.064zm-.424.299l-.759-.914.76.914zm-.51.811l.947-.717-.947.717zm.376.473l-1.017.614 1.017-.614zm1.468 3.138l-1.121.393 1.121-.393zm.74.29l.59 1.031-.59-1.032zm.018-.011l.59 1.031-.59-1.031zm-2.688-5.336l1.141-.333-1.14.333zm.71.278l.57 1.044-.57-1.044zm.35-.892l1.059-.538-1.06.538zM74.447.902l-1.126.379 1.126-.379zM73.76.248l.277 1.156L73.76.248zm-.258.099l-.53-1.063.53 1.063zm-.427.294l-.711-.952.711.952zm-.447.867l.894-.783-.894.783zm.275.354l1.014-.62-1.014.62zm1.523 3.243l-1.123.39 1.123-.39zm.652.204l.927.743-.927-.743zm.026-.034l-.97-.688.97.688zm.423 4.682l-.395 1.12.395-1.12zm.001 0l-.395 1.12.922-2.185-.527 1.065zm-.735.192l-.002-1.188.002 1.188zm-.001.117l-.128-1.181.128 1.181zm.242-.026l.128 1.181-.148-2.37.02 1.19zm-1.15 2.492l-.89-.789 1.717 1.642-.827-.854zm1.977-1.59l.59 1.032-.59-1.032zm-.12.613l.94.727-.94-.727zm-1.277 1.91l1.047.562-1.047-.562zm1.03-1.348l-1.053-.55 1.054.55zm.026.124l-1.073-.51 1.073.51zm.05-.087l-1.133-.36 1.132.36zm.265-.711l-1.016-.617 1.016.617zm.07-.067l.59 1.031-.59-1.031zm.534-.535l.59 1.032-.59-1.032zm.028-.016l-.59-1.031.59 1.031zm.489.043l.458-1.096-.459 1.097zm.203.152l-1.017.613 1.017-.613zm1.572 3.3l-1.123.39 1.123-.39zm.738.29l.59 1.032-.59-1.031zm.018-.01l.59 1.032-.59-1.032zm.18-.171l.95.712-.95-.712zm.311-1.13l-1.064.53 1.064-.53zm-1.214-3.145l1.126-.378-1.126.378zm-.688-.654L77.8 8.545l.277 1.155zm-.419.186l.586 1.035-.586-1.035zm-.117.094l-.856-.824.856.824zm-.367.295l-.631-1.007.63 1.007zm-.9-.055l-1.082.493 1.081-.493zm-.527-.499l-.813.867.813-.867zm-.495-.354l-.498 1.08.498-1.08zm-2.61-.973l-.334 1.14.333-1.14zm-.418.25l.73-.936-.73.936zm-.083 1.392l.263 1.16-.263-1.16zm-.157.038l.299 1.15-.299-1.15zm.002.536l-.151 1.178.151-1.178zm3.899-.184l.325 1.143-.325-1.143zm.117-.039l-.23-1.166.23 1.166zm.037-.003v1.188-1.188zm.338.18l.435-1.106-.435 1.106zm.07.03l.477-1.09-.476 1.09zm-.052.394l-.03-1.188.03 1.188zm-.366.059l.59 1.031-.59-1.031zm-.235.134l.59 1.032-.59-1.032zm-.2.09l-.402-1.118.402 1.119zm-2.085 1.322l-.776-.9.776.9zm-.033.357l-.152-1.178.152 1.178zm.758.838l-1.044-.568 1.044.568zm.252.162l-.815-.865.815.865zm1.523-2.339l1.114.412-1.114-.412zm-2.483-1.168l.264 1.158-.264-1.158zm1.729-.278l-.396 1.121.396-1.12zm-.114-.018l.017 1.188-.017-1.188zm.1.188l-.204-1.17.205 1.17zm1.56-.868l-1.14.332 1.14-.332zm-2.774-.293l-.488 1.084.488-1.084zm-.074.15l.396-1.12-.396 1.12zm1.354.86l-.395 1.12.395-1.12zm3.284 6.15l.001.003.001.002.001.003.001.002.001.002.001.003.001.002.001.002.001.002.001.003.001.002.001.002.001.002.001.002.001.003.001.002.001.002.001.002.001.002.001.002.001.002.001.003.001.002.001.002.001.002.001.002.001.002.001.002v.002a.039.039 0 00.003.004v.002l.002.002v.002a.039.039 0 00.002.004l.001.002.001.002.001.002.001.002v.002l.002.002v.002l.001.002.001.002.001.002.001.002.001.001v.002l.002.002v.002l.001.002.001.002.001.002v.001l.002.002v.002l.001.002.001.002.001.001v.002l.002.002v.002l.001.001v.002l.002.002v.002l.001.001.001.002v.002l.002.001v.002l.001.002v.001l.002.002v.002l.001.001v.002l.002.001v.002l.001.002v.001l.002.002v.003l.002.001v.002l.001.001v.002l.001.001.001.002v.001l.001.002.001.001v.002l.001.001.001.002v.001l.001.002.001.001v.001l.001.002v.001l.002.002v.002l.001.002.001.001v.001l.001.002v.001l.001.001.001.002.001.002v.001l.001.002.001.002.001.001v.002h.001v.002l.001.001v.001l.001.002.001.002.001.001v.001l.001.001v.002h.001v.002h.001v.002l.001.001v.001l.001.001v.002l.001.001v.001l.001.001v.001l.001.001v.001l.001.001v.001l.001.001v.002l.001.001.001.002.001.002v.001l.001.001v.001l.001.001v.002h.001v.002l.001.001.001.002v.001h.001v.002l.001.001v.002h.001v.002h.001v.002h.001v.002h.001v.003h.001v.001l.001.001v.001l.001.001v.002h.001v.002h.001v.002l.001.001v.001l.001.001v.002h.001v.002h.001v.001l1.081-.494 1.081-.493v-.003h-.001v-.002h-.001v-.002h-.001v-.002h-.001v-.002l-.001-.001v-.001l-.001-.001v-.002h-.001v-.002h-.001v-.002h-.001v-.003h-.001v-.001l-.001-.001v-.002h-.001v-.002l-.001-.001v-.002h-.001v-.001h-.001v-.002l-.001-.001v-.001l-.001-.002-.001-.001v-.002h-.001V15.6h-.001v-.002l-.001-.001v-.001l-.001-.001v-.002l-.001-.001v-.001l-.001-.001v-.001l-.001-.001v-.001l-.001-.001v-.001l-.001-.001v-.001l-.001-.001v-.001l-.001-.001v-.003h-.001v-.002h-.002v-.003l-.001-.001v-.001l-.001-.002-.001-.002v-.001l-.001-.001v-.002h-.001v-.002l-.001-.001-.001-.001v-.002h-.001v-.002l-.001-.002-.001-.002-.001-.001v-.002l-.001-.001v-.001l-.001-.002-.001-.001v-.001l-.001-.002-.001-.001v-.002h-.001v-.002l-.002-.002v-.003l-.002-.001v-.003l-.002-.001v-.003l-.002-.002v-.001l-.001-.002v-.001l-.001-.002-.001-.002v-.001l-.002-.002v-.003l-.002-.001v-.002l-.001-.002-.002-.002v-.001l-.001-.002v-.002l-.002-.001v-.002l-.001-.002v-.001l-.002-.002v-.002l-.001-.002-.001-.001v-.002l-.002-.002v-.001l-.001-.002-.001-.002v-.002l-.002-.002v-.001l-.001-.002-.001-.002v-.002l-.002-.002v-.001l-.001-.002-.001-.002-.001-.002-.001-.002v-.002l-.002-.002a.034.034 0 01-.001-.004l-.001-.001-.001-.002-.001-.002-.001-.002v-.002l-.002-.002v-.002l-.002-.002v-.002l-.001-.002-.001-.002-.001-.002-.001-.002-.001-.002-.001-.002-.001-.002-.001-.002v-.002l-.002-.002V15.4l-.002-.002v-.002l-.002-.002v-.002l-.002-.002v-.002l-.002-.002v-.003l-.002-.002v-.002l-.002-.002v-.002l-.002-.003v-.002l-.002-.002v-.002l-.002-.003v-.002l-.002-.002v-.002l-.002-.003v-.002l-.002-.002-.001-.002-2.162.987.001.002.001.002.001.003.001.002.001.002.001.003.001.002.001.002.001.002.001.003.001.002.001.002.001.002.001.002.001.003.001.002.001.002.001.002.001.002.001.002.001.002.001.003.001.002.001.002.001.002.001.002.001.002.001.002v.002a.039.039 0 00.003.004v.002l.002.002v.002a.039.039 0 00.002.004l.001.002.001.002.001.002.001.002v.002l.002.002v.002l.001.002.001.002.001.002.001.002.001.001v.002l.002.002v.002l.001.002.001.002.001.002v.001l.002.002v.002l.001.002.001.002.001.001v.002l.002.002v.002l.001.001v.002l.002.002v.002l.001.001.001.002v.002l.002.001v.002l.001.002v.001l.002.002v.002l.001.001v.002l.002.001v.002l.001.002v.001l.002.002v.003l.002.001v.002l.001.001v.002l.001.001.001.002v.001l.001.002.001.001v.002l.001.001.001.002v.001l.001.002.001.001v.001l.001.002v.001l.002.002v.002l.001.002.001.001v.001l.001.002v.001l.001.001.001.002.001.002v.001l.001.002.001.002.001.001v.002h.001v.002l.001.001v.001l.001.002.001.002.001.001v.001l.001.001v.002h.001v.002h.001v.002l.001.001v.001l.001.001v.002l.001.001v.001l.001.001v.001l.001.001v.001l.001.001v.001l.001.001v.002l.001.001.001.002.001.002v.001l.001.001v.001l.001.001v.002h.001v.002l.001.001.001.002v.001h.001v.002l.001.001v.002h.001v.002h.001v.002h.001v.002h.001v.003h.001v.001l.001.001v.001l.001.001v.002h.001v.002h.001v.002l.001.001v.001l.001.001v.002h.001v.002h.001v.001l1.081-.494 1.081-.493v-.003h-.001v-.002h-.001v-.002h-.001v-.002h-.001v-.002l-.001-.001v-.001l-.001-.001v-.002h-.001v-.002h-.001v-.002h-.001v-.003h-.001v-.001l-.001-.001v-.002h-.001v-.002l-.001-.001v-.002h-.001v-.001h-.001v-.002l-.001-.001v-.001l-.001-.002-.001-.001v-.002h-.001V15.6h-.001v-.002l-.001-.001v-.001l-.001-.001v-.002l-.001-.001v-.001l-.001-.001v-.001l-.001-.001v-.001l-.001-.001v-.001l-.001-.001v-.001l-.001-.001v-.001l-.001-.001v-.003h-.001v-.002h-.002v-.003l-.001-.001v-.001l-.001-.002-.001-.002v-.001l-.001-.001v-.002h-.001v-.002l-.001-.001-.001-.001v-.002h-.001v-.002l-.001-.002-.001-.002-.001-.001v-.002l-.001-.001v-.001l-.001-.002-.001-.001v-.001l-.001-.002-.001-.001v-.002h-.001v-.002l-.002-.002v-.003l-.002-.001v-.003l-.002-.001v-.003l-.002-.002v-.001l-.001-.002v-.001l-.001-.002-.001-.002v-.001l-.002-.002v-.003l-.002-.001v-.002l-.001-.002-.002-.002v-.001l-.001-.002v-.002l-.002-.001v-.002l-.001-.002v-.001l-.002-.002v-.002l-.001-.002-.001-.001v-.002l-.002-.002v-.001l-.001-.002-.001-.002v-.002l-.002-.002v-.001l-.001-.002-.001-.002v-.002l-.002-.002v-.001l-.001-.002-.001-.002-.001-.002-.001-.002v-.002l-.002-.002a.034.034 0 01-.001-.004l-.001-.001-.001-.002-.001-.002-.001-.002v-.002l-.002-.002v-.002l-.002-.002v-.002l-.001-.002-.001-.002-.001-.002-.001-.002-.001-.002-.001-.002-.001-.002-.001-.002v-.002l-.002-.002V15.4l-.002-.002v-.002l-.002-.002v-.002l-.002-.002v-.002l-.002-.002v-.003l-.002-.002v-.002l-.002-.002v-.002l-.002-.003v-.002l-.002-.002v-.002l-.002-.003v-.002l-.002-.002v-.002l-.002-.003v-.002l-.002-.002-.001-.002-2.162.987zm3.744 4.168c.301-.173.496-.422.606-.588a2.762 2.762 0 00.44-1.241 1.723 1.723 0 00-.153-.915l-2.133 1.047a.791.791 0 01-.078-.254.396.396 0 01-.003-.087c0-.01 0 .013-.017.058a.5.5 0 01-.032.07c0 .003-.002.004-.003.005a.008.008 0 010 .002v-.002l.006-.007a.717.717 0 01.187-.152l1.18 2.063zm.894-2.744c-.464-.944-.812-1.975-1.173-3.09l-2.262.73c.36 1.11.754 2.292 1.3 3.407l2.135-1.047zm-1.173-3.09c-.076-.236-.284-.831-.875-1.172l-1.188 2.058a.594.594 0 01-.21-.194c-.014-.024-.008-.02.011.039l2.262-.732zm-.875-1.172c-.692-.4-1.335-.217-1.702-.046l1 2.156c.025-.012-.033.02-.142.026a.66.66 0 01-.344-.078l1.188-2.058zm-1.702-.046c-.322.15-.58.376-.683.46l1.518 1.83c.076-.064.114-.095.15-.122.032-.023.034-.021.015-.012l-1-2.156zm-.683.46c-.085.07-.149.118-.258.203a2.82 2.82 0 00-.362.328 1.507 1.507 0 00-.393.851c-.046.442.122.795.285 1.023L80 14.931a.9.9 0 01.147.609.876.876 0 01-.205.49c-.024.027-.027.024.06-.045.062-.047.193-.146.313-.246l-1.52-1.828zm-.728 2.405c.1.139.218.272.262.325.063.074.073.091.073.09l2.047-1.207a3.017 3.017 0 00-.308-.422c-.093-.11-.116-.135-.142-.17l-1.932 1.384zm.335.415c.563.956.99 1.86 1.322 2.788l2.239-.8a18.429 18.429 0 00-1.514-3.195l-2.047 1.207zm1.322 2.788c.367 1.025 1.57 1.578 2.61.983l-1.18-2.063a.582.582 0 01.498-.03.537.537 0 01.31.31l-2.237.8zm-3.292-7.91v.003l.002.002v.003l.002.002v.002l.002.002.001.003.001.002.001.002.001.002.001.003.001.002.001.002.001.002.001.002.001.003.001.002.001.002.001.002.001.002.001.002.001.002v.002l.002.003v.002l.002.002v.002l.002.002v.002l.002.002v.002l.001.002.001.002.001.002.001.002.001.002.001.002v.002l.002.002v.002l.002.002v.002l.001.002.001.002.001.002.001.002v.001l.002.002v.002a.034.034 0 01.002.004l.001.002v.002l.002.001v.002l.001.002.001.002a106211321.228 106211321.228 0 01.003.005v.002l.001.002.001.002v.001l.002.002v.002l.001.001.001.002v.002l.002.002v.001l.001.002v.002l.002.001v.002l.001.001v.002l.002.002v.001l.001.002v.001l.001.002.001.002v.001l.002.002v.001l.001.002v.001l.001.002.001.001v.002l.002.001v.003l.001.002.001.001v.002l.001.001.001.001v.002l.001.001.001.002v.001l.001.001v.002l.002.001v.002l.001.002.001.002.001.002v.001l.001.002v.001l.002.001v.002l.001.002v.001l.001.002.001.002.001.001v.001l.001.002.001.002.001.002v.001l.001.001v.001l.001.002.001.002.001.002v.001l.001.001v.001l.001.001v.001l.001.001v.001l.001.001v.002l.001.001v.001l.001.001v.001h.001v.002l.001.002.001.001v.002l.001.001.001.002v.001l.001.001v.001h.001v.002l.001.001v.002h.001v.001l.001.002v.001h.001v.002h.001v.002l.001.001v.002h.001v.001l.001.002v.001h.001v.002l.001.001v.001l.001.001v.001l.001.001v.002h.001v.002h.001v.002h.001v.002h.001l1.081-.493 1.081-.493v-.002h-.001v-.002h-.001v-.002l-.001-.001v-.001l-.001-.001v-.001l-.001-.001v-.002h-.001v-.002l-.001-.001V10.9l-.001-.001v-.001l-.001-.001v-.002h-.001v-.001l-.001-.002v-.002h-.001v-.001l-.001-.001v-.001l-.001-.002v-.001h-.001v-.002h-.001v-.002h-.001v-.002l-.001-.001v-.001l-.001-.001v-.001l-.001-.002-.001-.002v-.001l-.001-.001v-.001l-.001-.001v-.001l-.001-.001v-.001l-.001-.001v-.002l-.001-.001v-.001l-.001-.001v-.001l-.001-.001v-.001l-.001-.002-.001-.002-.001-.002v-.001l-.001-.001v-.001l-.001-.001v-.002h-.001v-.002l-.001-.001a.01.01 0 01-.001-.002l-.001-.002-.001-.002v-.001l-.001-.002-.001-.002-.001-.001v-.002h-.001v-.002l-.001-.002h-.001v-.002l-.001-.002-.001-.002-.001-.002-.001-.002v-.002l-.002-.001v-.002l-.002-.002v-.003l-.001-.002-.001-.001v-.002l-.002-.001v-.003l-.002-.002v-.003l-.002-.001v-.002l-.001-.001v-.002l-.001-.001-.001-.002v-.002l-.002-.001v-.002l-.001-.001v-.002l-.002-.002v-.001l-.001-.002v-.002l-.002-.001v-.002l-.001-.002v-.001l-.002-.002v-.002l-.001-.001-.001-.002v-.002l-.002-.002v-.001l-.001-.002-.001-.002v-.002c-.001 0-.002 0-.002-.002v-.001l-.001-.002-.001-.002-.001-.002v-.002l-.002-.001v-.002l-.001-.002-.001-.002-.001-.002-.001-.002v-.002l-.002-.002v-.002l-.002-.002v-.001l-.001-.002-.001-.002-.001-.002-.001-.002a.039.039 0 00-.002-.004v-.002l-.002-.002v-.002l-.001-.002-.001-.002-.001-.002-.001-.002-.001-.002-.001-.003-.001-.002-.001-.002-.001-.002-.001-.002-.001-.002v-.002l-.002-.002v-.002l-.002-.003v-.002l-.002-.002v-.002l-.002-.002v-.003l-.002-.002v-.002l-.002-.002v-.002l-.002-.003-.001-.002-.001-.002-.001-.002-.001-.003-.001-.002-.001-.002-.001-.003-2.162.988v.002l.002.002v.003l.002.002v.002l.002.002.001.003.001.002.001.002.001.002.001.003.001.002.001.002.001.002.001.002.001.003.001.002.001.002.001.002.001.002.001.002.001.002v.002l.002.003v.002l.002.002v.002l.002.002v.002l.002.002v.002l.001.002.001.002.001.002.001.002.001.002.001.002v.002l.002.002v.002l.002.002v.002l.001.002.001.002.001.002.001.002v.001l.002.002v.002a.034.034 0 01.002.004l.001.002v.002l.002.001v.002l.001.002.001.002a106211321.228 106211321.228 0 01.003.005v.002l.001.002.001.002v.001l.002.002v.002l.001.001.001.002v.002l.002.002v.001l.001.002v.002l.002.001v.002l.001.001v.002l.002.002v.001l.001.002v.001l.001.002.001.002v.001l.002.002v.001l.001.002v.001l.001.002.001.001v.002l.002.001v.003l.001.002.001.001v.002l.001.001.001.001v.002l.001.001.001.002v.001l.001.001v.002l.002.001v.002l.001.002.001.002.001.002v.001l.001.002v.001l.002.001v.002l.001.002v.001l.001.002.001.002.001.001v.001l.001.002.001.002.001.002v.001l.001.001v.001l.001.002.001.002.001.002v.001l.001.001v.001l.001.001v.001l.001.001v.001l.001.001v.002l.001.001v.001l.001.001v.001h.001v.002l.001.002.001.001v.002l.001.001.001.002v.001l.001.001v.001h.001v.002l.001.001v.002h.001v.001l.001.002v.001h.001v.002h.001v.002l.001.001v.002h.001v.001l.001.002v.001h.001v.002l.001.001v.001l.001.001v.001l.001.001v.002h.001v.002h.001v.002h.001v.002h.001l1.081-.493 1.081-.493v-.002h-.001v-.002h-.001v-.002l-.001-.001v-.001l-.001-.001v-.001l-.001-.001v-.002h-.001v-.002l-.001-.001V10.9l-.001-.001v-.001l-.001-.001v-.002h-.001v-.001l-.001-.002v-.002h-.001v-.001l-.001-.001v-.001l-.001-.002v-.001h-.001v-.002h-.001v-.002h-.001v-.002l-.001-.001v-.001l-.001-.001v-.001l-.001-.002-.001-.002v-.001l-.001-.001v-.001l-.001-.001v-.001l-.001-.001v-.001l-.001-.001v-.002l-.001-.001v-.001l-.001-.001v-.001l-.001-.001v-.001l-.001-.002-.001-.002-.001-.002v-.001l-.001-.001v-.001l-.001-.001v-.002h-.001v-.002l-.001-.001a.01.01 0 01-.001-.002l-.001-.002-.001-.002v-.001l-.001-.002-.001-.002-.001-.001v-.002h-.001v-.002l-.001-.002h-.001v-.002l-.001-.002-.001-.002-.001-.002-.001-.002v-.002l-.002-.001v-.002l-.002-.002v-.003l-.001-.002-.001-.001v-.002l-.002-.001v-.003l-.002-.002v-.003l-.002-.001v-.002l-.001-.001v-.002l-.001-.001-.001-.002v-.002l-.002-.001v-.002l-.001-.001v-.002l-.002-.002v-.001l-.001-.002v-.002l-.002-.001v-.002l-.001-.002v-.001l-.002-.002v-.002l-.001-.001-.001-.002v-.002l-.002-.002v-.001l-.001-.002-.001-.002v-.002c-.001 0-.002 0-.002-.002v-.001l-.001-.002-.001-.002-.001-.002v-.002l-.002-.001v-.002l-.001-.002-.001-.002-.001-.002-.001-.002v-.002l-.002-.002v-.002l-.002-.002v-.001l-.001-.002-.001-.002-.001-.002-.001-.002a.039.039 0 00-.002-.004v-.002l-.002-.002v-.002l-.001-.002-.001-.002-.001-.002-.001-.002-.001-.002-.001-.003-.001-.002-.001-.002-.001-.002-.001-.002-.001-.002v-.002l-.002-.002v-.002l-.002-.003v-.002l-.002-.002v-.002l-.002-.002v-.003l-.002-.002v-.002l-.002-.002v-.002l-.002-.003-.001-.002-.001-.002-.001-.002-.001-.003-.001-.002-.001-.002-.001-.003-2.162.988zm1.51-2.472c-.156-.537-.453-1.148-.722-1.678-.293-.576-.568-1.088-.785-1.563l-2.162.988c.244.533.571 1.146.827 1.65.278.549.474.973.56 1.266l2.282-.663zm-3.669-2.253l1.578 3.453 2.162-.987-1.578-3.454-2.162.988zm4.187 3.732a3.31 3.31 0 00.477-.88c.111-.324.239-.905-.053-1.491l-2.128 1.059a.629.629 0 01-.07-.297c.002-.051.012-.069.004-.047a.651.651 0 01-.048.1 1.09 1.09 0 01-.085.131l1.903 1.425zm.424-2.371c-.412-.827-.756-1.818-1.152-2.995l-2.253.758c.388 1.153.781 2.3 1.277 3.296l2.128-1.06zm-1.152-2.995a2.653 2.653 0 00-.488-.893c-.292-.334-.854-.717-1.603-.538l.554 2.312a.813.813 0 01-.496-.042.666.666 0 01-.246-.169c-.026-.03-.028-.041-.016-.016a.823.823 0 01.042.104l2.253-.758zm-2.091-1.43c-.209.05-.385.128-.511.19l1.061 2.128a.609.609 0 01.023-.011l.01-.005a.1.1 0 01-.029.009l-.554-2.312zm-.511.19c-.296.148-.534.351-.652.45l1.519 1.828c.07-.058.112-.092.15-.12.035-.026.048-.032.044-.03l-1.06-2.127zm-.652.45c-.086.071-.15.118-.261.205a2.752 2.752 0 00-.371.338 1.495 1.495 0 00-.385.89A1.5 1.5 0 0073.78 6.9l1.895-1.434c.044.058.18.266.159.585a.888.888 0 01-.205.523c-.028.03-.034.03.054-.04.06-.046.194-.148.315-.248l-1.519-1.828zm-.7 2.442a3.678 3.678 0 00.198.239l.045.052a.534.534 0 01.064.079l2.036-1.227a2.943 2.943 0 00-.3-.404c-.093-.109-.116-.132-.147-.173L73.78 6.901zm.308.37c.529.878 1.01 1.908 1.364 2.917l2.243-.786a18.488 18.488 0 00-1.572-3.358L74.087 7.27zm1.364 2.917c.339.968 1.476 1.486 2.45.928l-1.18-2.063a.69.69 0 01.593-.039.657.657 0 01.38.388l-2.243.786zm2.45.928l.01-.005.009-.006-1.18-2.063-.009.005-.01.006 1.18 2.063zm.019-.01c.272-.156.456-.379.54-.491l-1.9-1.425a.571.571 0 01.079-.078.804.804 0 01.103-.07l1.18 2.063zm-2.065-6.483a1.73 1.73 0 01-.072-.218l-2.282.666c.038.13.098.332.192.54l2.162-.988zm-.072-.218c-.156-.536-.453-1.146-.722-1.676-.291-.575-.566-1.085-.783-1.56l-2.162.987c.244.534.57 1.145.826 1.649.278.548.474.972.56 1.266l2.281-.666zm-3.667-2.249l1.577 3.454 2.162-.987-1.577-3.454-2.162.987zM75.92 6.06c.417-.228.712-.6.87-.98.157-.373.252-.939-.03-1.494l-2.12 1.076a.604.604 0 01-.042-.499.383.383 0 01.185-.19L75.92 6.06zm.84-2.474c-.426-.838-.779-1.852-1.186-3.063l-2.253.758c.398 1.184.802 2.363 1.32 3.381l2.119-1.076zM75.575.523a2.654 2.654 0 00-.489-.893c-.291-.334-.854-.717-1.602-.538l.554 2.312a.813.813 0 01-.497-.042.665.665 0 01-.245-.169c-.027-.03-.029-.042-.016-.017a.794.794 0 01.042.105l2.253-.758zm-2.091-1.43c-.209.05-.385.128-.511.19l1.06 2.127a.69.69 0 01.034-.015.103.103 0 01-.03.009l-.553-2.312zm-.511.19c-.279.14-.549.362-.608.406l1.423 1.904.114-.087.08-.06.052-.036-1.061-2.126zm-.608.406c-.065.049-.125.085-.24.156-.068.043-.29.174-.47.365a1.4 1.4 0 00-.368 1.221c.074.405.308.7.448.86L73.523.726C73.5.7 73.51.707 73.53.74c.02.034.069.125.094.265a.99.99 0 01-.238.832c-.049.052-.085.076-.078.071l.07-.045c.079-.048.242-.147.409-.271L72.365-.311zm-.63 2.603c.106.12.137.16.155.19l2.028-1.24a3.741 3.741 0 00-.395-.517l-1.787 1.567zm.155.19c.55.9 1.052 1.97 1.414 3.013l2.245-.78a18.458 18.458 0 00-1.63-3.472l-2.03 1.238zm1.414 3.013c.16.46.521.858 1.008 1.034.551.2 1.243.087 1.694-.477l-1.855-1.485a.87.87 0 01.466-.295.864.864 0 01.504.022.69.69 0 01.428.421l-2.245.78zm2.702.557c.023-.028.046-.058.068-.09l-1.939-1.375a.519.519 0 01.016-.02l1.855 1.485zm.068-.09l.03-.04c.005-.008.004-.006-.002 0a.766.766 0 01-.18.137l-1.138-2.086c-.381.208-.61.559-.649.614l1.939 1.376zm-.153 2.903a8.166 8.166 0 01-.796-.149c-.285-.063-.626-.139-1.021-.187l-.288 2.359c.266.033.503.084.796.149.285.063.627.14 1.021.187l.288-2.359zm-2.105 2.023c.758.093.981.071 1.566.277l.79-2.24c-.902-.32-1.504-.327-2.068-.396l-.288 2.359zm2.357-1.964l-.25-.088-.79 2.242.249.087.79-2.24zm-.25-.088a104.685 104.685 0 01-.145-.051l-.005-.002.003.001.01.004.024.01a1.551 1.551 0 01.079.034c.051.026.478.42.66.913-.313.973-1.348 1.333-1.428 1.318a2.038 2.038 0 01-.099-.025l-.018-.006-.012-.004-.007-.002-.001-.001.005.002.028.01.117.04.79-2.24-.118-.042-.03-.011-.01-.004c-.002 0-.004 0-.006-.002a1.476 1.476 0 00-.02-.006l-.019-.006a2.528 2.528 0 00-.098-.026c-.08-.014-1.115.346-1.43 1.319.184.492.61.886.662.913l.058.026.02.009.025.009.01.004a1.439 1.439 0 01.017.005l.03.011.118.042.79-2.242zm.133.056c-.642-.318-1.231-.52-1.707-.688l-.792 2.241c.5.177.953.334 1.445.577l1.054-2.13zm-1.541-.801c-.59-.266-1.188-.476-1.731-.668l-.791 2.242c.558.197 1.062.375 1.546.593l.976-2.167zm-2.522 1.574c.92.324 1.916.817 3.28 1.456l1.008-2.153c-1.28-.599-2.433-1.17-3.497-1.545l-.791 2.242zm3.389 1.5h.001l.002.001h.001l.002.002h.002l.002.001h.003l.001.001h.001l.002.001h.001l.001.001h.002l.001.001h.002l.001.001h.001l.002.001h.001l.001.001h.002l.001.001h.001l.002.001.002.001h.003l.001.001h.001l.002.001.002.001h.001l.002.001h.002l.001.001h.001l.002.001h.001l.001.001h.003v.001h.002l.001.001h.001l.001.001h.002l.002.001h.001l.001.001h.003v.001h.002v.001h.003l.001.001h.002l.001.001a.016.016 0 01.003.001h.002v.001h.002a.013.013 0 01.003.002h.002l.002.001h.002v.001h.002l.002.001h.002v.001h.002l.001.001h.002l.001.001h.002v.001h.002l.001.001h.003l.001.001h.002v.001h.002l.001.001h.002l.001.001h.001l.002.001h.002v.001h.003v.001h.002l.002.001h.001l.001.001h.003v.001h.002v.001h.003l.001.001h.001l.001.001h.002l.001.001h.002l.001.001h.002l.001.001h.002v.001h.003v.001h.003v.001h.003v.001h.002l.001.001h.002v.001h.003v.001h.003v.001l.396-1.12.396-1.121h-.002v-.001h-.002l-.001-.001a5652650.499 5652650.499 0 01-.002 0l-.001-.001h-.002v-.001a6593683.72 6593683.72 0 01-.002 0h-.001v-.001h-.003v-.001h-.003v-.001h-.002l-.001-.001h-.002V8.98h-.003l-.001-.001h-.002l-.001-.001h-.001l-.001-.001h-.002l-.002-.001h-.002v-.001h-.002v-.001h-.003l-.001-.001h-.001l-.002-.001h-.001l-.002-.001h-.001l-.002-.001H76.3l-.001-.001h-.003v-.001h-.002l-.001-.001h-.002v-.001h-.002l-.001-.001h-.002a.032.032 0 01-.002-.001h-.002v-.001a.012.012 0 01-.002 0l-.002-.001h-.001l-.001-.001h-.002l-.001-.001h-.001l-.001-.001h-.002l-.001-.001h-.002l-.001-.001h-.002l-.001-.001h-.003v-.001h-.002v-.001h-.002l-.002-.001h-.001l-.001-.001h-.002l-.001-.001h-.002V8.95h-.003l-.001-.001a.057.057 0 01-.004-.001l-.002-.001h-.001l-.001-.001h-.003v-.001h-.002l-.001-.001h-.001l-.002-.001h-.002l-.001-.001h-.002V8.94h-.002l-.001-.001h-.002l-.001-.001h-.002l-.002-.001h-.001l-.001-.001h-.002l-.001-.001h-.001l-.002-.001h-.001l-.001-.001h-.002l-.001-.001h-.001l-.002-.001h-.003V8.93h-.002l-.002-.001h-.001l-.001-.001h-.002l-.001-.001h-.002l-.001-.001h-.002v-.001h-.002l-.002-.001h-.001l-.791 2.24h.001l.002.001h.001l.002.002h.002l.002.001h.003l.001.001h.001l.002.001h.001l.001.001h.002l.001.001h.002l.001.001h.001l.002.001h.001l.001.001h.002l.001.001h.001l.002.001.002.001h.003l.001.001h.001l.002.001.002.001h.001l.002.001h.002l.001.001h.001l.002.001h.001l.001.001h.003v.001h.002l.001.001h.001l.001.001h.002l.002.001h.001l.001.001h.003v.001h.002v.001h.003l.001.001h.002l.001.001a.016.016 0 01.003.001h.002v.001h.002a.013.013 0 01.003.002h.002l.002.001h.002v.001h.002l.002.001h.002v.001h.002l.001.001h.002l.001.001h.002v.001h.002l.001.001h.003l.001.001h.002v.001h.002l.001.001h.002l.001.001h.001l.002.001h.002v.001h.003v.001h.002l.002.001h.001l.001.001h.003v.001h.002v.001h.003l.001.001h.001l.001.001h.002l.001.001h.002l.001.001h.002l.001.001h.002v.001h.003v.001h.003v.001h.003v.001h.002l.001.001h.002v.001h.003v.001h.003v.001l.396-1.12.396-1.121h-.002v-.001h-.002l-.001-.001a5652650.499 5652650.499 0 01-.002 0l-.001-.001h-.002v-.001a6593683.72 6593683.72 0 01-.002 0h-.001v-.001h-.003v-.001h-.003v-.001h-.002l-.001-.001h-.002V8.98h-.003l-.001-.001h-.002l-.001-.001h-.001l-.001-.001h-.002l-.002-.001h-.002v-.001h-.002v-.001h-.003l-.001-.001h-.001l-.002-.001h-.001l-.002-.001h-.001l-.002-.001H76.3l-.001-.001h-.003v-.001h-.002l-.001-.001h-.002v-.001h-.002l-.001-.001h-.002a.032.032 0 01-.002-.001h-.002v-.001a.012.012 0 01-.002 0l-.002-.001h-.001l-.001-.001h-.002l-.001-.001h-.001l-.001-.001h-.002l-.001-.001h-.002l-.001-.001h-.002l-.001-.001h-.003v-.001h-.002v-.001h-.002l-.002-.001h-.001l-.001-.001h-.002l-.001-.001h-.002V8.95h-.003l-.001-.001a.057.057 0 01-.004-.001l-.002-.001h-.001l-.001-.001h-.003v-.001h-.002l-.001-.001h-.001l-.002-.001h-.002l-.001-.001h-.002V8.94h-.002l-.001-.001h-.002l-.001-.001h-.002l-.002-.001h-.001l-.001-.001h-.002l-.001-.001h-.001l-.002-.001h-.001l-.001-.001h-.002l-.001-.001h-.001l-.002-.001h-.003V8.93h-.002l-.002-.001h-.001l-.001-.001h-.002l-.001-.001h-.002l-.001-.001h-.002v-.001h-.002l-.002-.001h-.001l-.791 2.24zm.32-2.102l-.052-.018-.79 2.241.052.019.79-2.242zm-.578-.105l-.332.003.005 2.377.36-.003-.033-2.377zm-.332.003c-.135 0-.25.004-.343.011a2.08 2.08 0 00-.155.017 1.345 1.345 0 00-.349.103 1.192 1.192 0 00-.642.756 1.19 1.19 0 00.627 1.393c.148.072.277.095.304.1a1.714 1.714 0 00.341.02c.092-.004.207-.012.34-.027l-.257-2.363a3.62 3.62 0 01-.172.015h.035c.007.001.069.003.149.018.024.005.15.027.297.098a1.185 1.185 0 01.624 1.39 1.187 1.187 0 01-.83.823c-.06.016-.106.023-.114.024-.028.005-.04.005-.025.004.024-.002.081-.005.175-.005l-.005-2.377zm-.134.01a2.052 2.052 0 00-.467.102 1.368 1.368 0 00-.358.19 1.216 1.216 0 00-.49 1.039c.036.679.565.966.682 1.023.175.085.334.112.412.123.176.023.347.015.484 0l-.256-2.363c-.038.004.002-.005.09.007.034.005.16.023.313.097.094.046.612.32.648.985a1.16 1.16 0 01-.461.994c-.123.091-.23.131-.262.142-.077.028-.114.028-.078.024l-.257-2.363zm.263 2.477l.242-.027-.257-2.362-.241.026.256 2.363zm.094-2.396a8.418 8.418 0 00-1.754.232l.53 2.317a6.1 6.1 0 011.263-.173l-.039-2.376zm-1.289 2.655a.982.982 0 01-.42-.03c-.145-.042-.78-.286-.827-1.042-.04-.655.432-.98.515-1.033.155-.1.29-.131.35-.142l.41 2.341c.14-.024.334-.077.527-.202.121-.078.612-.43.57-1.11-.048-.78-.704-1.044-.89-1.097a1.397 1.397 0 00-.6-.033l.365 2.348zm.028.095c.564-.1 1.128-.198 1.693-.297l-.41-2.34-1.692.295.41 2.341zm1.602-1.51c-.31.178-.572.435-.689.543a2.112 2.112 0 01-.383.3l1.18 2.062c.368-.21.634-.449.812-.613.098-.09.148-.137.202-.183.048-.04.063-.048.057-.045l-1.18-2.064zm.108 2.905c.31-.177.572-.435.689-.542.15-.14.256-.227.382-.3l-1.18-2.063a4.36 4.36 0 00-.811.614c-.099.09-.148.137-.203.183-.047.04-.062.048-.057.045l1.18 2.063zm-.108-2.905c-.34.194-.68.466-.928.66-.288.226-.482.376-.638.465l1.18 2.063c.338-.193.68-.465.927-.66.288-.226.482-.375.638-.464l-1.18-2.064zm-.387 3.188c.351-.2.656-.455.867-.63.242-.199.39-.318.535-.4l-1.18-2.063c-.351.2-.656.455-.867.63-.242.199-.39.318-.534.4l1.18 2.063zm.222-3.093c-.643.367-1.433.812-2.133 1.491l1.654 1.707c.453-.44.982-.748 1.659-1.135l-1.18-2.063zm-.417 3.133c.255-.288.716-.567 1.432-.976l-1.18-2.063c-.604.345-1.462.82-2.03 1.462l1.778 1.577zm.252-3.04l-.99.567-.989.565 1.18 2.064.99-.566.989-.566-1.18-2.063zm-.8 3.196c.4-.229.81-.532 1.16-.786a12.06 12.06 0 011.066-.716l-1.18-2.063c-.475.272-.915.59-1.282.856-.392.284-.682.496-.943.645l1.18 2.064zm2.226-1.502c-.13.074-.38.171-.7.112a1.11 1.11 0 01-.805-.63c-.325-.71.169-1.226.409-1.364l1.18 2.064c.404-.232.939-.886.573-1.687a1.268 1.268 0 00-.924-.72c-.378-.07-.7.04-.912.162l1.18 2.063zm-1.013-1.7c-.244.14-.46.327-.635.553l1.878 1.456a.217.217 0 01-.064.054l-1.18-2.063zm-.635.553c-.627.808-1.127 1.562-1.48 2.257l2.118 1.077c.263-.518.67-1.142 1.24-1.879l-1.879-1.455zm.638 3.334l.07-.134-2.094-1.124c-.033.06-.064.12-.095.18l2.12 1.078zm.07-.134c.02-.036.005 0-.05.063-.02.022-.107.123-.26.213-.087.051-.697.382-1.304-.084a1.171 1.171 0 01-.458-.927.984.984 0 01.033-.25c.017-.065.032-.086.015-.053l2.12 1.078c.057-.115.119-.254.16-.404a1.46 1.46 0 00.05-.352 1.205 1.205 0 00-.472-.977c-.618-.474-1.243-.142-1.349-.08a1.334 1.334 0 00-.329.276 2.056 2.056 0 00-.25.373l2.094 1.124zm.095.04c.144-.283.328-.595.538-.95.201-.339.428-.72.613-1.084l-2.119-1.077c-.143.282-.328.594-.538.95-.2.338-.427.72-.613 1.083l2.12 1.078zm-.968-3.111c-.187.367-.328.712-.434.96-.118.278-.181.409-.234.488l1.977 1.318c.194-.29.336-.621.444-.874.12-.281.224-.537.366-.815l-2.119-1.077zm1.31 2.766c.192-.289.403-.677.6-1.055l-2.107-1.1c-.197.379-.357.665-.471.837l1.977 1.318zm.6-1.055a1.101 1.101 0 01-.205.275 1.175 1.175 0 01-1.97-.603.965.965 0 01.074-.608l2.146 1.02c.122-.256.171-.566.114-.862a1.243 1.243 0 00-.161-.416 1.201 1.201 0 00-1.868-.227c-.13.128-.203.257-.237.321l2.107 1.1zm-2.101-.937a1.512 1.512 0 00-.095.263 1.222 1.222 0 00.005.58 1.19 1.19 0 001.67.771c.222-.107.353-.26.36-.269.07-.076.116-.146.129-.166.066-.102.137-.241.186-.396l-2.265-.719a.71.71 0 01.087-.181.96.96 0 01.111-.143 1.187 1.187 0 011.989 1.208c-.016.042-.029.07-.03.073l-2.147-1.02zm2.255.783c.024-.073.046-.148.062-.202.017-.06.03-.104.044-.143a.61.61 0 01.043-.109l-2.032-1.233c-.231.382-.348.862-.382.968l2.265.72zm.15-.454a.995.995 0 01-.357.348l-1.18-2.063a1.38 1.38 0 00-.496.482l2.032 1.233zm-.357.348l.122-.07-1.18-2.063-.122.07 1.18 2.063zm.534-.534l.014-.008.014-.008-1.18-2.063a1.402 1.402 0 00-.013.007l-.015.008 1.18 2.064zm.028-.016a.84.84 0 01-.55.098c-.054-.009-.086-.021-.082-.02a2.5 2.5 0 01.072.03l.917-2.193c-.044-.018-.78-.411-1.537.022l1.18 2.063zm-.56.108a.556.556 0 01-.109-.06.96.96 0 01-.247-.272l2.036-1.227a1.5 1.5 0 00-.43-.45 1.822 1.822 0 00-.333-.184l-.917 2.193zm-.356-.332c.64 1.06 1.11 2.052 1.467 3.078l2.245-.78a18.526 18.526 0 00-1.676-3.525l-2.035 1.227zm1.467 3.078c.337.97 1.475 1.489 2.45.931l-1.18-2.063a.691.691 0 01.594-.038.658.658 0 01.381.39l-2.245.78zm2.45.931l.02-.01-1.18-2.064a4.09 4.09 0 00-.02.01l1.18 2.064zm.02-.01a1.85 1.85 0 00.54-.491l-1.903-1.425a.566.566 0 01.079-.078.803.803 0 01.103-.07l1.18 2.064zm.54-.491a3.31 3.31 0 00.477-.88c.112-.324.239-.905-.053-1.491l-2.128 1.06a.63.63 0 01-.07-.297c.002-.052.012-.07.004-.048a.652.652 0 01-.047.1 1.234 1.234 0 01-.086.131l1.903 1.425zm.424-2.371c-.411-.827-.756-1.818-1.152-2.994l-2.252.757c.387 1.153.78 2.3 1.276 3.296l2.128-1.059zm-1.152-2.994a2.652 2.652 0 00-.488-.894c-.292-.334-.854-.717-1.603-.537l.554 2.31a.812.812 0 01-.496-.04.666.666 0 01-.246-.17c-.026-.03-.028-.041-.015-.016a.82.82 0 01.042.104l2.252-.757zM77.8 8.545c-.32.077-.592.23-.727.307l1.17 2.069a1.9 1.9 0 01.126-.067c.025-.012.017-.006-.015.002L77.8 8.545zm-.727.307a1.71 1.71 0 00-.388.304l1.712 1.648a.679.679 0 01-.153.117l-1.17-2.07zm-.388.304a.704.704 0 01-.142.112l1.261 2.014c.172-.107.38-.257.593-.478l-1.712-1.648zm-.142.112a.759.759 0 01.184-.085l.01-.002-.012.001h-.02c-.022 0 .016-.003.096.023a.84.84 0 01.224.117c.1.072.236.2.33.404l-2.163.987c.229.501.672.686.86.748.227.075.448.096.615.098.175.003.356-.013.525-.046.144-.028.384-.088.612-.23l-1.261-2.015zm.811.458c-.157-.344-.417-.553-.502-.624-.125-.104-.184-.146-.292-.247l-1.626 1.733c.176.165.346.298.397.34.034.03.022.021-.002-.005a.805.805 0 01-.137-.21l2.162-.987zm-.794-.871a3.082 3.082 0 00-.81-.567l-.996 2.159c.017.008.07.038.18.141l1.626-1.733zm-.81-.567a21.675 21.675 0 00-2.775-1.035l-.667 2.281a19.31 19.31 0 012.446.912l.996-2.158zm-2.775-1.035c-.348-.102-.848-.138-1.296.082-.224.11-.739.46-.742 1.16-.003.611.405.97.555 1.086l1.463-1.873c.012.009.361.27.359.798-.003.619-.46.9-.586.962a.726.726 0 01-.299.081.382.382 0 01-.121-.015l.667-2.28zm-1.483 2.328a.658.658 0 01-.153-.165.33.33 0 01-.034-.069c-.003-.008.001.006 0 .026 0 .028-.006-.015.04-.102a.8.8 0 01.533-.394l.526 2.318a1.58 1.58 0 001.053-.836 2.15 2.15 0 00.225-.915 2.475 2.475 0 00-.124-.854 1.862 1.862 0 00-.603-.882L71.492 9.58zm.386-.704c-.064.015-.129.03-.193.047l.598 2.3.121-.029-.526-2.318zm-.193.047c-.576.15-1.16.659-1.157 1.44.003.837.669 1.342 1.307 1.424l.303-2.357a.852.852 0 01.487.249.963.963 0 01.28.675.882.882 0 01-.622.87l-.598-2.3zm.15 2.864c.703.09 1.567.096 2.335.055.75-.04 1.53-.129 2.04-.274l-.651-2.286c-.243.07-.805.15-1.514.187-.69.036-1.399.026-1.907-.04l-.303 2.358zm4.375-.22a1.49 1.49 0 00.107-.034l.028-.01a.186.186 0 00.008-.003l.004-.001-.006.002-.022.007a.92.92 0 01-.097.025l-.46-2.333c-.12.024-.216.06-.242.07a2.337 2.337 0 00-.018.007h-.001a.722.722 0 01.048-.015l.651 2.286zm.022-.014a.998.998 0 01-.193.018V9.195c-.102 0-.192.012-.266.026l.459 2.333zm-.193.018a.978.978 0 01-.502-.138l-.026-.017.026.019.074.054a1.722 1.722 0 00.33.18l.871-2.212c.096.038.156.08.161.084l-.007-.005-.054-.04a1.678 1.678 0 00-.282-.169 1.399 1.399 0 00-.59-.133l-.001 2.377zm-.098.097l.03.013.953-2.178a3.225 3.225 0 00-.112-.046l-.871 2.211zm.03.013a.966.966 0 01-.563-1 1.004 1.004 0 01.957-.882l.061 2.376a1.374 1.374 0 001.342-1.21 1.411 1.411 0 00-.844-1.462l-.953 2.178zm.394-1.882c-.01 0-.156.001-.283.015a1.64 1.64 0 00-.643.2l1.18 2.063a.84.84 0 01-.285.1h.007a2.283 2.283 0 01.085-.002L76.365 9.8zm-.926.215l-.235.134 1.18 2.064.235-.134-1.18-2.064zm-.235.134l.007-.003a.265.265 0 01-.019.007l.804 2.237c.114-.041.248-.097.388-.177l-1.18-2.063zm-.012.004c-.92.33-1.85 1.014-2.459 1.54l1.551 1.8c.537-.462 1.203-.92 1.712-1.103l-.804-2.237zm-2.459 1.54a1.651 1.651 0 00-.552.932c-.039.214-.067.707.327 1.12.397.418.897.413 1.119.384l-.303-2.357c.117-.015.548-.04.905.335.354.372.316.8.29.94a.733.733 0 01-.235.446l-1.55-1.8zm.894 2.436a.847.847 0 01-.324-.018.52.52 0 01-.11-.041c-.023-.012-.02-.014-.01-.005.013.015-.02-.013-.056-.1a.89.89 0 01.063-.745l2.089 1.135c.276-.51.162-1.006.055-1.274a2.1 2.1 0 00-.443-.667 2.366 2.366 0 00-.58-.441 1.664 1.664 0 00-.987-.201l.303 2.357zm-.437-.909a1.44 1.44 0 00-.176.824c.035.368.23.751.61.984.726.448 1.414.034 1.677-.212l-1.63-1.73a.994.994 0 011.2-.081c.323.2.481.523.509.813a.939.939 0 01-.101.537l-2.09-1.135zm2.11 1.596c.394-.37.77-.87 1.073-1.342.304-.474.583-.999.75-1.451l-2.23-.824a5.666 5.666 0 01-.52.992c-.248.386-.505.709-.702.894l1.63 1.73zm1.823-2.793c.014-.037.024-.05.02-.043a.361.361 0 01-.113.093l-1.18-2.064c-.547.314-.823.83-.956 1.19l2.23.824zm-3.862-2.739c-.501.115-1.104.639-.95 1.44.155.8.907 1.063 1.415.983L73.36 9.36c.433-.067 1.14.16 1.285.915.146.757-.427 1.23-.855 1.327l-.529-2.317zm2.39-.24a1.517 1.517 0 00-.527-.086l.034 2.377a.861.861 0 01-.299-.049l.791-2.241zm-.204 2.461c.133-.023.239-.066.257-.073a1.875 1.875 0 00.254-.122l-1.18-2.063.02-.011a.13.13 0 01.005-.003h.002l.008-.004.022-.01a.922.922 0 01.202-.055l.41 2.341zM75.66 9.8c.038.131.097.331.192.537l2.162-.987a1.654 1.654 0 01-.071-.213L75.66 9.8zm-2.266.529c.315.124.644.125.898.064.073-.017.197-.052.333-.128a1.205 1.205 0 00.303-1.878 1.277 1.277 0 00-.413-.295l-.976 2.167a1.1 1.1 0 01-.354-.257 1.172 1.172 0 01.286-1.815c.12-.067.224-.095.273-.106a.85.85 0 01.526.038l-.876 2.21zm.955-2.124a.68.68 0 01.232.138 1.169 1.169 0 01.353.58 1.184 1.184 0 01-1.358 1.457c-.101-.019-.17-.047-.181-.051l.875-2.21a1.223 1.223 0 00-.574-.091 1.195 1.195 0 00-.67 2.112 1.7 1.7 0 00.531.306l.792-2.24zm.563 3.1c.032.012.013.006-.012-.005a1.119 1.119 0 01-.334-.226 1.166 1.166 0 01-.207-1.389 1.142 1.142 0 01.42-.437l1.18 2.063c.036-.021.315-.17.491-.497a1.206 1.206 0 00-.217-1.434c-.181-.18-.38-.258-.404-.268-.058-.024-.116-.044-.126-.048l-.791 2.242z" fill="#fff" mask="url(#b)"/></svg>