<svg width="168" height="168" fill="none" xmlns="http://www.w3.org/2000/svg"><rect x=".5" y=".5" width="167" height="167" rx="4.5" fill="#fff" stroke="url(#paint0_linear)"/><path d="M66.398 97.055c-.18-.341-.36-.625-.48-.966-.841-1.932-.841-3.409-.54-5.284.24-1.363.18-2.045-.241-2.556-.48-.568-1.202-.625-2.223-.738h-.18c-.3-.057-.6-.057-.84-.057-2.343-.114-3.665-.057-4.265.795-.601.796-.18 1.988.66 3.693.42.852.6 1.704.721 2.329-1.021.057-2.222.511-3.664 1.08-2.943 1.135-6.968 2.726-11.893 1.306-5.827-1.648-10.692-6.022-13.335-8.408-1.261-1.136-1.802-1.647-2.223-1.76-.6-.171-1.381.226-1.802.453l-.24.114c-.3.227-.72.568-.9.966-.421 1.306-.481 3.75.54 6.476a3.76 3.76 0 00-.841-.284c-.6-.057-1.262.398-1.802.909l-.18.17c-.3.284-.661.739-.661 1.193-.12 2.102.961 5.397 3.544 8.465h-.06c-.6.113-1.141.795-1.502 1.42v.227c-.18.398-.36.909-.3 1.364.6 2.329 3.063 5.681 7.208 8.01 2.523 1.42 6.367 2.783 11.653 2.783 2.342 0 4.985-.284 7.868-.965 6.848-1.591 13.215-6.193 15.798-11.589 1.622-3.182 1.682-6.363.18-9.146zm-40.365-8.75s.06-.056.06-.113c.12.228.3.512.481.796 1.562 2.67 4.986 8.691 13.034 11.702-4.985-1.193-9.43-3.635-12.073-5.112-.18-.114-.36-.228-.54-.285-1.262-2.783-1.442-5.51-.962-6.987zM23.15 96.6s0-.114.12-.227c.18.17.48.511.781.795 2.523 2.67 8.47 8.976 19.342 9.601h1.02a15.32 15.32 0 003.244-.341c-.12.057-.3.057-.42.114-6.788 1.533-14.296-.171-18.32-1.08a14.817 14.817 0 00-1.622-.341c-3.064-3.011-4.265-6.533-4.145-8.521zm42.107 9.26c-2.463 5.056-8.47 9.487-15.017 10.964-16.698 3.806-24.507-5.34-25.468-9.089 0-.057 0-.114.06-.285.3.114.66.341 1.021.569 3.424 1.988 11.413 6.589 22.525 4.033 7.328-1.647 11.053-6.988 13.215-10.907.12-.228.06-.568-.24-.682-.24-.114-.601-.057-.721.227-2.042 3.693-5.646 8.806-12.554 10.396-10.692 2.443-18.38-2.045-21.684-3.92-.48-.284-.841-.511-1.141-.624.24-.341.48-.569.6-.569.3-.056 1.562.228 2.763.512 2.884.681 7.569 1.704 12.554 1.704 2.042 0 4.205-.17 6.247-.682 5.286-1.193 8.41-4.204 10.932-7.271a.52.52 0 00-.12-.739.592.592 0 00-.78.114c-.241.284-.541.625-.782.909-4.264 3.749-8.65 5.453-13.334 5.169-10.392-.568-16.158-6.646-18.621-9.26-.36-.397-.6-.624-.841-.852.3-.227.54-.34.66-.34.301.056 1.322.625 2.343 1.193 3.484 1.931 9.971 5.51 16.819 5.908h1.021c2.403 0 4.445-.455 6.247-1.193h.06c.06 0 .06-.057.12-.057 2.283-.909 4.085-2.159 5.647-3.181.54-.341 1.02-.682 1.441-.966.24-.17.3-.455.18-.682a.594.594 0 00-.72-.17c-.481.284-.962.625-1.502.966-1.562 1.022-3.364 2.272-5.646 3.124-2.944.852-5.827.909-8.59.114-9.13-2.557-12.854-9.09-14.476-11.873-.24-.398-.36-.682-.54-.91.3-.113.48-.17.6-.17.24.114 1.021.795 1.802 1.534 2.643 2.386 7.629 6.874 13.695 8.578a16.7 16.7 0 004.265.568c3.364 0 6.127-1.08 8.35-1.931 1.561-.625 2.883-1.136 3.784-.966h.18c.06 0 .06 0 .12-.057 0 0 .06 0 .06-.057.06 0 .06-.056.12-.056l.06-.057s.06-.057.06-.114 0-.057.06-.114v-.17c-.06-.682-.24-2.045-.84-3.295-.301-.625-1.082-2.215-.721-2.67.3-.454 1.922-.398 3.363-.34.24 0 .48 0 .721.056h.18c.781.057 1.322.17 1.502.341.18.227.18.795.06 1.761-.36 1.988-.36 3.693.6 5.851.12.341.301.682.481 1.023 1.322 2.784 1.262 5.624-.18 8.635z" fill="#333B41" stroke="#333B41" stroke-width=".7"/><path d="M63.696 104.894c-.24-.114-.6 0-.72.227-2.283 4.658-7.87 8.748-13.936 10.112a.524.524 0 00-.42.625c.06.227.3.397.54.397h.12c6.428-1.42 12.314-5.737 14.717-10.68.12-.227 0-.511-.3-.681zm25.93-56.886a15.019 15.019 0 00-8.984 2.633 15.114 15.114 0 00-5.7 7.451.842.842 0 01-.654.551 6.895 6.895 0 00-4.145 2.39 6.945 6.945 0 00.1 9.001 6.894 6.894 0 004.198 2.296.838.838 0 01.688.615 14.578 14.578 0 004.9 7.558 14.484 14.484 0 008.39 3.218 35.77 35.77 0 00-1.21 7.512l-5.06-.803a4.06 4.06 0 00-3.03.731 4.101 4.101 0 00-.9 5.71 4.07 4.07 0 002.657 1.636l6.873 1.09a35.69 35.69 0 00.73 3.174 9.275 9.275 0 00-2.431 6.264v1.446a.841.841 0 01-.838.842h-.502a4.524 4.524 0 00-4.186 2.805 4.563 4.563 0 00-.345 1.74v1.186a2.555 2.555 0 001.57 2.356c.31.128.64.194.973.193h32.203a30.615 30.615 0 0012.56-2.693 30.729 30.729 0 0010.365-7.614 31.723 31.723 0 008.734-16.864 21.45 21.45 0 00-4.178-15.596 21.605 21.605 0 00-10.267-7.263 13.728 13.728 0 00-8.573.206 13.783 13.783 0 00-6.79 5.257 4.253 4.253 0 00-.662 3.184 4.25 4.25 0 001.776 2.72 4.227 4.227 0 003.173.66 4.225 4.225 0 002.707-1.787 5.32 5.32 0 012.575-2.011 5.296 5.296 0 013.26-.124 13.14 13.14 0 016.096 4.338 12.941 12.941 0 012.515 9.16 23.229 23.229 0 01-6.525 12.287 22.236 22.236 0 01-12.413 7.216.229.229 0 01-.119-.007.242.242 0 01-.164-.286 32.159 32.159 0 00-1.213-18.821 28.065 28.065 0 00-5.708-10.212 27.934 27.934 0 00-9.366-6.98c.178-.468.331-.945.46-1.428a.84.84 0 01.689-.615 6.895 6.895 0 004.197-2.297 6.948 6.948 0 00.098-9.002 6.894 6.894 0 00-4.145-2.388.838.838 0 01-.654-.55 15.116 15.116 0 00-5.309-7.174 15.025 15.025 0 00-8.416-2.911zm-.944 1.106a13.911 13.911 0 018.328 2.44 14.003 14.003 0 015.283 6.908 1.944 1.944 0 001.511 1.275 5.791 5.791 0 013.48 2.006 5.832 5.832 0 01-.081 7.557 5.792 5.792 0 01-3.522 1.93 1.94 1.94 0 00-1.597 1.425 13.487 13.487 0 01-2.067 4.376 9.877 9.877 0 00-2.486-7.056.246.246 0 01.06-.348 7.22 7.22 0 001.15-9.682 7.168 7.168 0 00-4.378-2.84 7.147 7.147 0 00-5.138.889 1.43 1.43 0 01-1.48 0h-.015a7.147 7.147 0 00-5.134-.88 7.17 7.17 0 00-4.372 2.839 7.22 7.22 0 001.143 9.674.241.241 0 01.054.268.242.242 0 01-.054.08 9.869 9.869 0 00-2.359 4.946 13.495 13.495 0 01-.832-2.266 1.953 1.953 0 00-1.593-1.425 5.789 5.789 0 01-3.522-1.93 5.831 5.831 0 01-.081-7.557 5.791 5.791 0 013.48-2.006 1.94 1.94 0 001.507-1.275 14.007 14.007 0 014.918-6.649 13.92 13.92 0 017.797-2.7zm-4.867 8.956a6.049 6.049 0 013.34.87 2.533 2.533 0 002.62 0 6.045 6.045 0 014.341-.742 6.063 6.063 0 013.698 2.402 6.107 6.107 0 01-.97 8.183 1.353 1.353 0 00-.39 1.468c.059.17.15.326.27.46a8.777 8.777 0 011.965 7.914 13.405 13.405 0 01-4.965 3.195 13.362 13.362 0 01-11.454-1.098 13.434 13.434 0 01-4.274-4.08 8.764 8.764 0 012.216-5.931 1.353 1.353 0 00.198-1.507 1.354 1.354 0 00-.328-.421 6.112 6.112 0 01-1.786-6.64 6.087 6.087 0 012.13-2.895 6.05 6.05 0 013.387-1.181l.002.003zm44.245 12.026c1.27-.011 2.533.169 3.75.535a20.5 20.5 0 019.718 6.885 20.343 20.343 0 013.965 14.75 30.615 30.615 0 01-8.448 16.268 29.632 29.632 0 01-9.998 7.357 29.512 29.512 0 01-12.121 2.604H82.723a1.442 1.442 0 01-1.016-.421 1.444 1.444 0 01-.422-1.02v-1.186a3.446 3.446 0 011.004-2.43 3.428 3.428 0 012.422-1.006h.501a1.921 1.921 0 001.376-.57 1.948 1.948 0 00.57-1.38v-1.447A8.16 8.16 0 0189.6 103.4a8.095 8.095 0 015.668-2.318c2.118 0 4.153.832 5.668 2.318a8.165 8.165 0 012.441 5.635v2.476a.555.555 0 00.552.539.55.55 0 00.552-.539v-2.476a9.271 9.271 0 00-1.228-4.617 9.221 9.221 0 00-3.36-3.386 6.53 6.53 0 004.96-5.475 6.566 6.566 0 00-.165-2.599 32.74 32.74 0 00-2.438-6.34.553.553 0 10-.985.508 31.55 31.55 0 012.353 6.122 5.457 5.457 0 01-1.197 5.046 5.402 5.402 0 01-4.867 1.737l-16.5-2.62a2.965 2.965 0 01-1.928-1.194 2.988 2.988 0 01.654-4.152 2.958 2.958 0 012.201-.538l12.703 2.018a.551.551 0 00.627-.463.556.556 0 00-.456-.633l-6.543-1.04a34.71 34.71 0 011.254-7.675 14.476 14.476 0 007.528-2.37 14.557 14.557 0 005.181-5.97 26.817 26.817 0 018.991 6.715 26.959 26.959 0 015.474 9.817 31.055 31.055 0 011.181 18.202 1.361 1.361 0 00.34 1.254 1.352 1.352 0 001.234.388 23.35 23.35 0 0013.005-7.544 24.351 24.351 0 006.81-12.887 14.055 14.055 0 00-2.731-9.998 14.245 14.245 0 00-6.645-4.724 6.398 6.398 0 00-3.951.138 6.425 6.425 0 00-3.122 2.434 3.136 3.136 0 01-2.001 1.318 3.116 3.116 0 01-3.198-1.362 3.155 3.155 0 01.03-3.487 12.685 12.685 0 014.503-4.061 12.636 12.636 0 015.866-1.501zM88.914 99.781l3.299.523a9.195 9.195 0 00-2.816 1.6 34.782 34.782 0 01-.48-2.123h-.003z" fill="#333B41" stroke="#333B41" stroke-width=".7"/><path d="M93.068 61.63a2.34 2.34 0 00-1.64.713 2.358 2.358 0 00-.662 1.666c0 .624.247 1.222.687 1.664a2.34 2.34 0 003.316 0c.44-.442.686-1.04.686-1.664a2.362 2.362 0 00-.693-1.696 2.343 2.343 0 00-1.694-.682zm.02 1.123a1.235 1.235 0 011.17.77c.063.154.095.32.093.486a1.248 1.248 0 01-.765 1.15 1.237 1.237 0 01-1.715-1.15 1.247 1.247 0 01.35-.88c.228-.235.54-.37.866-.376v0zm-9.303-1.123a2.34 2.34 0 00-1.639.713 2.358 2.358 0 00-.663 1.666 2.361 2.361 0 00.662 1.706 2.342 2.342 0 002.594.528 2.342 2.342 0 001.271-1.314c.114-.293.168-.606.16-.92a2.36 2.36 0 00-.693-1.695 2.345 2.345 0 00-1.692-.683v0zm.02 1.123a1.232 1.232 0 011.167.77c.063.154.094.32.093.486a1.249 1.249 0 01-.757 1.177 1.235 1.235 0 01-1.635-.692 1.257 1.257 0 01-.085-.485 1.246 1.246 0 01.35-.88c.228-.235.54-.37.866-.376v0zm.693 13.073a4.865 4.865 0 003.97 2.065 4.845 4.845 0 003.97-2.065.557.557 0 00-.138-.767.55.55 0 00-.766.127 3.759 3.759 0 01-3.066 1.595 3.742 3.742 0 01-3.067-1.595.553.553 0 00-.903.64v0z" fill="#333B41" stroke="#333B41" stroke-width=".7"/><defs><linearGradient id="paint0_linear" x1="-7.443" y1="24.889" x2="195.1" y2="114.913" gradientUnits="userSpaceOnUse"><stop stop-color="#F9804B"/><stop offset="1" stop-color="#FE9013"/></linearGradient></defs></svg>