<svg width="168" height="168" fill="none" xmlns="http://www.w3.org/2000/svg"><rect x=".5" y=".5" width="167" height="167" rx="4.5" fill="#fff" stroke="url(#paint0_linear)"/><path d="M76.973 79.033a1.18 1.18 0 01-.16-.061c-15.27-5.736-22.378 4.967-22.4 4.998-.15.219-.37.392-.641.48l-18.13 5.855a4.57 4.57 0 00-2.413 1.807 4.586 4.586 0 00-.742 2.927l1.175 14.759c.027.331.126.629.288.878.164.251.396.462.688.62.296.158.6.237.897.235a1.86 1.86 0 00.892-.25v.002L54.72 101.13c.193-.11.417-.17.655-.162.045.002 15.84.612 21.734 1.719 5.23.983 7.45-.942 7.456-.947l.001.002a1.15 1.15 0 01.202-.137l17.679-9.63H77.878v-.003a1.22 1.22 0 01-.328-.045 2.789 2.789 0 01-1.861-1.649 3.079 3.079 0 01-.226-1.382c.032-.477.18-.949.439-1.356a2.53 2.53 0 011.796-1.169l15.882-4.964c.867-.27 1.408-1.01 1.572-1.819a2.61 2.61 0 00-.01-1.1 2.047 2.047 0 00-.45-.896c-.52-.592-1.493-.924-3.003-.654l-13.452 2.4v-.003c-.219.039-.45.019-.671-.07-.2-.08-.397-.157-.593-.232zm-.873-2.922V59.864c0-1.614.658-3.08 1.718-4.142A5.825 5.825 0 0181.951 54h50.198c1.611 0 3.073.66 4.133 1.722A5.853 5.853 0 01138 59.864v26.248c0 1.614-.658 3.08-1.718 4.142a5.826 5.826 0 01-4.133 1.722h-24.541l-21.56 11.742c-.581.438-3.66 2.477-9.393 1.4-5.239-.985-18.727-1.572-21.028-1.667l-18.013 9.997.001.002a4.306 4.306 0 01-2.07.55 4.307 4.307 0 01-2.075-.526 4.304 4.304 0 01-1.588-1.443 4.336 4.336 0 01-.684-2.039l-1.175-14.76a7.052 7.052 0 011.158-4.495 7.026 7.026 0 013.706-2.785l17.747-5.732c1.456-1.906 9.116-10.695 23.466-6.109zm31.193 13.386h24.856c.927 0 1.772-.382 2.385-.996a3.38 3.38 0 00.993-2.39V67.108H78.574v9.654l12.69-2.264c2.488-.444 4.235.264 5.282 1.459a4.529 4.529 0 011.001 1.98c.072.309.112.626.122.946h3.683a.62.62 0 010 1.24h-3.795a5.017 5.017 0 01-1.285 2.446.62.62 0 01-.48 1.01h-.968a4.706 4.706 0 01-.51.192l-15.975 4.993a1.254 1.254 0 01-.276.053c-.042.009-.07.028-.084.05a.42.42 0 00-.053.194.6.6 0 00.043.27.374.374 0 00.133.167h29.191zm15.705-12.04c.915 0 1.777.23 2.53.637.302-.163.626-.298.965-.401a5.322 5.322 0 015.338 1.332 5.346 5.346 0 011.565 3.785 5.348 5.348 0 01-1.565 3.786 5.32 5.32 0 01-5.338 1.333 5.363 5.363 0 01-.965-.401 5.31 5.31 0 01-2.53.637 5.32 5.32 0 01-3.777-1.569 5.342 5.342 0 01-1.565-3.785c0-1.479.598-2.817 1.565-3.786a5.318 5.318 0 013.777-1.568zm3.998 1.803a5.343 5.343 0 011.344 3.55 5.343 5.343 0 01-1.344 3.552c.329.097.683.15 1.058.15a3.696 3.696 0 003.693-3.701 3.694 3.694 0 00-1.082-2.618 3.676 3.676 0 00-2.611-1.084 3.73 3.73 0 00-1.058.15zm-1.386.933a3.678 3.678 0 00-2.612-1.084 3.695 3.695 0 00-3.693 3.701 3.695 3.695 0 003.693 3.702 3.695 3.695 0 003.693-3.701 3.694 3.694 0 00-1.081-2.618zm-27.006 3.385a.62.62 0 010-1.24h2.11a.619.619 0 010 1.24h-2.11zm23.99-10.532a.619.619 0 010-1.24h7.959a.619.619 0 010 1.24h-7.959zm-18.186 0a.62.62 0 010-1.24h11.493a.62.62 0 010 1.24h-11.493zm-23.43 0a.62.62 0 010-1.24h16.778a.619.619 0 010 1.24H80.98zm54.549-7.592V60.69H78.574v4.764h56.953zm-.103-6.416a3.397 3.397 0 00-.89-1.564 3.366 3.366 0 00-2.385-.995H81.951c-.927 0-1.772.381-2.384.995a3.4 3.4 0 00-.89 1.564h56.747z" fill="#333B41"/><defs><linearGradient id="paint0_linear" x1="-7.443" y1="24.889" x2="195.1" y2="114.913" gradientUnits="userSpaceOnUse"><stop stop-color="#F9804B"/><stop offset="1" stop-color="#FE9013"/></linearGradient></defs></svg>