<svg width="270" height="199" fill="none" xmlns="http://www.w3.org/2000/svg"><path d="M248.818 149.012c10.849-20.981 19.674-46.71 19.674-74.13 0-13.773-4.303-29.43-11.509-41.882-6.302-10.887-17.987-24.953-37.884-30.14-25.181-6.562-50.694-.442-71.194 4.476-7.408 1.777-14.406 3.456-20.4 4.286-13.442 1.86-27.644 1.587-39.852 1.116h-.008a1611 1611 0 01-5.578-.229c-7.713-.325-25.476-.637-25.476-.637-.97-4.121-3.18-7.497-5.938-9.056a7.484 7.484 0 00-3.734-.963 7.522 7.522 0 00-3.717 1.051c-3.795 2.048-5.614 6.598-4.754 11.735-6.08 3.12-12.019 9.332-15.62 14.217-3.094 4.193-5.716 10.814-8.254 17.218-2.583 6.521-5.254 13.264-7.927 15.987a11.22 11.22 0 00-1.721 2.262c-.009 0-.017-.005-.026-.007a3.449 3.449 0 00-1.692.02 3.819 3.819 0 00-1.541.832c-.46.403-.843.916-1.126 1.505a5.553 5.553 0 00-.52 1.92A5.763 5.763 0 00.2 70.596c.176.647.463 1.242.843 1.749.38.506.844.912 1.364 1.192.52.28 1.082.428 1.653.433a27.395 27.395 0 001.942 5.13c5.379 11.033 13.888 17.892 21.395 23.942 4.139 3.336 8.047 6.487 11.075 10.006a46.11 46.11 0 015.882 9.109c.018.042.042.078.062.119 3.073 6.128 5.511 13.605 5.967 20.746.575 9.022 1.937 33.382 2.365 41.076a12.986 12.986 0 00-4.102 2.539c-.92.828-1.594 1.983-1.926 3.298a7.66 7.66 0 00.078 4.018c.363 1.322 1.07 2.472 2.019 3.284.948.812 2.088 1.244 3.255 1.233h25.143c.81.001 1.61-.21 2.345-.617a5.776 5.776 0 001.906-1.74c5.56-7.879 19.43-28.184 28.208-46.606 33.98-.04 57.186-1.509 70.723-4.489 2.016 15.189 4.679 32.496 5.653 38.738a12.564 12.564 0 00-2.37 1.719c-1.006.925-1.744 2.201-2.11 3.649a8.569 8.569 0 00.066 4.431c.409 1.433 1.185 2.677 2.217 3.558 1.033.881 2.271 1.355 3.541 1.355h23.567c1.394-.001 2.745-.572 3.829-1.616 7.772-7.512 21.993-24.672 33.852-47.497.065-.11.124-.224.176-.343zM82.738 76.819c-7.601 18.982-20.982 34.337-35.236 40.6a49.663 49.663 0 00-5.693-8.443c-3.334-3.875-7.415-7.164-11.735-10.646-7.428-5.988-15.111-12.18-19.942-22.088-2.94-6.031-1.842-8.367-.38-9.855 3.451-3.516 6.216-10.495 9.143-17.884 2.395-6.047 4.872-12.3 7.521-15.89 3.206-4.348 8.907-10.36 14.424-12.997a4.04 4.04 0 001.427-1.169c3.016 5.253 10.2 4.478 12.002-.304.126-.344.22-.703.278-1.071 7.592 1.176 19.69.8 27.352 1.124 1.299.055 2.638.111 3.994.165 5.588 18.697 4.486 39.38-3.155 58.458zm146.517 52.117c-4.451-.986-26.544-4.967-45.074 7.973-.881-7.136-1.482-13.071-1.482-15.972 0-.754-.252-1.478-.699-2.011-.448-.534-1.055-.834-1.689-.834-.633 0-1.24.3-1.688.834-.448.533-.699 1.257-.699 2.011 0 3.369.721 10.311 1.744 18.456-11.561 2.574-30.626 4.006-57.953 4.346 5.44-3.936 9.778-9.586 12.946-16.935 4.412-10.228 6.362-23.553 5.639-38.536-.814-16.88-11.7-39.618-20.448-57.886-2.026-4.23-3.966-8.282-5.582-11.868 4.601-.224 9.227-.61 13.784-1.24 6.191-.857 13.283-2.559 20.791-4.363 20.062-4.813 45.03-10.803 69.231-4.495 33.25 8.67 45.64 45.37 45.64 66.466 0 24.281-7.241 47.227-16.584 66.506-2.743-4.888-8.459-10.365-17.877-12.452z" fill="#000"/><path d="M32.002 42.24c-9.61-4.426-15.2 8.001-9.084 15.299 3.345 3.988 6.524 13.23 13.79 12.464 11.546-1.215 10.483-20.778-4.706-27.764zm-4.354 12.023c-.57 0-1.127-.204-1.6-.587-.474-.382-.844-.925-1.062-1.561a4.155 4.155 0 01-.164-2.01 3.75 3.75 0 01.789-1.782c.403-.487.916-.818 1.475-.952a2.425 2.425 0 011.665.198c.526.263.976.71 1.293 1.281.317.572.486 1.245.486 1.933 0 .923-.304 1.808-.844 2.46-.54.653-1.273 1.02-2.038 1.02zm107.683 100.688a.66.66 0 00-.195-.352.492.492 0 00-.337-.134c-2.606.033-16.4.203-22.249.231a.456.456 0 00-.257.078.568.568 0 00-.192.216c-3.759 7.054-10.354 18.029-14.709 25.174a.72.72 0 00.038.796l6.085 8.052-.065.115c-.021.045-.048.089-.07.134a6.87 6.87 0 00-.75 3.045 6.932 6.932 0 00.656 3.075c.446.938 1.096 1.718 1.883 2.261a4.541 4.541 0 002.593.828h25.879a4.471 4.471 0 001.992-.477 5.195 5.195 0 001.68-1.352 6.276 6.276 0 001.103-2.017c.25-.752.371-1.556.354-2.364a313.645 313.645 0 00-.878-17.79 164.759 164.759 0 00-2.561-19.519zm127.592-23.407a.646.646 0 00-.185-.305.473.473 0 00-.295-.123.463.463 0 00-.301.102.63.63 0 00-.2.291 74.1 74.1 0 01-2.368 6.099c-7.304 16.612-16.161 32.146-26.397 46.293a.721.721 0 00-.132.433.704.704 0 00.145.426l1.769 2.266c-.52.747-.956 1.574-1.297 2.461a7.58 7.58 0 00-.455 3.127 7.321 7.321 0 00.844 3.006c.432.856 1.035 1.565 1.753 2.064a4.282 4.282 0 002.354.786h26.866a4.24 4.24 0 001.932-.475 5.04 5.04 0 001.628-1.347 6.283 6.283 0 001.07-2.008c.243-.749.36-1.55.345-2.355-.266-12.955-1.5-41.667-7.076-60.741z" fill="#000"/></svg>