<svg width="168" height="168" fill="none" xmlns="http://www.w3.org/2000/svg"><rect x=".5" y=".5" width="167" height="167" rx="4.5" fill="#fff" stroke="url(#paint0_linear)"/><path d="M79.974 43.264a4.816 4.816 0 00-1.027-.743 2.606 2.606 0 00-1.114-.24c-.48 0-.83.11-1.07.306-.24.196-.371.524-.371.96 0 .307.13.59.393.787.262.219.568.415.96.612.394.196.81.393 1.246.611.437.219.852.46 1.245.765.393.306.699.655.961 1.092.262.437.393.961.393 1.573 0 .939-.262 1.747-.764 2.424-.503.677-1.289 1.114-2.294 1.354v2.053h-1.9v-1.965a6.786 6.786 0 01-1.813-.48c-.633-.263-1.18-.59-1.638-1.006l1.267-1.944a7.77 7.77 0 001.42.852c.458.197.917.284 1.376.284.546 0 .96-.109 1.2-.327.263-.219.394-.568.394-1.027 0-.35-.131-.633-.393-.874a4.932 4.932 0 00-.961-.677A32.193 32.193 0 0076.239 47a7.456 7.456 0 01-1.245-.786 4.079 4.079 0 01-.961-1.07c-.262-.416-.393-.896-.393-1.486 0-.96.262-1.77.786-2.402.524-.634 1.267-1.049 2.184-1.224V38h1.9v1.988c.634.087 1.18.284 1.66.568a5.9 5.9 0 011.29 1.048l-1.486 1.66z" fill="#333B41"/><path fill-rule="evenodd" clip-rule="evenodd" d="M127 114l-3.594-2.211-8.017 14.375 3.871 1.935L127 114z" fill="#333B41"/><path clip-rule="evenodd" d="M121.471 111.236c-9.399-10.782-17.693-8.017-28.75-.83-9.676 6.358-16.863 1.935-24.05 4.976-1.66.829-4.147 2.765-1.936 4.7 1.106.829 5.53 1.658 6.911 1.382 7.464-1.659 9.676 1.658 21.01-.553-3.317 2.488-14.099.829-20.733 1.659-5.252 1.105-13.822-3.041-6.911-7.741-3.041-1.382-5.805-2.211-9.123-2.488-3.317-2.488-8.57-5.529-11.334-6.634-2.211-1.383-7.74-.83-4.146 2.764 3.593 3.317 13.269 10.781 15.204 11.887 7.74 4.7 14.928 8.017 22.392 12.163 0 0 2.488 1.383 7.464-.552 3.593-1.659 19.627-10.505 23.497-9.123 2.211.829 3.317 1.382 3.317 1.382l7.188-12.992z" stroke="#333B41" stroke-width="1.5"/><path fill-rule="evenodd" clip-rule="evenodd" d="M74.753 110.406c.553-1.106 1.106-1.935 1.935-2.211.83-.277 1.106.276 1.659.829.552.829.829 1.106 1.658 1.658.277.277.83.277 1.106.277l-.553-.277c-.83-.552-1.382-1.105-1.106-2.211 0-.276-.276-.829.277-.829.553.276 1.382.829 2.211.829 0 0 .83.276.553 0 0-.276-.553-.553-.83-.829-1.658-1.383-1.658-1.659-1.658-3.594.277-2.765-.83-4.976-2.764-6.911-4.423-4.423-2.488-10.505.83-16.31 3.04-5.252 5.804-6.082 2.764-12.44-1.106-2.764-3.041-5.529-3.318-7.187 0-.553 0-.277 0 0-.276 1.658.83 4.146 1.935 6.634 2.488 5.529 1.935 6.082-1.658 11.058-3.87 4.976-6.635 10.228-4.976 15.757 1.106 3.87 6.634 7.74 3.87 10.228-1.382 1.106-3.317 3.87-3.594 5.529-.276.829-.276.829-.553 1.382-.276.277 0 .277.277.277 1.382-.277 1.382-.83 1.935-1.659z" fill="#333B41"/><path d="M93.068 84.529l.912-.26.043.947c.148 3.252-1.245 7.15-3.534 10.227-1.187 1.594-2.648 3.011-4.31 4.006 1.094-.375 2.297-1.065 3.514-2.28 3.235-3.49 4.127-7.927 5.163-13.615-.966.086-1.917.302-2.894.585a53.99 53.99 0 00-1.95.618l-.122.04c-.618.205-1.254.416-1.907.612-5.129 1.893-7.904 4.25-8.913 6.956-.25 1.289-.215 2.454.224 3.331l.036.074.02.08c.174.693.875 1.335 1.816 1.852 1.052-.989 1.784-1.872 2.505-2.79a49.8 49.8 0 00-.494.516l-.361.378a9.202 9.202 0 01-.561.544c-.158.136-.377.308-.63.393l-.19.063-.195-.04c-.895-.178-1.567-.672-1.843-1.5-.247-.74-.124-1.611.164-2.486.494-1.933 2.01-3.444 4.253-4.725 2.258-1.29 5.37-2.416 9.254-3.526zM66.36 66.364c-1.477-.515-2.763-.964-4.201-1.226.05.24.098.48.145.715.131.643.258 1.267.387 1.872a9.918 9.918 0 01-.021-1.313l.05-.945.909.265c3.332.972 6.025 1.958 8.002 3.073 1.764.994 3.052 2.142 3.657 3.561-.84-2.26-3.05-4.197-7.382-5.471l-.012-.004-.013-.004a112.99 112.99 0 01-1.521-.523zm-.675 8.967a16.103 16.103 0 01-1.532-2.522c.606 1.444 1.405 2.738 2.56 3.894l.01.01.01.01c.636.685 1.275 1.177 1.892 1.524-1.12-.79-2.111-1.801-2.94-2.916zm9.78.184c.433-.869.446-1.702.036-2.57.284.787.296 1.568.01 2.234-.306.714-.918 1.208-1.682 1.4l-.212.052-.207-.069a1.453 1.453 0 01-.242-.107c.174.198.358.4.554.608l.02-.005c.959-.24 1.482-.655 1.665-1.39l.02-.079.037-.074zm15.317-8.841a12.79 12.79 0 01-1.042 1.103c.167-.14.335-.293.503-.46.19-.21.37-.425.539-.643zm3.208-9.211l.009-.044c-1.532.298-3.11.777-4.885 1.443h0l-.011.004c-3.478 1.242-5.388 2.642-6.24 4.516.58-1.19 1.623-2.161 3.091-3.005 1.709-.981 4.063-1.83 7.122-2.665l.914-.25zm-10.076 9.701c-.301-.1-.56-.254-.774-.452.188.346.448.63.81.809.106-.11.207-.217.305-.323a1.148 1.148 0 01-.104.005h-.122l-.115-.039z" stroke="#333B41" stroke-width="1.5"/><defs><linearGradient id="paint0_linear" x1="-7.443" y1="24.889" x2="195.1" y2="114.913" gradientUnits="userSpaceOnUse"><stop stop-color="#F9804B"/><stop offset="1" stop-color="#FE9013"/></linearGradient></defs></svg>