<svg width="127" height="20" fill="none" xmlns="http://www.w3.org/2000/svg"><path d="M2.438 9.708V15H.655V1.482h4.986c1.48 0 2.637.377 3.472 1.133.842.755 1.263 1.754 1.263 2.998 0 1.313-.412 2.325-1.235 3.036-.817.706-1.99 1.059-3.519 1.059H2.438zm0-1.458H5.64c.953 0 1.683-.223 2.191-.668.508-.452.761-1.102.761-1.95 0-.805-.253-1.448-.761-1.931-.508-.483-1.204-.734-2.089-.752H2.438V8.25zm13.982 6.936c-1.362 0-2.47-.446-3.324-1.337-.854-.898-1.281-2.095-1.281-3.593V9.94c0-.997.189-1.885.566-2.665.384-.786.916-1.398 1.597-1.838a4.017 4.017 0 012.228-.668c1.306 0 2.322.43 3.046 1.29.724.86 1.086 2.092 1.086 3.695v.715h-6.805c.024.99.312 1.792.863 2.405.557.606 1.263.91 2.117.91.606 0 1.12-.124 1.541-.372.421-.247.79-.575 1.105-.984l1.05.817c-.843 1.294-2.105 1.94-3.789 1.94zm-.214-9.006c-.693 0-1.274.254-1.745.761-.47.501-.761 1.207-.873 2.117h5.033v-.13c-.05-.873-.285-1.547-.706-2.024-.421-.483-.99-.724-1.709-.724zm8.459-3.658v2.432h1.875v1.328h-1.875v6.23c0 .402.083.705.25.91.167.198.452.297.855.297.198 0 .47-.037.817-.112V15a4.979 4.979 0 01-1.319.186c-.767 0-1.346-.232-1.736-.697-.39-.464-.585-1.123-.585-1.977v-6.23h-1.829V4.954h1.829V2.522h1.718zm8.142 6.452c-1.529-.439-2.643-.978-3.342-1.615-.694-.644-1.04-1.436-1.04-2.377 0-1.065.424-1.943 1.272-2.637.854-.7 1.962-1.049 3.324-1.049.928 0 1.754.18 2.478.539.73.359 1.294.854 1.69 1.485.403.632.604 1.322.604 2.07H36c0-.816-.26-1.457-.78-1.921-.52-.47-1.253-.706-2.2-.706-.88 0-1.566.195-2.062.585-.488.384-.733.92-.733 1.606 0 .551.232 1.018.696 1.402.47.378 1.266.724 2.386 1.04 1.127.316 2.006.665 2.637 1.05.638.377 1.108.82 1.411 1.327.31.507.465 1.105.465 1.792 0 1.095-.427 1.974-1.282 2.636-.854.657-1.996.985-3.425.985a6.402 6.402 0 01-2.6-.53c-.805-.359-1.427-.848-1.866-1.466a3.586 3.586 0 01-.65-2.108h1.792c0 .817.3 1.464.9 1.94.607.47 1.415.706 2.424.706.94 0 1.661-.192 2.163-.576.501-.383.752-.906.752-1.569 0-.662-.232-1.173-.697-1.532-.464-.365-1.306-.724-2.525-1.077zm9.368-6.452v2.432h1.876v1.328h-1.876v6.23c0 .402.084.705.25.91.168.198.453.297.855.297.198 0 .47-.037.817-.112V15a4.979 4.979 0 01-1.319.186c-.767 0-1.346-.232-1.736-.697-.39-.464-.585-1.123-.585-1.977v-6.23h-1.829V4.954h1.83V2.522h1.717zm3.25 7.362c0-.984.192-1.869.575-2.655.39-.786.929-1.393 1.616-1.82.693-.427 1.482-.64 2.367-.64 1.368 0 2.473.473 3.315 1.42.848.947 1.272 2.207 1.272 3.779v.12c0 .979-.189 1.857-.567 2.637a4.231 4.231 0 01-1.606 1.81c-.693.434-1.491.65-2.395.65-1.362 0-2.467-.473-3.315-1.42-.841-.947-1.262-2.2-1.262-3.76v-.12zm1.727.204c0 1.115.256 2.01.77 2.684.52.674 1.213 1.012 2.08 1.012.872 0 1.566-.34 2.08-1.022.513-.687.77-1.646.77-2.878 0-1.101-.263-1.993-.789-2.674-.52-.687-1.213-1.03-2.08-1.03-.848 0-1.532.337-2.052 1.012-.52.674-.78 1.64-.78 2.896zM61.58 6.495a5.147 5.147 0 00-.845-.065c-1.127 0-1.891.48-2.294 1.44V15h-1.717V4.954h1.67l.029 1.16c.563-.897 1.361-1.345 2.395-1.345.334 0 .588.043.762.13v1.596zm5.04 5.989l2.34-7.53h1.84L66.76 16.55c-.625 1.672-1.618 2.507-2.98 2.507l-.325-.028-.64-.12v-1.393l.464.037c.581 0 1.033-.117 1.355-.353.328-.235.597-.665.808-1.29l.38-1.021-3.583-9.935h1.875l2.507 7.53zm9.982-2.6c0-.984.192-1.869.575-2.655.39-.786.929-1.393 1.616-1.82.693-.427 1.482-.64 2.367-.64 1.368 0 2.473.473 3.315 1.42.848.947 1.272 2.207 1.272 3.779v.12c0 .979-.189 1.857-.567 2.637a4.231 4.231 0 01-1.606 1.81c-.693.434-1.491.65-2.395.65-1.362 0-2.467-.473-3.315-1.42-.841-.947-1.262-2.2-1.262-3.76v-.12zm1.727.204c0 1.115.256 2.01.77 2.684.52.674 1.213 1.012 2.08 1.012.873 0 1.566-.34 2.08-1.022.513-.687.77-1.646.77-2.878 0-1.101-.263-1.993-.789-2.674-.52-.687-1.213-1.03-2.08-1.03-.848 0-1.532.337-2.051 1.012-.52.674-.78 1.64-.78 2.896zm11.197-5.134l.055 1.263c.768-.966 1.77-1.448 3.008-1.448 2.124 0 3.194 1.197 3.213 3.593V15h-1.718V8.352c-.006-.724-.173-1.26-.501-1.606-.322-.346-.826-.52-1.513-.52-.558 0-1.046.149-1.467.446-.421.297-.75.687-.985 1.17V15h-1.717V4.954h1.625zM100.258 15h-1.717V.74h1.717V15zm4.624 0h-1.718V4.954h1.718V15zm-1.857-12.71c0-.279.084-.514.251-.706.173-.192.427-.288.761-.288s.588.096.761.288c.174.192.26.427.26.706 0 .278-.086.51-.26.696-.173.186-.427.278-.761.278s-.588-.092-.761-.278a1.003 1.003 0 01-.251-.696zm6.239 2.664l.056 1.263c.767-.966 1.77-1.448 3.008-1.448 2.123 0 3.194 1.197 3.213 3.593V15h-1.718V8.352c-.006-.724-.173-1.26-.501-1.606-.322-.346-.827-.52-1.514-.52a2.48 2.48 0 00-1.467.446 3.023 3.023 0 00-.984 1.17V15h-1.718V4.954h1.625zM122.3 15.186c-1.362 0-2.47-.446-3.324-1.337-.854-.898-1.281-2.095-1.281-3.593V9.94c0-.997.188-1.885.566-2.665.384-.786.916-1.398 1.597-1.838a4.017 4.017 0 012.228-.668c1.306 0 2.321.43 3.045 1.29.725.86 1.087 2.092 1.087 3.695v.715h-6.806c.025.99.313 1.792.864 2.405.557.606 1.262.91 2.116.91.607 0 1.121-.124 1.542-.372a3.86 3.86 0 001.104-.984l1.05.817c-.842 1.294-2.105 1.94-3.788 1.94zm-.214-9.006c-.693 0-1.275.254-1.745.761-.471.501-.762 1.207-.873 2.117h5.032v-.13c-.05-.873-.285-1.547-.706-2.024-.421-.483-.99-.724-1.708-.724z" fill="#fff"/><path d="M2.438 9.708V8.519H1.249v1.189h1.189zm0 5.292v1.188h1.188V15H2.438zM.655 15H-.533v1.188H.655V15zm0-13.518V.293H-.533v1.189H.655zm8.458 1.133l-.797.881.004.003.793-.884zm.028 6.034l.777.9-.777-.9zM2.438 8.25H1.249v1.19h1.189V8.25zm5.394-.668l.784.893.006-.006-.79-.887zM5.743 2.949l.025-1.188h-.025v1.188zm-3.305 0V1.76H1.249v1.19h1.189zM1.249 9.708V15h2.377V9.708H1.25zm1.189 4.104H.655v2.376h1.783v-2.376zM1.844 15V1.482H-.533V15h2.377zM.655 2.67h4.986V.293H.655V2.67zm4.986 0c1.28 0 2.12.324 2.675.826L9.91 1.733C8.795.725 7.32.293 5.64.293V2.67zm2.679.83c.563.505.867 1.17.867 2.113h2.377c0-1.543-.537-2.878-1.657-3.883L8.32 3.5zm.867 2.113c0 1.045-.315 1.698-.823 2.137l1.554 1.798c1.138-.983 1.646-2.355 1.646-3.935H9.187zM8.364 7.75c-.526.455-1.38.77-2.742.77v2.376c1.697 0 3.188-.39 4.296-1.347L8.364 7.75zm-2.742.77H2.438v2.376h3.184V8.52zm-3.184.919H5.64V7.062H2.438v2.377zm3.203 0c1.124 0 2.176-.263 2.975-.964L7.048 6.689c-.216.19-.625.373-1.407.373v2.377zm2.981-.97c.822-.73 1.16-1.74 1.16-2.837H7.405c0 .6-.17.89-.363 1.062l1.58 1.775zm1.16-2.837c0-1.077-.352-2.051-1.131-2.792L7.013 4.562c.236.224.392.538.392 1.07h2.377zM8.65 2.84c-.775-.737-1.783-1.056-2.883-1.08l-.05 2.377c.67.014 1.054.196 1.295.425L8.65 2.84zM5.743 1.76H2.438v2.377h3.305V1.76zM1.249 2.95v5.3h2.377v-5.3H1.25zm11.847 10.9l-.86.819.002.003.858-.822zm-.715-6.574l-1.068-.521-.001.004 1.07.517zm1.597-1.838l.645.999.002-.002-.647-.997zm5.274.622l-.91.765.91-.765zm1.086 4.41v1.189h1.188V10.47h-1.188zm-6.805 0V9.281h-1.219l.03 1.218 1.189-.03zm.863 2.405l-.884.794.009.01.875-.804zm4.763-.446l.73-.937-.941-.733-.73.944.941.726zm1.05.817l.995.648.596-.915-.862-.67-.73.937zM14.46 6.941l.867.813.005-.005-.872-.808zm-.873 2.117l-1.18-.144-.162 1.332h1.342V9.058zm5.033 0v1.188h1.188V9.058H18.62zm0-.13h1.188v-.034l-.002-.033-1.186.067zm-.706-2.024l-.896.78.005.007.89-.787zm-1.495 7.093c-1.075 0-1.86-.338-2.466-.97l-1.716 1.644c1.103 1.15 2.533 1.703 4.182 1.703v-2.377zm-2.463-.968c-.601-.632-.954-1.513-.954-2.773h-2.376c0 1.735.502 3.25 1.608 4.412l1.722-1.639zm-.954-2.773V9.94h-2.376v.316h2.376zm0-.316c0-.844.16-1.551.448-2.147l-2.14-1.035c-.466.963-.684 2.033-.684 3.182h2.376zm.446-2.143c.297-.608.69-1.049 1.174-1.361l-1.29-1.997c-.877.566-1.549 1.35-2.02 2.315l2.136 1.043zm1.176-1.363a2.83 2.83 0 011.581-.477V3.58c-1.034 0-2 .293-2.874.86l1.293 1.994zm1.581-.477c1.019 0 1.676.32 2.137.867l1.818-1.53c-.988-1.173-2.36-1.714-3.955-1.714v2.377zm2.137.867c.48.571.807 1.49.807 2.93h2.377c0-1.766-.398-3.31-1.366-4.46l-1.818 1.53zm.807 2.93v.715h2.377v-.715H19.15zm1.188-.473h-6.805v2.377h6.805V9.28zm-7.993 1.218c.03 1.213.39 2.305 1.167 3.17l1.768-1.59c-.325-.361-.54-.872-.56-1.64l-2.375.06zm1.176 3.179c.791.861 1.819 1.294 2.992 1.294v-2.377c-.536 0-.919-.174-1.242-.525l-1.75 1.608zm2.992 1.294c.767 0 1.5-.157 2.144-.535l-1.205-2.049c-.2.117-.494.207-.94.207v2.377zm2.144-.535a5.06 5.06 0 001.442-1.282l-1.88-1.453c-.229.295-.484.52-.767.686l1.205 2.049zm-.228-1.071l1.049.817 1.46-1.875-1.049-.817-1.46 1.875zm.783-.769c-.6.922-1.467 1.4-2.792 1.4v2.377c2.042 0 3.7-.815 4.784-2.48l-1.992-1.297zm-3.006-7.606a3.472 3.472 0 00-2.617 1.142l1.744 1.616a1.1 1.1 0 01.873-.38V4.99zm-2.612 1.137c-.692.738-1.053 1.708-1.185 2.786l2.359.288c.09-.742.311-1.183.56-1.448l-1.734-1.626zm-.006 4.118h5.033V7.87h-5.033v2.376zm6.22-1.188v-.13h-2.376v.13h2.377zm-.001-.197c-.06-1.04-.348-2.004-1.001-2.744l-1.782 1.574c.189.213.37.6.41 1.304l2.373-.134zm-.996-2.738c-.676-.775-1.59-1.132-2.605-1.132v2.377c.422 0 .647.126.813.317l1.792-1.562zm5.854-3.601h1.188V1.333h-1.188v1.189zm0 2.432h-1.189v1.189h1.189V4.954zm1.875 0h1.189V3.766H26.54v1.188zm0 1.328V7.47h1.189V6.282H26.54zm-1.875 0V5.094h-1.189v1.188h1.189zm.25 7.14l-.92.752.006.007.006.007.908-.766zm1.672.185h1.188v-1.47l-1.438.308.25 1.162zm0 1.393l.314 1.146.874-.24V15h-1.188zm-3.64-8.718h1.188V5.094h-1.188v1.188zm-1.829 0H19.93V7.47h1.188V6.282zm0-1.328V3.766H19.93v1.188h1.188zm1.829 0v1.189h1.188V4.954h-1.188zm0-2.432V1.333h-1.188v1.189h1.188zm.53 0v2.432h2.376V2.522h-2.377zm1.188 3.62h1.875V3.767h-1.875v2.377zm.687-1.188v1.328h2.377V4.954h-2.377zm1.188.14h-1.875V7.47h1.875V5.094zm-3.064 1.188v6.23h2.377v-6.23h-2.377zm0 6.23c0 .54.108 1.16.52 1.662l1.84-1.505c.039.048.043.078.037.056a.858.858 0 01-.02-.213h-2.377zm.531 1.676c.493.585 1.204.72 1.762.72V12.53a.781.781 0 01-.11-.006c-.021-.003-.025-.006-.014-.002.01.004.037.014.07.037a.502.502 0 01.109.096l-1.817 1.533zm1.762.72c.323 0 .691-.058 1.067-.139l-.498-2.324a3.147 3.147 0 01-.569.085v2.377zm-.37-1.3V15h2.376v-1.393h-2.377zm.873.246a3.808 3.808 0 01-1.004.143v2.377a6.18 6.18 0 001.633-.228l-.628-2.292zm-1.004.143c-.517 0-.72-.145-.826-.272l-1.82 1.529c.674.802 1.629 1.12 2.646 1.12v-2.377zm-.826-.272c-.149-.177-.307-.526-.307-1.213H21.76c0 1.02.232 1.99.863 2.742l1.82-1.529zm-.307-1.213v-6.23H21.76v6.23h2.376zm-1.188-7.418h-1.829V7.47h1.829V5.094zm-.64 1.188V4.954H19.93v1.328h2.376zm-1.189-.14h1.829V3.767h-1.829v2.377zm3.017-1.188V2.522H21.76v2.432h2.376zM22.947 3.71h1.718V1.333h-1.718V3.71zm9.86 5.264l.33-1.141h-.002l-.328 1.141zM29.465 7.36l-.809.87.008.008.8-.878zm.232-5.014l.752.92-.752-.92zm5.802-.51L34.972 2.9l.003.002.524-1.066zm1.69 1.485l-1.006.632.004.007 1.002-.639zm.604 2.07V6.58h1.188V5.391h-1.188zM36 5.39h-1.188v1.19H36V5.391zm-.78-1.921l-.797.881.005.005.792-.886zm-4.261-.12l.733.934.002-.001-.736-.934zm-.038 3.007l-.757.916.007.006.006.005.744-.927zm2.386 1.04l-.322 1.144h.002l.32-1.144zm2.637 1.05l-.617 1.015.012.007.605-1.023zm1.411 1.327l-1.02.61.006.009 1.014-.62zM36.54 14.2l.724.943.005-.003-.729-.94zm-6.025.455l-.484 1.086.007.003.477-1.088zm-1.866-1.466l-.974.681.005.006.969-.688zm-.65-2.108V9.894H26.81v1.188h1.189zm1.792 0h1.188V9.894H29.79v1.188zm.9 1.94l-.739.931.01.008.73-.939zm4.642-2.97l-.734.934.007.005.727-.94zm-2.197-2.22c-1.457-.419-2.368-.894-2.87-1.351l-1.6 1.756c.896.818 2.214 1.42 3.814 1.88l.656-2.285zm-2.862-1.344c-.452-.42-.66-.898-.66-1.506h-2.377c0 1.273.486 2.38 1.42 3.248l1.617-1.742zm-.66-1.506c0-.696.255-1.242.836-1.717l-1.504-1.84c-1.115.912-1.709 2.124-1.709 3.557h2.377zm.837-1.717c.595-.488 1.417-.78 2.57-.78V.108c-1.57 0-2.964.407-4.076 1.318l1.506 1.839zm2.57-.78c.773 0 1.414.148 1.952.414L36.027.77c-.91-.45-1.922-.661-3.006-.661v2.377zm1.955.416c.551.271.94.623 1.208 1.05l2.013-1.262c-.524-.836-1.263-1.474-2.172-1.92L34.975 2.9zm1.212 1.058c.28.44.417.909.417 1.432h2.377a4.97 4.97 0 00-.79-2.71l-2.004 1.28zm1.606.243H36V6.58h1.792V4.202zM37.19 5.39c0-1.092-.36-2.08-1.176-2.809L34.43 4.354c.224.2.383.493.383 1.036h2.377zm-1.17-2.804c-.806-.728-1.861-1.012-2.998-1.012v2.377c.757 0 1.168.186 1.403.398l1.594-1.762zm-3-1.011c-1.043 0-2.023.23-2.797.84l1.47 1.867c.217-.171.611-.33 1.327-.33V1.575zm-2.795.838c-.81.635-1.188 1.533-1.188 2.541h2.376c0-.366.11-.538.28-.671l-1.468-1.87zm-1.188 2.541c0 .941.419 1.733 1.127 2.318L31.68 5.44c-.22-.182-.266-.325-.266-.486h-2.376zm1.14 2.329c.664.532 1.65.93 2.808 1.257l.645-2.288c-1.083-.305-1.687-.6-1.965-.823l-1.488 1.854zm2.81 1.257c1.075.302 1.839.616 2.34.92l1.234-2.03c-.761-.463-1.755-.848-2.933-1.178l-.641 2.288zm2.352.928c.51.301.817.615.996.915l2.04-1.22c-.427-.715-1.06-1.287-1.825-1.74l-1.21 2.045zm1.002.924c.179.293.29.67.29 1.173h2.377c0-.871-.198-1.69-.638-2.41l-2.03 1.237zm.29 1.173c0 .734-.261 1.264-.82 1.697l1.456 1.879c1.149-.891 1.741-2.12 1.741-3.576h-2.377zm-.816 1.694c-.588.451-1.449.738-2.703.738v2.377c1.606 0 3.03-.37 4.15-1.23l-1.447-1.885zm-2.703.738a5.215 5.215 0 01-2.122-.429l-.954 2.177a7.59 7.59 0 003.076.63v-2.378zm-2.115-.426c-.642-.286-1.084-.65-1.381-1.07l-1.938 1.377c.58.818 1.383 1.432 2.35 1.864l.969-2.17zm-1.377-1.063a2.4 2.4 0 01-.435-1.426H26.81c0 1.02.286 1.962.865 2.789l1.947-1.363zm-1.623-.238h1.792V9.894h-1.792v2.376zm.603-1.188c0 1.152.445 2.153 1.35 2.871l1.478-1.861c-.295-.235-.451-.528-.451-1.01H28.6zm1.36 2.88c.873.676 1.963.954 3.152.954V12.54c-.828 0-1.354-.192-1.694-.457l-1.457 1.878zm3.152.954c1.08 0 2.098-.216 2.886-.82l-1.445-1.887c-.214.164-.639.33-1.44.33v2.377zm2.886-.82c.812-.621 1.218-1.502 1.218-2.513H34.84c0 .314-.094.48-.286.626L36 14.096zm1.218-2.513c0-.976-.362-1.857-1.158-2.472l-1.454 1.88c.134.103.235.244.235.592h2.377zm-1.15-2.466c-.658-.517-1.693-.926-2.93-1.284l-.66 2.283c1.202.348 1.85.657 2.12.87l1.47-1.869zm6.108-6.595h1.189V1.333h-1.189v1.189zm0 2.432h-1.188v1.189h1.188V4.954zm1.876 0h1.188V3.766H44.05v1.188zm0 1.328V7.47h1.188V6.282H44.05zm-1.876 0V5.094h-1.188v1.188h1.188zm.25 7.14l-.919.752.006.007.005.007.909-.766zm1.672.185h1.188v-1.47l-1.437.308.249 1.162zm0 1.393l.314 1.146.874-.24V15h-1.188zm-3.64-8.718h1.189V5.094h-1.189v1.188zm-1.829 0H37.44V7.47h1.188V6.282zm0-1.328V3.766H37.44v1.188h1.188zm1.83 0v1.189h1.188V4.954h-1.189zm0-2.432V1.333h-1.189v1.189h1.188zm.529 0v2.432h2.377V2.522h-2.377zm1.188 3.62h1.876V3.767h-1.876v2.377zm.687-1.188v1.328h2.377V4.954h-2.377zm1.188.14h-1.875V7.47h1.876V5.094zm-3.063 1.188v6.23h2.377v-6.23h-2.377zm0 6.23c0 .54.107 1.16.519 1.662l1.84-1.505c.04.048.044.078.037.056a.86.86 0 01-.02-.213h-2.376zm.53 1.676c.494.585 1.204.72 1.763.72V12.53a.779.779 0 01-.11-.006c-.022-.003-.025-.006-.015-.002.01.004.037.014.071.037a.502.502 0 01.108.096l-1.817 1.533zm1.763.72c.323 0 .69-.058 1.066-.139l-.498-2.324a3.146 3.146 0 01-.568.085v2.377zm-.372-1.3V15h2.377v-1.393h-2.377zm.875.246c-.36.098-.693.143-1.005.143v2.377c.543 0 1.089-.079 1.633-.228l-.628-2.292zm-1.005.143c-.517 0-.72-.145-.826-.272l-1.82 1.529c.674.802 1.629 1.12 2.647 1.12v-2.377zm-.826-.272c-.148-.177-.306-.526-.306-1.213h-2.377c0 1.02.232 1.99.863 2.742l1.82-1.529zm-.306-1.213v-6.23h-2.377v6.23h2.377zm-1.189-7.418h-1.829V7.47h1.83V5.094zm-.64 1.188V4.954H37.44v1.328h2.377zm-1.189-.14h1.83V3.767h-1.83v2.377zm3.018-1.188V2.522h-2.377v2.432h2.377zM40.457 3.71h1.718V1.333h-1.718V3.71zM46 7.23l-1.064-.53-.004.007 1.068.52zm1.616-1.82l-.624-1.012-.004.003.628 1.01zm5.682.78l-.889.79.003.003.886-.793zm.705 6.536l-1.07-.518-.001.004 1.071.514zm-1.606 1.81l-.626-1.01-.004.003.63 1.008zm-5.71-.77l-.888.79.003.003.885-.793zm1.235-.993l-.945.72.004.005.941-.725zm4.16-.01l.948.716.003-.004-.952-.712zm-.019-5.552l-.948.718.008.009.94-.727zm-5.45 2.674c0-.826.16-1.53.455-2.134l-2.136-1.042c-.472.967-.696 2.034-.696 3.176h2.377zm.452-2.127c.3-.606.695-1.038 1.178-1.339L46.988 4.4c-.89.553-1.573 1.334-2.052 2.3l2.129 1.057zm1.174-1.336c.49-.302 1.06-.464 1.744-.464V3.58c-1.085 0-2.094.265-2.99.817l1.246 2.024zm1.744-.464c1.06 0 1.83.35 2.427 1.022l1.776-1.58c-1.087-1.222-2.526-1.82-4.203-1.82v2.377zm2.43 1.025c.609.68.968 1.634.968 2.986h2.377c0-1.793-.488-3.358-1.575-4.572l-1.77 1.586zm.968 2.986v.12h2.377v-.12h-2.377zm0 .12c0 .822-.157 1.52-.447 2.12l2.139 1.035c.465-.96.685-2.02.685-3.155h-2.377zm-.449 2.123a3.043 3.043 0 01-1.16 1.314l1.251 2.021a5.418 5.418 0 002.052-2.306l-2.143-1.029zm-1.165 1.317c-.485.303-1.06.47-1.765.47v2.376c1.102 0 2.123-.267 3.025-.83l-1.26-2.016zm-1.765.47c-1.051 0-1.824-.35-2.43-1.026l-1.77 1.586c1.09 1.218 2.527 1.816 4.2 1.816v-2.377zm-2.427-1.022c-.606-.683-.962-1.632-.962-2.971h-2.377c0 1.78.486 3.338 1.563 4.55l1.776-1.58zm-.962-2.971v-.12h-2.377v.12h2.377zm-.65.083c0 1.293.3 2.465 1.014 3.404l1.89-1.44c-.312-.411-.527-1.028-.527-1.963h-2.377zm1.018 3.41c.75.972 1.793 1.474 3.02 1.474v-2.377c-.505 0-.847-.172-1.138-.549l-1.882 1.451zM50 14.971c1.236 0 2.285-.507 3.03-1.494l-1.898-1.431c-.283.375-.621.548-1.131.548v2.377zm3.032-1.498c.722-.965 1.008-2.21 1.008-3.59h-2.377c0 1.083-.228 1.758-.534 2.167l1.903 1.423zm1.008-3.59c0-1.29-.31-2.46-1.038-3.4l-1.88 1.453c.325.42.54 1.034.54 1.947h2.378zm-1.03-3.39c-.747-.987-1.792-1.503-3.028-1.503v2.377c.497 0 .839.171 1.132.56l1.896-1.435zM49.983 4.99c-1.218 0-2.25.51-2.993 1.475l1.883 1.451c.296-.384.633-.549 1.11-.549V4.991zM46.99 6.466c-.74.961-1.027 2.223-1.027 3.622h2.377c0-1.113.233-1.782.533-2.17L46.99 6.465zm14.59.03l-.196 1.172 1.384.23V6.495H61.58zM58.44 7.87l-1.096-.46-.092.22v.24h1.188zm0 7.13v1.188h1.189V15H58.44zm-1.717 0h-1.189v1.188h1.189V15zm0-10.046V3.766h-1.189v1.188h1.189zm1.67 0l1.189-.028-.028-1.16h-1.16v1.188zm.029 1.16l-1.188.03.095 3.948 2.1-3.345-1.007-.632zM61.58 4.9h1.188v-.735l-.657-.328L61.58 4.9zm.195.424a6.332 6.332 0 00-1.04-.08V7.62c.247 0 .462.018.65.049l.39-2.345zm-1.04-.08c-.732 0-1.437.156-2.05.54-.62.39-1.059.957-1.34 1.627l2.192.92c.122-.29.267-.443.411-.533.151-.095.392-.178.787-.178V5.242zM57.253 7.87V15h2.377V7.87h-2.377zm1.188 5.942h-1.717v2.376h1.717v-2.376zM57.912 15V4.954h-2.377V15h2.377zm-1.188-8.857h1.67V3.766h-1.67v2.377zm.483-1.16l.028 1.16 2.376-.057-.028-1.16-2.376.057zm2.222 1.764c.353-.562.777-.79 1.39-.79V3.58c-1.456 0-2.629.67-3.403 1.903l2.013 1.264zm1.39-.79c.118 0 .195.008.24.016.047.008.035.011-.011-.012l1.063-2.125c-.417-.21-.89-.256-1.293-.256v2.377zm-.428-1.058v1.596h2.377V4.9H60.39zm6.23 7.585l-1.128.375 1.167 3.504 1.096-3.526-1.135-.353zm2.34-7.53V3.766h-.876l-.26.836 1.136.352zm1.838 0l1.122.391.55-1.58H70.8v1.19zM66.76 16.55l1.113.417.005-.013.004-.013-1.122-.39zm-2.98 2.507l-.102 1.184.051.005h.05v-1.189zm-.325-.028l-.22 1.168.059.011.06.006.1-1.185zm-.64-.12h-1.19v.985l.97.183.22-1.168zm0-1.393l.094-1.184-1.283-.103v1.287h1.188zm.464.037l-.095 1.185.047.004h.047v-1.189zm1.355-.353l-.692-.965-.01.006.702.96zm.808-1.29l-1.114-.415-.006.018-.007.018 1.127.379zm.38-1.021l1.114.415.152-.409-.148-.41-1.117.404zM62.24 4.954V3.766h-1.692l.574 1.592 1.118-.404zm1.875 0l1.128-.375-.271-.813h-.857v1.188zm3.642 7.883l2.34-7.53-2.27-.705-2.34 7.53 2.27.705zm1.205-6.694H70.8V3.766h-1.84v2.377zm.716-1.58l-4.04 11.597 2.245.781 4.04-11.596-2.245-.782zm-4.03 11.571c-.266.713-.573 1.141-.866 1.387-.271.228-.585.348-1.001.348v2.377c.946 0 1.81-.299 2.531-.906.701-.59 1.204-1.414 1.562-2.373l-2.226-.833zm-1.766 1.74l-.325-.029-.203 2.369.325.027.203-2.368zm-.206-.012l-.64-.121-.44 2.336.64.12.44-2.335zm.328 1.047v-1.393h-2.377v1.393h2.377zm-1.284-.208l.465.037.19-2.37-.465-.037-.19 2.37zm.56.04c.722 0 1.457-.143 2.056-.581l-1.402-1.92c-.044.033-.214.125-.654.125v2.377zm2.047-.575c.623-.446.998-1.152 1.242-1.877l-2.252-.758c-.178.525-.341.68-.374.704l1.384 1.931zm1.23-1.841l.38-1.021-2.227-.83-.38 1.02 2.226.83zm.384-1.84l-3.583-9.934-2.236.807 3.584 9.934 2.235-.807zM62.24 6.143h1.875V3.766H62.24v2.377zm.748-.813l2.506 7.53 2.256-.752-2.507-7.53-2.255.752zm14.19 1.899L76.113 6.7l-.004.007 1.068.52zm1.616-1.82l-.624-1.012-.004.003.628 1.01zm5.682.78l-.888.79.002.003.886-.793zm.706 6.536l-1.07-.518-.002.004 1.072.514zm-1.607 1.81l-.626-1.01-.004.003.63 1.008zm-5.71-.77l-.888.79.003.003.885-.793zm1.235-.993l-.945.72.004.005.941-.725zm4.16-.01l.948.716.003-.004-.951-.712zm-.02-5.552l-.948.718.008.009.94-.727zm-5.45 2.674c0-.826.16-1.53.455-2.134L76.11 6.708c-.472.967-.696 2.034-.696 3.176h2.377zm.452-2.127c.3-.606.695-1.038 1.178-1.339L78.165 4.4c-.89.553-1.573 1.334-2.052 2.3l2.129 1.057zm1.174-1.336c.49-.302 1.06-.464 1.744-.464V3.58c-1.085 0-2.094.265-2.99.817l1.246 2.024zm1.744-.464c1.06 0 1.83.35 2.427 1.022l1.776-1.58C84.276 4.178 82.837 3.58 81.16 3.58v2.377zm2.43 1.025c.609.68.968 1.634.968 2.986h2.377c0-1.793-.488-3.358-1.575-4.572l-1.77 1.586zm.968 2.986v.12h2.377v-.12h-2.377zm0 .12c0 .822-.157 1.52-.447 2.12l2.14 1.035c.464-.96.684-2.02.684-3.155h-2.377zm-.449 2.123a3.043 3.043 0 01-1.16 1.314l1.251 2.021a5.418 5.418 0 002.052-2.306l-2.143-1.029zm-1.165 1.317c-.484.303-1.06.47-1.765.47v2.376c1.102 0 2.123-.267 3.025-.83l-1.26-2.016zm-1.765.47c-1.051 0-1.824-.35-2.43-1.026l-1.77 1.586c1.09 1.218 2.527 1.816 4.2 1.816v-2.377zm-2.426-1.022c-.607-.683-.963-1.632-.963-2.971h-2.377c0 1.78.486 3.338 1.563 4.55l1.777-1.58zm-.963-2.971v-.12h-2.377v.12h2.377zm-.65.083c0 1.293.3 2.465 1.014 3.404l1.89-1.44c-.312-.411-.527-1.028-.527-1.963H77.14zm1.018 3.41c.75.972 1.793 1.474 3.02 1.474v-2.377c-.505 0-.847-.172-1.138-.549l-1.882 1.451zm3.02 1.474c1.236 0 2.285-.507 3.03-1.494l-1.898-1.431c-.283.375-.621.548-1.131.548v2.377zm3.032-1.498c.722-.965 1.008-2.21 1.008-3.59H82.84c0 1.083-.228 1.758-.534 2.167l1.903 1.423zm1.008-3.59c0-1.29-.31-2.46-1.038-3.4L82.3 7.937c.325.42.54 1.034.54 1.947h2.378zm-1.03-3.39c-.746-.987-1.791-1.503-3.028-1.503v2.377c.497 0 .839.171 1.132.56l1.896-1.435zM81.16 4.99c-1.218 0-2.25.51-2.993 1.475l1.883 1.451c.296-.384.633-.549 1.11-.549V4.991zm-2.993 1.475c-.74.961-1.027 2.223-1.027 3.622h2.377c0-1.113.233-1.782.533-2.17l-1.883-1.452zm11.359-1.512l1.187-.052-.05-1.136h-1.137v1.188zm.055 1.263l-1.187.052.14 3.175 1.978-2.488-.93-.74zm6.22 2.145h1.19v-.01l-1.19.01zm0 6.638v1.188h1.19V15H95.8zm-1.717 0h-1.188v1.188h1.188V15zm0-6.648h1.189v-.01l-1.189.01zm-.501-1.606l-.871.809.008.008.863-.817zm-3.965 1.096l-1.068-.52-.12.246v.274h1.188zm0 7.158v1.188h1.189V15h-1.189zm-1.717 0h-1.189v1.188h1.189V15zm0-10.046V3.766h-1.189v1.188h1.189zm.437.053l.056 1.262 2.374-.104-.055-1.263-2.375.105zm2.174 1.95c.54-.681 1.2-1 2.077-1V3.58c-1.598 0-2.944.647-3.938 1.897l1.86 1.48zm2.077-1c.838 0 1.267.23 1.51.502.267.299.506.865.514 1.912l2.377-.019c-.01-1.348-.316-2.578-1.12-3.477-.827-.926-1.996-1.295-3.28-1.295v2.377zm2.024 2.405V15h2.377V8.362h-2.377zm1.189 5.45h-1.718v2.376h1.718v-2.376zM95.272 15V8.352h-2.376V15h2.377zm0-6.658c-.007-.873-.207-1.759-.826-2.413L92.72 7.563c.037.04.171.224.176.8l2.377-.02zm-.818-2.405c-.633-.68-1.518-.9-2.384-.9v2.378c.508 0 .63.128.642.14l1.742-1.617zm-2.384-.9a3.67 3.67 0 00-2.153.664l1.37 1.942c.205-.144.45-.228.782-.228V5.038zm-2.153.664a4.214 4.214 0 00-1.367 1.62l2.137 1.041c.151-.31.35-.543.6-.72l-1.37-1.941zm-1.487 2.14V15h2.377V7.842H88.43zm1.188 5.97h-1.717v2.377h1.717v-2.376zM89.09 15V4.954h-2.377V15h2.377zm-1.188-8.857h1.625V3.766H87.9v2.377zM100.258 15v1.188h1.189V15h-1.189zm-1.717 0h-1.189v1.188h1.189V15zm0-14.26V-.45h-1.189V.74h1.189zm1.717 0h1.189V-.45h-1.189V.74zm0 13.072h-1.717v2.376h1.717v-2.376zM99.729 15V.74h-2.377V15h2.377zM98.541 1.928h1.717V-.45h-1.717v2.377zM99.07.739V15h2.377V.74H99.07zM104.882 15v1.188h1.188V15h-1.188zm-1.718 0h-1.188v1.188h1.188V15zm0-10.046V3.766h-1.188v1.188h1.188zm1.718 0h1.188V3.766h-1.188v1.188zm-1.606-3.37l-.882-.797-.007.008-.007.008.896.781zm0 1.402l-.884.795.008.008.007.008.869-.811zm1.606 10.826h-1.718v2.376h1.718v-2.376zM104.353 15V4.954h-2.377V15h2.377zm-1.189-8.857h1.718V3.766h-1.718v2.377zm.53-1.189V15h2.376V4.954h-2.376zm.52-2.664c0-.02.002-.012-.006.012a.208.208 0 01-.036.063L102.38.803c-.374.43-.543.95-.543 1.487h2.377zm-.056.09a.397.397 0 01-.142.1c-.034.013-.035.005.021.005V.108c-.566 0-1.183.17-1.643.68l1.764 1.593zm-.121.105c.056 0 .055.008.021-.005a.345.345 0 01-.141-.1L105.68.788c-.46-.51-1.077-.68-1.643-.68v2.378zm-.12-.104a.203.203 0 01-.039-.066c-.01-.028-.008-.04-.008-.025h2.377a2.2 2.2 0 00-.567-1.503l-1.763 1.594zm-.047-.091c0 .014-.002 0 .01-.033a.247.247 0 01.05-.082l1.737 1.622c.4-.428.58-.96.58-1.507h-2.377zm.06-.115a.413.413 0 01.14-.096c.031-.011.027-.003-.033-.003v2.377c.555 0 1.167-.16 1.63-.656l-1.737-1.622zm.107-.099c-.059 0-.063-.008-.033.003a.42.42 0 01.141.096l-1.738 1.622c.463.496 1.076.656 1.63.656V2.076zm.122.115c.018.02.036.048.047.08.01.028.008.038.008.019h-2.377c0 .535.169 1.061.555 1.491l1.767-1.59zm5.105 2.763l1.188-.052-.051-1.136h-1.137v1.188zm.056 1.263l-1.187.052.14 3.175 1.977-2.488-.93-.74zm6.221 2.145h1.188v-.01l-1.188.01zm0 6.638v1.188h1.188V15h-1.188zm-1.718 0h-1.188v1.188h1.188V15zm0-6.648h1.188v-.01l-1.188.01zm-.501-1.606l-.871.809.007.008.864-.817zm-3.965 1.096l-1.068-.52-.12.246v.274h1.188zm0 7.158v1.188h1.189V15h-1.189zm-1.718 0h-1.188v1.188h1.188V15zm0-10.046V3.766h-1.188v1.188h1.188zm.438.053l.056 1.262 2.374-.104-.055-1.263-2.375.105zm2.173 1.95c.541-.681 1.201-1 2.078-1V3.58c-1.599 0-2.944.647-3.938 1.897l1.86 1.48zm2.078-1c.838 0 1.266.23 1.51.502.267.299.506.865.514 1.912l2.377-.019c-.011-1.348-.316-2.578-1.12-3.477-.827-.926-1.996-1.295-3.281-1.295v2.377zm2.024 2.405V15h2.377V8.362h-2.377zm1.189 5.45h-1.718v2.376h1.718v-2.376zm-.53 1.188V8.352h-2.376V15h2.376zm0-6.658c-.007-.873-.207-1.759-.826-2.413l-1.727 1.634c.037.04.172.224.177.8l2.376-.02zm-.819-2.405c-.632-.68-1.518-.9-2.384-.9v2.378c.508 0 .631.128.643.14l1.741-1.617zm-2.384-.9a3.67 3.67 0 00-2.152.664l1.371 1.942c.203-.144.449-.228.781-.228V5.038zm-2.152.664a4.21 4.21 0 00-1.367 1.62l2.136 1.041a1.84 1.84 0 01.602-.72l-1.371-1.941zm-1.487 2.14V15h2.377V7.842h-2.377zm1.188 5.97h-1.718v2.377h1.718v-2.376zM108.828 15V4.954h-2.377V15h2.377zm-1.189-8.857h1.625V3.766h-1.625v2.377zm11.337 7.706l-.861.819.003.003.858-.822zm-.715-6.574l-1.068-.521-.002.004 1.07.517zm1.597-1.838l.644.999.003-.002-.647-.997zm5.273.622l-.909.765.909-.765zm1.087 4.41v1.189h1.188v-1.189h-1.188zm-6.806 0V9.281h-1.218l.03 1.218 1.188-.03zm.864 2.405l-.884.794.008.01.876-.804zm4.762-.446l.731-.937-.941-.733-.73.944.94.726zm1.05.817l.996.648.595-.915-.861-.67-.73.937zm-5.747-6.304l.866.813.005-.005-.871-.808zm-.873 2.117l-1.18-.144-.163 1.332h1.343V9.058zm5.032 0v1.188h1.188V9.058H124.5zm0-.13h1.188v-.034l-.002-.033-1.186.067zm-.706-2.024l-.895.78.005.007.89-.787zm-1.494 7.093c-1.075 0-1.861-.338-2.466-.97l-1.716 1.644c1.102 1.15 2.533 1.703 4.182 1.703v-2.377zm-2.463-.968c-.602-.632-.954-1.513-.954-2.773h-2.377c0 1.735.502 3.25 1.609 4.412l1.722-1.639zm-.954-2.773V9.94h-2.377v.316h2.377zm0-.316c0-.844.159-1.551.448-2.147l-2.14-1.035c-.466.963-.685 2.033-.685 3.182h2.377zm.446-2.143c.296-.608.689-1.049 1.173-1.361l-1.289-1.997c-.877.566-1.549 1.35-2.02 2.315l2.136 1.043zm1.176-1.363a2.826 2.826 0 011.581-.477V3.58a5.205 5.205 0 00-2.875.86l1.294 1.994zm1.581-.477c1.018 0 1.675.32 2.136.867l1.819-1.53c-.988-1.173-2.361-1.714-3.955-1.714v2.377zm2.136.867c.481.571.807 1.49.807 2.93h2.377c0-1.766-.398-3.31-1.365-4.46l-1.819 1.53zm.807 2.93v.715h2.377v-.715h-2.377zm1.189-.473h-6.806v2.377h6.806V9.28zm-7.994 1.218c.03 1.213.391 2.305 1.168 3.17l1.767-1.59c-.325-.361-.54-.872-.559-1.64l-2.376.06zm1.176 3.179c.792.861 1.82 1.294 2.992 1.294v-2.377c-.535 0-.918-.174-1.241-.525l-1.751 1.608zm2.992 1.294c.768 0 1.501-.157 2.144-.535l-1.205-2.049c-.199.117-.493.207-.939.207v2.377zm2.144-.535a5.06 5.06 0 001.443-1.282l-1.881-1.453a2.68 2.68 0 01-.767.686l1.205 2.049zm-.228-1.071l1.049.817 1.461-1.875-1.049-.817-1.461 1.875zm.784-.769c-.6.922-1.467 1.4-2.792 1.4v2.377c2.042 0 3.7-.815 4.784-2.48l-1.992-1.297zm-3.006-7.606a3.472 3.472 0 00-2.617 1.142l1.743 1.616a1.1 1.1 0 01.874-.38V4.99zm-2.612 1.137c-.693.738-1.054 1.708-1.186 2.786l2.359.288c.091-.742.312-1.183.56-1.448l-1.733-1.626zm-.006 4.118h5.032V7.87h-5.032v2.376zm6.22-1.188v-.13h-2.376v.13h2.376zm-.002-.197c-.059-1.04-.348-2.004-1.001-2.744l-1.781 1.574c.188.213.369.6.409 1.304l2.373-.134zm-.996-2.738c-.675-.775-1.589-1.132-2.604-1.132v2.377c.421 0 .646.126.813.317l1.791-1.562z" fill="#fff"/></svg>