<svg width="71" height="37" fill="none" xmlns="http://www.w3.org/2000/svg"><path d="M54.589 28.034h0l-.004.003c-2.993 1.94-5.764 3.577-8.237 4.867-1.384.723-2.906 1.456-4.329 2.009-1.415.55-2.76.933-3.778.933-.664 0-1.253-.165-1.6-.627h0c-.352-.468-.342-1.089-.15-1.738.194-.654.59-1.397 1.1-2.17 1.022-1.548 2.54-3.278 3.972-4.775a87.16 87.16 0 013.648-3.58c-4.338.384-9.196.587-14.154.587-7.294 0-14.821-.454-20.53-1.33-2.853-.438-5.265-.983-6.969-1.636-.851-.326-1.541-.684-2.023-1.08-.48-.395-.785-.855-.785-1.381s.304-.986.785-1.381c.482-.396 1.172-.755 2.023-1.08 1.704-.653 4.116-1.198 6.968-1.636 5.71-.877 13.237-1.331 20.53-1.331 5.218 0 10.28.22 14.77.642a92.6 92.6 0 01-5.034-4.067h0c-1.558-1.365-3.224-2.953-4.38-4.405-.576-.725-1.035-1.429-1.287-2.064-.25-.629-.314-1.246-.005-1.743h0c.309-.498.89-.713 1.566-.769.68-.056 1.515.044 2.42.24 1.814.39 3.976 1.18 5.89 1.972 2.569 1.064 5.473 2.45 8.637 4.12h.003l2.413 1.305h0l.006.004 3.47 2.011h0l.002.002A706.749 706.749 0 0169.8 16.198h0l.333.207.31.193-.292.219-.313.235s0 0 0 0a661.664 661.664 0 01-9.67 7.15h-.001l-1.451 1.043h0l-.006.004-4.12 2.785zm-8.72 3.95h0c2.44-1.274 5.182-2.894 8.149-4.817 0 0 0 0 0 0l2.277-1.506 3.263-2.3.001-.001a671.25 671.25 0 009.048-6.68 720.94 720.94 0 00-9.61-5.852l-2.22-1.313-3.631-1.985-.002-.001c-3.136-1.655-6.01-3.026-8.546-4.074h0c-3.682-1.526-5.824-2.043-7.06-2.142-1.24-.1-1.499.224-1.538.286-.037.06-.212.435.428 1.502.637 1.064 2.05 2.755 5.049 5.38h0c1.787 1.566 3.965 3.295 6.472 5.138l.808.594.752.552-.928-.102-.997-.11c-4.89-.54-10.605-.827-16.528-.827-8.818 0-16.183.6-21.338 1.476-2.58.439-4.595.945-5.96 1.476-.684.267-1.19.534-1.522.792-.338.264-.448.482-.448.646 0 .164.11.382.448.645.331.259.838.526 1.522.792 1.365.531 3.38 1.037 5.96 1.476 5.155.877 12.52 1.476 21.338 1.476 5.524 0 10.916-.252 15.592-.73l.815-.082.756-.077-.563.51-.606.551h0a93.245 93.245 0 00-4.737 4.576c-2.752 2.88-4.01 4.69-4.55 5.807-.544 1.123-.334 1.48-.292 1.535h0c.04.055.324.357 1.554.147 1.223-.208 3.31-.913 6.844-2.759z" fill="#333B41" stroke="#333B41" stroke-width=".5"/></svg>